<?xml version="1.0" standalone="yes"?>

<svg version="1.1" viewBox="0.0 0.0 960.0 540.0" fill="none" stroke="none" stroke-linecap="square" stroke-miterlimit="10" xmlns="http://www.w3.org/2000/svg" xmlns:xlink="http://www.w3.org/1999/xlink"><clipPath id="g1cb649d69_042.0"><path d="m0 0l960.0 0l0 540.0l-960.0 0l0 -540.0z" clip-rule="nonzero"></path></clipPath><g clip-path="url(#g1cb649d69_042.0)"><path fill="#000000" fill-opacity="0.0" d="m0 0l960.0 0l0 540.0l-960.0 0z" fill-rule="nonzero"></path><path fill="#cccccc" d="m522.0958 170.30183l0 0c0 -14.228943 11.53479 -25.763779 25.763733 -25.763779l0 0c6.833008 0 13.386108 2.714386 18.217773 7.546036c4.831665 4.83165 7.5460205 11.384766 7.5460205 18.217743l0 0c0 14.228943 -11.534851 25.763779 -25.763794 25.763779l0 0c-14.228943 0 -25.763733 -11.534836 -25.763733 -25.763779z" fill-rule="nonzero"></path><path stroke="#666666" stroke-width="2.0" stroke-linejoin="round" stroke-linecap="butt" d="m522.0958 170.30183l0 0c0 -14.228943 11.53479 -25.763779 25.763733 -25.763779l0 0c6.833008 0 13.386108 2.714386 18.217773 7.546036c4.831665 4.83165 7.5460205 11.384766 7.5460205 18.217743l0 0c0 14.228943 -11.534851 25.763779 -25.763794 25.763779l0 0c-14.228943 0 -25.763733 -11.534836 -25.763733 -25.763779z" fill-rule="nonzero"></path><path fill="#cccccc" d="m643.0026 281.51968l0 0c0 -14.228943 11.534851 -25.763779 25.763794 -25.763779l0 0c6.832947 0 13.386108 2.7144012 18.217712 7.546036c4.831665 4.8316345 7.5460815 11.384766 7.5460815 18.217743l0 0c0 14.228943 -11.534851 25.763794 -25.763794 25.763794l0 0c-14.228943 0 -25.763794 -11.534851 -25.763794 -25.763794z" fill-rule="nonzero"></path><path stroke="#666666" stroke-width="2.0" stroke-linejoin="round" stroke-linecap="butt" d="m643.0026 281.51968l0 0c0 -14.228943 11.534851 -25.763779 25.763794 -25.763779l0 0c6.832947 0 13.386108 2.7144012 18.217712 7.546036c4.831665 4.8316345 7.5460815 11.384766 7.5460815 18.217743l0 0c0 14.228943 -11.534851 25.763794 -25.763794 25.763794l0 0c-14.228943 0 -25.763794 -11.534851 -25.763794 -25.763794z" fill-rule="nonzero"></path><path fill="#cccccc" d="m186.17848 369.958l0 0c0 -14.228943 11.534836 -25.763794 25.763779 -25.763794l0 0c6.8329773 0 13.386093 2.7144165 18.217743 7.546051c4.83165 4.8316345 7.546036 11.384766 7.546036 18.217743l0 0c0 14.228943 -11.534836 25.763763 -25.763779 25.763763l0 0c-14.228943 0 -25.763779 -11.534821 -25.763779 -25.763763z" fill-rule="nonzero"></path><path stroke="#666666" stroke-width="2.0" stroke-linejoin="round" stroke-linecap="butt" d="m186.17848 369.958l0 0c0 -14.228943 11.534836 -25.763794 25.763779 -25.763794l0 0c6.8329773 0 13.386093 2.7144165 18.217743 7.546051c4.83165 4.8316345 7.546036 11.384766 7.546036 18.217743l0 0c0 14.228943 -11.534836 25.763763 -25.763779 25.763763l0 0c-14.228943 0 -25.763779 -11.534821 -25.763779 -25.763763z" fill-rule="nonzero"></path><path fill="#cccccc" d="m350.15222 458.39633l0 0c0 -14.228943 11.534851 -25.763794 25.763794 -25.763794l0 0c6.8329773 0 13.386078 2.714386 18.217743 7.546051c4.8316345 4.8316345 7.5460205 11.384766 7.5460205 18.217743l0 0c0 14.228943 -11.534821 25.763763 -25.763763 25.763763l0 0c-14.228943 0 -25.763794 -11.534821 -25.763794 -25.763763z" fill-rule="nonzero"></path><path stroke="#666666" stroke-width="2.0" stroke-linejoin="round" stroke-linecap="butt" d="m350.15222 458.39633l0 0c0 -14.228943 11.534851 -25.763794 25.763794 -25.763794l0 0c6.8329773 0 13.386078 2.714386 18.217743 7.546051c4.8316345 4.8316345 7.5460205 11.384766 7.5460205 18.217743l0 0c0 14.228943 -11.534821 25.763763 -25.763763 25.763763l0 0c-14.228943 0 -25.763794 -11.534821 -25.763794 -25.763763z" fill-rule="nonzero"></path><path fill="#cccccc" d="m350.15222 253.40683l0 0c0 -14.228943 11.534851 -25.763779 25.763794 -25.763779l0 0c6.8329773 0 13.386078 2.714386 18.217743 7.546036c4.8316345 4.8316345 7.5460205 11.384766 7.5460205 18.217743l0 0c0 14.228943 -11.534821 25.763763 -25.763763 25.763763l0 0c-14.228943 0 -25.763794 -11.534821 -25.763794 -25.763763z" fill-rule="nonzero"></path><path stroke="#666666" stroke-width="2.0" stroke-linejoin="round" stroke-linecap="butt" d="m350.15222 253.40683l0 0c0 -14.228943 11.534851 -25.763779 25.763794 -25.763779l0 0c6.8329773 0 13.386078 2.714386 18.217743 7.546036c4.8316345 4.8316345 7.5460205 11.384766 7.5460205 18.217743l0 0c0 14.228943 -11.534821 25.763763 -25.763763 25.763763l0 0c-14.228943 0 -25.763794 -11.534821 -25.763794 -25.763763z" fill-rule="nonzero"></path><path fill="#cccccc" d="m240.04462 126.32021l0 0c0 -14.228943 11.534836 -25.763786 25.763794 -25.763786l0 0c6.8329773 0 13.386078 2.7143936 18.217743 7.5460434c4.8316345 4.831642 7.5460205 11.384758 7.5460205 18.217743l0 0c0 14.228935 -11.534821 25.763771 -25.763763 25.763771l0 0c-14.228958 0 -25.763794 -11.534836 -25.763794 -25.763771z" fill-rule="nonzero"></path><path stroke="#666666" stroke-width="2.0" stroke-linejoin="round" stroke-linecap="butt" d="m240.04462 126.32021l0 0c0 -14.228943 11.534836 -25.763786 25.763794 -25.763786l0 0c6.8329773 0 13.386078 2.7143936 18.217743 7.5460434c4.8316345 4.831642 7.5460205 11.384758 7.5460205 18.217743l0 0c0 14.228935 -11.534821 25.763771 -25.763763 25.763771l0 0c-14.228958 0 -25.763794 -11.534836 -25.763794 -25.763771z" fill-rule="nonzero"></path><path fill="#000000" fill-opacity="0.0" d="m284.02615 144.53795l73.67212 90.65114" fill-rule="nonzero"></path><path stroke="#666666" stroke-width="2.0" stroke-linejoin="round" stroke-linecap="butt" d="m284.02615 144.53795l66.10388 81.33867" fill-rule="evenodd"></path><path fill="#666666" stroke="#666666" stroke-width="2.0" stroke-linecap="butt" d="m347.56644 227.96007l8.287842 4.960022l-3.160614 -9.126923z" fill-rule="evenodd"></path><path fill="#000000" fill-opacity="0.0" d="m291.57217 126.32021l230.52365 43.98162" fill-rule="nonzero"></path><path stroke="#666666" stroke-width="2.0" stroke-linejoin="round" stroke-linecap="butt" d="m291.57217 126.32021l218.73624 41.732704" fill-rule="evenodd"></path><path fill="#666666" stroke="#666666" stroke-width="2.0" stroke-linecap="butt" d="m509.68933 171.29785l9.534485 -1.5439606l-8.296295 -4.9459076z" fill-rule="evenodd"></path><path fill="#000000" fill-opacity="0.0" d="m394.13376 440.1786l256.4149 -140.44116" fill-rule="nonzero"></path><path stroke="#666666" stroke-width="2.0" stroke-linejoin="round" stroke-linecap="butt" d="m394.13373 440.1786l245.8902 -134.67664" fill-rule="evenodd"></path><path fill="#666666" stroke="#666666" stroke-width="2.0" stroke-linecap="butt" d="m641.61084 308.3993l6.373474 -7.257324l-9.547302 1.4626465z" fill-rule="evenodd"></path><path fill="#000000" fill-opacity="0.0" d="m566.07733 188.51958l84.47131 74.782364" fill-rule="nonzero"></path><path stroke="#666666" stroke-width="2.0" stroke-linejoin="round" stroke-linecap="butt" d="m575.0622 196.47392l66.50159 58.873688" fill-rule="evenodd"></path><path fill="#666666" stroke="#666666" stroke-width="2.0" stroke-linecap="butt" d="m577.25195 194.00046l-8.985474 -3.542801l4.606018 8.4897z" fill-rule="evenodd"></path><path fill="#666666" stroke="#666666" stroke-width="2.0" stroke-linecap="butt" d="m639.374 257.82104l8.985474 3.5428162l-4.606018 -8.4897z" fill-rule="evenodd"></path><path fill="#cccccc" d="m661.7507 69.49869l0 0c0 -14.228943 11.534851 -25.763779 25.763794 -25.763779l0 0c6.832947 0 13.386047 2.7143898 18.217712 7.546036c4.831665 4.831646 7.5460205 11.384762 7.5460205 18.217743l0 0c0 14.228943 -11.53479 25.763779 -25.763733 25.763779l0 0c-14.228943 0 -25.763794 -11.534836 -25.763794 -25.763779z" fill-rule="nonzero"></path><path stroke="#666666" stroke-width="2.0" stroke-linejoin="round" stroke-linecap="butt" d="m661.7507 69.49869l0 0c0 -14.228943 11.534851 -25.763779 25.763794 -25.763779l0 0c6.832947 0 13.386047 2.7143898 18.217712 7.546036c4.831665 4.831646 7.5460205 11.384762 7.5460205 18.217743l0 0c0 14.228943 -11.53479 25.763779 -25.763733 25.763779l0 0c-14.228943 0 -25.763794 -11.534836 -25.763794 -25.763779z" fill-rule="nonzero"></path><path fill="#000000" fill-opacity="0.0" d="m566.07733 152.08409l103.21936 -64.36766" fill-rule="nonzero"></path><path stroke="#666666" stroke-width="2.0" stroke-linejoin="round" stroke-linecap="butt" d="m576.2597 145.73436l82.854614 -51.66819" fill-rule="evenodd"></path><path fill="#666666" stroke="#666666" stroke-width="2.0" stroke-linecap="butt" d="m574.51166 142.93126l-5.95343 7.605713l9.449463 -1.999527z" fill-rule="evenodd"></path><path fill="#666666" stroke="#666666" stroke-width="2.0" stroke-linecap="butt" d="m660.86237 96.86926l5.95343 -7.605713l-9.449463 1.999527z" fill-rule="evenodd"></path><path fill="#000000" fill-opacity="0.0" d="m230.16 351.74026l127.53827 -80.11569" fill-rule="nonzero"></path><path stroke="#666666" stroke-width="2.0" stroke-linejoin="round" stroke-linecap="butt" d="m230.16 351.7403l117.37683 -73.732574" fill-rule="evenodd"></path><path fill="#666666" stroke="#666666" stroke-width="2.0" stroke-linecap="butt" d="m349.294 280.80505l5.9284363 -7.625244l-9.442841 2.030548z" fill-rule="evenodd"></path><path fill="#000000" fill-opacity="0.0" d="m375.91602 432.63254l0 -153.46194" fill-rule="nonzero"></path><path stroke="#666666" stroke-width="2.0" stroke-linejoin="round" stroke-linecap="butt" d="m375.91602 420.63254l0 -141.46194" fill-rule="evenodd"></path><path fill="#666666" stroke="#666666" stroke-width="2.0" stroke-linecap="butt" d="m372.61255 420.63254l3.3034668 9.076202l3.3034668 -9.076202z" fill-rule="evenodd"></path><path fill="#000000" fill-opacity="0.0" d="m357.08603 100.555855l108.566925 20.88189l-9.070862 47.149612l-108.566925 -20.881897z" fill-rule="nonzero"></path><path fill="#000000" d="m372.70938 126.12133l1.6789551 0.78435516q-0.9715576 2.0725555 -2.635254 2.9459076q-1.6607666 0.85801697 -3.7474976 0.45664978q-2.1634827 -0.41612244 -3.3454895 -1.5504303q-1.1790161 -1.1496353 -1.56604 -2.942505q-0.38406372 -1.8082123 -0.015075684 -3.7261658q0.40145874 -2.086731 1.4821472 -3.4859238q1.0960083 -1.3962479 2.7225037 -1.9107971q1.6294556 -0.52989197 3.393982 -0.19049835q2.0100403 0.38661194 3.1778564 1.6772919q1.1707764 1.2753372 1.3535767 3.2198715l-1.8135681 0.08078766q-0.1798706 -1.5461807 -0.9428711 -2.3771286q-0.7600708 -0.8462906 -2.0949707 -1.1030502q-1.5343628 -0.29512787 -2.719452 0.24068451q-1.1697083 0.53876495 -1.8414001 1.7143021q-0.65338135 1.1631546 -0.90722656 2.4827042q-0.32766724 1.7031479 -0.08166504 3.071106q0.26428223 1.3555679 1.1866455 2.185341q0.9376831 0.8327179 2.1498413 1.0658722q1.4883423 0.28627014 2.678711 -0.3598938q1.1933594 -0.6615143 1.8862915 -2.2784805zm2.9029236 0.3992386q0.51660156 -2.6851425 2.2711792 -3.7001266q1.4494934 -0.8350067 3.2447205 -0.48970795q1.9946594 0.38365936 2.998993 1.9452133q1.0226135 1.5491638 0.579834 3.8507004q-0.36010742 1.871933 -1.1344604 2.836792q-0.756073 0.9524536 -1.9452515 1.3442688q-1.1708984 0.37942505 -2.4444275 0.13447571q-2.02536 -0.38955688 -3.0326538 -1.9357758q-1.0072632 -1.5462036 -0.53793335 -3.9858398zm1.6878357 0.32463074q-0.35717773 1.8565826 0.27893066 2.933609q0.6361084 1.0770416 1.8635864 1.3131409q1.2275085 0.23609924 2.2024841 -0.53105164q0.99328613 -0.7795563 1.359314 -2.6821594q0.34539795 -1.7952042 -0.29071045 -2.8722382q-0.6361084 -1.077034 -1.8482666 -1.3101807q-1.2275085 -0.23609924 -2.2178345 0.52809906q-0.9903259 0.76420593 -1.3475037 2.620781zm8.185028 6.5864105l1.8626404 -9.681824l1.4730225 0.28331757l-0.26568604 1.380928q1.381073 -1.3891525 3.3910828 -1.0025406q0.8746033 0.16822052 1.5491028 0.63209534q0.67749023 0.4485321 0.9300232 1.0380936q0.2708435 0.5771713 0.29144287 1.297142q0.0035095215 0.4780197 -0.2149353 1.6134415l-1.1453247 5.9533386l-1.6417847 -0.31578064l1.1335144 -5.8919525q0.19186401 -0.997345 0.08685303 -1.5267029q-0.08670044 -0.5417557 -0.52160645 -0.92772675q-0.43493652 -0.38597107 -1.094696 -0.5128708q-1.043396 -0.2006836 -1.9375 0.31153107q-0.8787842 0.51516724 -1.2388916 2.3870926l-1.0154724 5.2781982l-1.6417847 -0.31578064zm14.062805 1.1773682l-0.05029297 1.5019073q-0.717041 0.005279541 -1.2694092 -0.10095215q-0.8899231 -0.1711731 -1.3277893 -0.5418091q-0.43493652 -0.3859558 -0.5487976 -0.8692932q-0.11090088 -0.4986725 0.17541504 -1.9870148l1.0686035 -5.55439l-1.2121582 -0.23314667l0.24795532 -1.2888641l1.2121582 0.23314667l0.46047974 -2.393608l1.8153687 -0.66915894l-0.64941406 3.3756027l1.657135 0.31873322l-0.24795532 1.2888641l-1.657135 -0.31873322l-1.0863037 5.6464615q-0.1357727 0.7057953 -0.09744263 0.9200287q0.05368042 0.21716309 0.22955322 0.37828064q0.17584229 0.16111755 0.5440979 0.23194885q0.26083374 0.0501709 0.7359314 0.06199646zm1.2008362 1.7584534l1.8626404 -9.681824l1.472992 0.28331757l-0.28338623 1.4729843q0.7655029 -0.91882324 1.3031311 -1.1495514q0.5406189 -0.24607086 1.1236877 -0.13392639q0.82855225 0.15937042 1.5844727 0.8616638l-0.85995483 1.4098206q-0.5305176 -0.46800232 -1.1442566 -0.5860443q-0.5370178 -0.103302 -1.028656 0.1362915q-0.47625732 0.2425232 -0.7695923 0.77482605q-0.444458 0.82147217 -0.6451721 1.8648376l-0.9741211 5.063385l-1.6417847 -0.31578064zm6.4322815 -3.774887q0.51657104 -2.685135 2.2711792 -3.7001343q1.4494629 -0.83499146 3.24469 -0.48970032q1.99469 0.38365173 2.9990234 1.9452057q1.0226135 1.5491638 0.579834 3.850708q-0.36013794 1.871933 -1.134491 2.836792q-0.7560425 0.9524536 -1.945221 1.3442688q-1.1708984 0.37942505 -2.4444275 0.13447571q-2.0253906 -0.38955688 -3.0326538 -1.9357758q-1.0072937 -1.5462036 -0.53793335 -3.9858398zm1.6878052 0.32463074q-0.35717773 1.8565826 0.27893066 2.933609q0.6361084 1.0770416 1.863617 1.3131409q1.2275085 0.23609924 2.2024841 -0.53105164q0.99328613 -0.7795563 1.359314 -2.6821594q0.34536743 -1.7952118 -0.29074097 -2.8722382q-0.6361084 -1.0770416 -1.8482666 -1.3101807q-1.227478 -0.23609924 -2.2178345 0.52809143q-0.9903259 0.76420593 -1.3475037 2.6207886zm8.154358 6.5805054l2.5681458 -13.348953l1.6417847 0.31578064l-2.5681458 13.3489685l-1.6417847 -0.3157959zm3.9960938 -2.2227325l1.6766052 0.052001953q-0.050811768 1.0085449 0.46255493 1.6482849q0.53170776 0.6273346 1.6517944 0.84277344q1.135437 0.21839905 1.7610168 -0.1386261q0.6409302 -0.35406494 0.7590027 -0.96780396q0.10626221 -0.55236816 -0.30740356 -0.9660797q-0.29623413 -0.27973938 -1.5661926 -0.87405396q-1.7220154 -0.808548 -2.3658142 -1.2665253q-0.6255493 -0.47036743 -0.8816223 -1.1242523q-0.23779297 -0.6662903 -0.101989746 -1.3720856q0.1239624 -0.6444397 0.52178955 -1.1407318q0.41311646 -0.49334717 0.9903259 -0.76420593q0.43670654 -0.20240784 1.1348877 -0.27496338q0.69815063 -0.0725708 1.4499817 0.07203674q1.1507874 0.221344 1.9450989 0.7241821q0.7972717 0.4874878 1.0869751 1.1319275q0.30801392 0.63204956 0.2814026 1.5975342l-1.637085 -0.09211731q0.03427124 -0.7571564 -0.4230652 -1.2747345q-0.43902588 -0.529953 -1.3903198 -0.7129364q-1.1354675 -0.21839905 -1.684906 0.07371521q-0.5465088 0.27674866 -0.6409607 0.767746q-0.0619812 0.32221985 0.08731079 0.62142944q0.14926147 0.2992096 0.54641724 0.55062866q0.2277832 0.13926697 1.3596802 0.70703125q1.6452637 0.7937927 2.279663 1.2181396q0.6343689 0.42433167 0.90875244 1.0658264q0.2897339 0.6444397 0.12738037 1.4883423q-0.15646362 0.81321716 -0.7738037 1.4582214q-0.6144104 0.62965393 -1.5964355 0.8544769q-0.97906494 0.2094574 -2.114502 -0.008926392q-1.8872986 -0.3630066 -2.7341003 -1.3373566q-0.8314514 -0.971405 -0.81243896 -2.558899z" fill-rule="nonzero"></path><path fill="#000000" fill-opacity="0.0" d="m555.7961 116.28778l74.614136 -47.37008l25.7323 40.53543l-74.6142 47.37008z" fill-rule="nonzero"></path><path fill="#000000" d="m579.04846 133.4125l-7.2854614 -11.476593l1.5565796 -0.98820496l11.747864 5.182579l-5.7195435 -9.009781l1.4510498 -0.92121124l7.2854614 11.476593l-1.5565796 0.98820496l-11.756226 -5.1957703l5.7279053 9.02298l-1.4510498 0.9212036zm15.201477 -13.408012l1.5682373 -0.7365265q0.4609375 1.4841232 -0.0234375 2.7910614q-0.47955322 1.2853699 -1.930542 2.206581q-1.8203735 1.155693 -3.600647 0.7127609q-1.7802734 -0.4429245 -3.0698853 -2.4744186q-1.3314819 -2.0974426 -0.99993896 -3.9366379q0.34472656 -1.8475723 2.072815 -2.9446487q1.6752319 -1.0635757 3.4507446 -0.5990753q1.7754517 0.4644928 3.090149 2.5355606q0.07537842 0.11872101 0.22131348 0.37773132l-6.199829 3.9360733q0.9500122 1.3216705 2.1097412 1.6033478q1.159668 0.28167725 2.2017822 -0.37992096q0.7650757 -0.4857254 1.0546875 -1.2248306q0.2944336 -0.7606735 0.05480957 -1.8670578zm-6.0787964 0.6573639l4.6432495 -2.9478683q-0.75390625 -0.98350525 -1.5241699 -1.2348022q-1.1918945 -0.39076233 -2.2736206 0.29595184q-0.96295166 0.611351 -1.21698 1.6980286q-0.24920654 1.0651169 0.371521 2.1886902zm15.621277 -4.402069q-0.36444092 1.1752396 -0.9140625 1.9128647q-0.55804443 0.7244339 -1.3890991 1.252037q-1.3586426 0.862587 -2.5160522 0.67198944q-1.1658325 -0.20378113 -1.8273926 -1.2459106q-0.3935547 -0.62000275 -0.43475342 -1.297142q-0.04119873 -0.6771469 0.21472168 -1.2652893q0.25585938 -0.5881424 0.7225952 -1.1065445q0.34674072 -0.38671112 1.1192017 -1.0066528q1.5808105 -1.2997665 2.2096558 -2.0876389q-0.18426514 -0.29021454 -0.23449707 -0.36936188q-0.5443115 -0.85744476 -1.1661377 -0.96237946q-0.84228516 -0.13153076 -1.9107666 0.54681396q-0.9893799 0.6280899 -1.246521 1.2725601q-0.2571411 0.6444626 0.088012695 1.6838531l-1.5106812 0.68146515q-0.36315918 -1.0094528 -0.2843628 -1.8182907q0.091918945 -0.81721497 0.71240234 -1.6182785q0.62524414 -0.82263184 1.7069092 -1.509346q1.0684814 -0.6783447 1.887146 -0.8464432q0.81866455 -0.16809082 1.3781128 0.013473511q0.5593872 0.18156433 1.0465698 0.686615q0.30523682 0.30592346 0.8998413 1.2425156l1.1974487 1.886383q1.2477417 1.9655304 1.6618652 2.4429474q0.4189453 0.45584106 0.9974365 0.75486755l-1.477417 0.93795776q-0.50061035 -0.29294586 -0.9301758 -0.8530655zm-2.1117554 -3.0642014q-0.57250977 0.78913116 -1.9735107 1.9932175q-0.79522705 0.67144775 -1.0509033 1.0558624q-0.25567627 0.38440704 -0.2609253 0.8134308q-0.0053100586 0.42902374 0.22918701 0.7983856q0.36010742 0.56723785 1.0250244 0.68180084q0.6697998 0.09300232 1.4876709 -0.42622375q0.81781006 -0.5192261 1.2249146 -1.2773819q0.39868164 -0.7713394 0.31689453 -1.5707703q-0.08557129 -0.6304474 -0.67181396 -1.5538559l-0.3265381 -0.51446533zm6.076477 1.9907227l-5.2840576 -8.32383l1.2663574 -0.8039627l0.8039551 1.2663803q-0.07299805 -1.1936874 0.16003418 -1.7303238q0.22473145 -0.5498276 0.72595215 -0.8680649q0.7123413 -0.45222473 1.7441406 -0.45950317l0.34094238 1.6158218q-0.70703125 0.023200989 -1.2346802 0.3581848q-0.46166992 0.2931137 -0.6552124 0.80462646q-0.18029785 0.5031357 -0.028747559 1.091713q0.23986816 0.90265656 0.8093262 1.7996826l2.7634277 4.3531876l-1.411438 0.89608765zm6.564087 -4.167305l-1.3059082 0.8290863l-7.2854614 -11.476593l1.3982544 -0.8877106l2.5959473 4.0893555q0.1852417 -1.6907501 1.5702515 -2.5700836q0.7651367 -0.4857254 1.6520386 -0.60461426q0.87854004 -0.13207245 1.6739502 0.15879822q0.8001709 0.26930237 1.5532837 0.90167236q0.75305176 0.6323776 1.3225098 1.529396q1.3565674 2.137024 1.0465698 3.9810333q-0.31835938 1.8308182 -1.7957764 2.768776q-1.477417 0.93795776 -3.0872192 0.23875427l0.66156006 1.0421295zm-2.6929321 -4.212906q0.94628906 1.4906387 1.769104 1.9121628q1.359436 0.65460205 2.4938965 -0.06562042q0.92333984 -0.5862198 1.0936279 -1.8048172q0.16192627 -1.2317886 -0.85131836 -2.8279572q-1.0300293 -1.622551 -2.1704102 -1.9904938q-1.1404419 -0.3679428 -2.0506592 0.20990753q-0.9234009 0.5862274 -1.0853271 1.8180084q-0.16192627 1.2317886 0.8010864 2.7488098zm12.1154785 2.7282639l-0.98254395 -1.2270279q0.5371094 -0.1743927 0.8800659 -0.392128q0.46166992 -0.2931137 0.6381836 -0.6272812q0.1897583 -0.34253693 0.19854736 -0.73680115q-0.0020751953 -0.29481506 -0.24780273 -1.3233109q-0.0357666 -0.1438446 -0.08581543 -0.4267273l-8.445129 -6.3354797l1.5170288 -0.96308136l4.7929077 3.7310028q0.9208374 0.69247437 1.8294067 1.5407257q-0.38220215 -1.126915 -0.62542725 -2.2680588l-1.3140259 -5.9766617l1.411438 -0.89608765l2.210266 10.478844q0.3696289 1.690155 0.40600586 2.3888626q0.074523926 0.9336395 -0.21258545 1.5600967q-0.27874756 0.63964844 -0.95147705 1.0667496q-0.40893555 0.25961304 -1.019043 0.40636444z" fill-rule="nonzero"></path><path fill="#000000" fill-opacity="0.0" d="m603.0733 168.58784l61.88977 57.51181l-32.661377 35.149612l-61.88977 -57.51181z" fill-rule="nonzero"></path><path fill="#000000" d="m592.4061 195.42403l9.253357 -9.958237l1.3505859 1.2550964l-2.0335693 12.678558l7.2644043 -7.8177795l1.2590332 1.1699982l-9.253296 9.958221l-1.350647 -1.2550812l2.0442505 -12.690018l-7.2750244 7.829239l-1.2590942 -1.1699982zm16.824463 11.304367l1.1101685 1.3302307q-1.3186646 0.82229614 -2.7056885 0.68522644q-1.3649292 -0.13789368 -2.6239624 -1.3078918q-1.5795288 -1.467804 -1.6026001 -3.3022766q-0.023071289 -1.8344727 1.6148682 -3.5971832q1.6911621 -1.8199615 3.5541992 -1.965683q1.8745728 -0.13510132 3.3739624 1.258255q1.4536743 1.3508148 1.4546509 3.1860962q9.765625E-4 1.8352661 -1.6688843 3.6323395q-0.095703125 0.103012085 -0.30926514 0.30984497l-5.3795776 -4.999054q-1.0374756 1.2542267 -1.0158081 2.4474945q0.02166748 1.1932678 0.9259033 2.0335388q0.66381836 0.6168976 1.4522095 0.70961q0.8104248 0.09188843 1.8198242 -0.4205475zm-2.1774902 -5.7135468l4.0289917 3.7439728q0.7600708 -0.97869873 0.8078003 -1.7875519q0.075683594 -1.252121 -0.862854 -2.124298q-0.8355713 -0.7764435 -1.9511108 -0.74658203q-1.0934448 0.029052734 -2.0228271 0.9144592zm8.219727 13.994583q-1.229187 -0.05441284 -2.0820923 -0.39904785q-0.8422241 -0.35606384 -1.5633545 -1.0261536q-1.178894 -1.0955353 -1.2880859 -2.2634888q-0.09851074 -1.1793823 0.7416992 -2.0836334q0.49987793 -0.5379791 1.1444092 -0.74957275q0.64453125 -0.21159363 1.2783203 -0.113220215q0.63378906 0.098358154 1.2536011 0.41836548q0.46203613 0.23735046 1.2575684 0.8273163q1.6581421 1.1995697 2.579712 1.608017q0.23400879 -0.2518158 0.29779053 -0.3204956q0.6913452 -0.7440033 0.63513184 -1.3721466q-0.086364746 -0.84814453 -1.0134888 -1.7096863q-0.8584595 -0.7977295 -1.5470581 -0.8830261q-0.68859863 -0.08531189 -1.6063843 0.5122223l-1.0422974 -1.2884979q0.88427734 -0.60736084 1.6866455 -0.7362976q0.81378174 -0.11830139 1.7459717 0.27870178q0.95428467 0.3961792 1.8928223 1.2683563q0.927124 0.86154175 1.2973633 1.6108398q0.37023926 0.7492981 0.33648682 1.3365021q-0.03375244 0.58721924 -0.39874268 1.1865692q-0.21850586 0.37287903 -0.9736328 1.1855621l-1.520935 1.6368103q-1.5847778 1.7054901 -1.9415283 2.2271576q-0.3347168 0.52085876 -0.4772339 1.1562805l-1.2819214 -1.1912689q0.15637207 -0.5585327 0.5892334 -1.1161652zm2.4283447 -2.819931q-0.9085083 -0.3536377 -2.4284668 -1.4035034q-0.8511963 -0.59898376 -1.2878418 -0.7488098q-0.4366455 -0.14982605 -0.8529663 -0.0460968q-0.4163208 0.10371399 -0.71417236 0.4242096q-0.45733643 0.4921875 -0.3994751 1.1644897q0.07989502 0.67149353 0.7895508 1.3309479q0.70965576 0.65945435 1.5462036 0.86094666q0.847229 0.19004822 1.5997314 -0.09185791q0.58813477 -0.24269104 1.3326416 -1.04393l0.41479492 -0.44639587zm-0.38452148 6.3829346l6.7113037 -7.22258l1.0988159 1.0210876l-1.0210571 1.0988312q1.1361084 -0.37335205 1.7142944 -0.28399658q0.5888672 0.07791138 1.0238037 0.48208618q0.618042 0.5743561 0.8867798 1.5706177l-1.4764404 0.739624q-0.20178223 -0.67807007 -0.65960693 -1.1035309q-0.40063477 -0.37226868 -0.944458 -0.42970276q-0.53240967 -0.046813965 -1.0632935 0.24905396q-0.81225586 0.46098328 -1.5355225 1.2393341l-3.5098877 3.7772675l-1.2247314 -1.138092zm5.6956787 5.29274l-1.1331787 -1.0529938l9.253296 -9.958237l1.2133179 1.1274567l-3.2971802 3.5483246q1.682373 -0.24964905 2.8842163 0.867157q0.6638794 0.6168976 1.0037842 1.4447021q0.35058594 0.8163452 0.27093506 1.6595306q-0.057556152 0.8423767 -0.47821045 1.731247q-0.42071533 0.888855 -1.1439819 1.6672058q-1.7230225 1.8542938 -3.585266 2.02211q-1.8516846 0.15635681 -3.133606 -1.0348969q-1.2819214 -1.1912689 -1.013916 -2.9258575l-0.84020996 0.9042511zm3.3920288 -3.6734314q-1.2018433 1.2934265 -1.4008789 2.1962738q-0.28845215 1.4810333 0.69592285 2.3957672q0.8012085 0.74453735 2.0231323 0.60020447q1.232544 -0.15576172 2.5194702 -1.5407562q1.3082275 -1.407898 1.374939 -2.6044006q0.06665039 -1.1965027 -0.72314453 -1.9304047q-0.8012085 -0.74453735 -2.0337524 -0.58877563q-1.232544 0.15577698 -2.4556885 1.4720917zm0.4336548 12.411682l0.9376831 -1.2616272q0.30493164 0.47529602 0.602478 0.75183105q0.40063477 0.37226868 0.7686157 0.45828247q0.37945557 0.09663391 0.7630615 0.0051727295q0.28460693 -0.07676697 1.2171631 -0.57533264q0.13006592 -0.07110596 0.3909912 -0.1912384l3.9863281 -9.776108l1.3162842 1.223175l-2.3933105 5.5826874q-0.4362793 1.06633 -1.0263672 2.1604156q0.993103 -0.65556335 2.0352173 -1.1802673l5.447815 -2.7869415l1.2246704 1.1380768l-9.575317 4.7957764q-1.5410767 0.7862396 -2.2077026 0.99864197q-0.8841553 0.3088379 -1.5629272 0.19000244q-0.6893921 -0.10739136 -1.2731323 -0.6498413q-0.3548584 -0.32972717 -0.6515503 -0.8827057z" fill-rule="nonzero"></path><path fill="#000000" fill-opacity="0.0" d="m219.65218 320.93234l118.99211 -76.976364l26.078735 40.314957l-118.99211 76.97638z" fill-rule="nonzero"></path><path fill="#000000" d="m240.17554 334.50684l1.3404999 -1.034668q0.6565857 0.7848816 1.3803558 1.0982666q0.72377014 0.313385 1.7184601 0.15374756q1.0078125 -0.16809082 1.9786224 -0.79611206q0.86587524 -0.56015015 1.3520966 -1.2468872q0.49935913 -0.69522095 0.53878784 -1.3534241q0.03944397 -0.65823364 -0.3000183 -1.1830139q-0.34796143 -0.53790283 -0.91741943 -0.7278137q-0.5779419 -0.20300293 -1.4777222 -0.01171875q-0.5779877 0.113342285 -2.3899078 0.7644348q-1.8204193 0.63797 -2.6707916 0.70422363q-1.0934601 0.09326172 -1.9075012 -0.27337646q-0.80093384 -0.37512207 -1.3101349 -1.1622925q-0.5601196 -0.86587524 -0.55844116 -1.9277039q0.00630188 -1.083435 0.69166565 -2.0664673q0.6899872 -1.0046082 1.8444672 -1.7514648q1.2725677 -0.82321167 2.5064697 -1.0445557q1.2339172 -0.22131348 2.2632446 0.24798584q1.0339661 0.44766235 1.7267914 1.4324036l-1.3752289 1.0385132q-0.81396484 -0.99942017 -1.8526001 -1.1091003q-1.0340118 -0.13131714 -2.345932 0.7173767q-1.3643951 0.8826294 -1.663147 1.8016663q-0.30722046 0.9058838 0.15104675 1.6143494q0.39888 0.61660767 1.0995331 0.72164917q0.6875305 0.11349487 2.7957916 -0.6548462q2.1213684 -0.77682495 3.007248 -0.9032593q1.2940979 -0.18582153 2.2246704 0.21707153q0.9351959 0.38131714 1.5292511 1.2996826q0.59407043 0.9183655 0.59547424 2.071228q-0.007095337 1.1397705 -0.70248413 2.2223206q-0.6822815 1.0740967 -1.9023743 1.8633728q-1.5480652 1.0014648 -2.886139 1.2343445q-1.3465729 0.2197876 -2.5356293 -0.29507446q-1.1759491 -0.5233154 -1.9490051 -1.6608582zm18.570465 -6.802643l-0.7892456 -1.2201233q-0.0496521 2.0233154 -1.7157898 3.1011658q-0.7215576 0.46676636 -1.5426178 0.6071167q-0.8164215 0.1187439 -1.4028625 -0.09738159q-0.5733032 -0.2246399 -1.103363 -0.7563782q-0.35029602 -0.36889648 -0.9273834 -1.2610168l-3.3182526 -5.129669l1.4037476 -0.9081116l2.9703064 4.591797q0.71287537 1.1020203 1.0377045 1.4315491q0.48762512 0.466156 1.1242371 0.50094604q0.63661194 0.034820557 1.2663422 -0.3725586q0.62971497 -0.40737915 0.9770355 -1.0786743q0.3388672 -0.68444824 0.20544434 -1.3797302q-0.12878418 -0.7168884 -0.8161926 -1.7795715l-2.8684692 -4.4343567l1.4037628 -0.90808105l5.3550262 8.27832l-1.2594299 0.8147583zm3.293518 -2.1306152l-5.3550415 -8.27832l1.2594604 -0.8147278l0.75527954 1.1676025q-0.009918213 -0.8496094 0.3952942 -1.6328125q0.40985107 -0.80477905 1.2363586 -1.3394775q0.9183655 -0.5940552 1.7548218 -0.59552q0.8364868 -0.0014343262 1.5224304 0.5411377q0.041931152 -2.0927734 1.6162109 -3.111206q1.2332153 -0.79776 2.3304749 -0.5398865q1.1103821 0.24935913 2.026947 1.6662598l3.6746826 5.6806946l-1.4037476 0.90808105l-3.3691711 -5.208374q-0.54315186 -0.83966064 -0.9119568 -1.1221313q-0.37731934 -0.29559326 -0.888916 -0.28097534q-0.49850464 0.0061035156 -0.98391724 0.3201294q-0.8658447 0.5601196 -1.0697021 1.5108032q-0.2038269 0.9506836 0.62786865 2.2363586l3.106079 4.801697l-1.4037476 0.9081116l-3.4794922 -5.3789673q-0.6025696 -0.9314575 -1.2406921 -1.1699829q-0.64660645 -0.25164795 -1.4337769 0.25756836q-0.59036255 0.3819275 -0.8983154 1.027771q-0.30334473 0.62423706 -0.13598633 1.3720093q0.1673584 0.7477722 0.8971863 1.8760376l2.775116 4.290039l-1.4037476 0.90808105zm13.048523 -8.441132l-5.3550415 -8.27832l1.2594299 -0.8147278l0.75531006 1.1676025q-0.009918213 -0.8496094 0.3952942 -1.632782q0.40985107 -0.8048096 1.2363586 -1.3394775q0.9183655 -0.5940857 1.7548218 -0.59555054q0.8364868 -0.0014343262 1.5224304 0.5411377q0.041931152 -2.0927734 1.6162109 -3.111206q1.2332153 -0.79776 2.3304749 -0.5398865q1.1103821 0.24935913 2.026947 1.6662598l3.6746826 5.6806946l-1.4037476 0.9081116l-3.3691711 -5.2084045q-0.54315186 -0.8396301 -0.9119568 -1.1221313q-0.37731934 -0.29559326 -0.888916 -0.28097534q-0.49850464 0.0061035156 -0.98391724 0.3201294q-0.8658447 0.5601196 -1.0697021 1.5108032q-0.2038269 0.9506836 0.62786865 2.2363892l3.106079 4.8016663l-1.4037476 0.9081116l-3.4794922 -5.378937q-0.6025696 -0.93148804 -1.2406921 -1.1700134q-0.64660645 -0.25164795 -1.4337769 0.25756836q-0.59036255 0.3819275 -0.89834595 1.027771q-0.3033142 0.62423706 -0.13595581 1.3720093q0.1673584 0.7477722 0.8971863 1.8760376l2.775116 4.290039l-1.4037476 0.90808105zm17.791687 -12.960999q-0.3543396 1.1782837 -0.89767456 1.9205627q-0.55181885 0.729187 -1.3783264 1.263855q-1.3512878 0.8741455 -2.5102844 0.6934204q-1.167511 -0.19381714 -1.8379517 -1.2302551q-0.39886475 -0.61660767 -0.44586182 -1.2933655q-0.046966553 -0.6767578 0.20388794 -1.2670593q0.2508545 -0.5903015 0.71313477 -1.1126709q0.34344482 -0.38964844 1.1105347 -1.0161438q1.5697327 -1.3132019 2.1917725 -2.1064148q-0.18670654 -0.28863525 -0.23760986 -0.3673401q-0.55163574 -0.8527527 -1.1743469 -0.9523926q-0.8434143 -0.12432861 -1.9060669 0.56311035q-0.98394775 0.6365051 -1.2355957 1.2831421q-0.25161743 0.64663696 0.10244751 1.6830139l-1.5048218 0.69433594q-0.37182617 -1.0062866 -0.29995728 -1.8157654q0.084991455 -0.81796265 0.69854736 -1.6242981q0.6181946 -0.8279114 1.6939697 -1.5238342q1.0626526 -0.68743896 1.8798828 -0.8625183q0.8171997 -0.17507935 1.3781738 0.0017089844q0.5609741 0.17675781 1.0524597 0.6776428q0.3078308 0.3032837 0.9104004 1.2347717l1.2135925 1.8760681q1.2644958 1.9548035 1.6826782 2.42865q0.42279053 0.45224 1.0038147 0.7463074l-1.4693298 0.950531q-0.5031128 -0.28866577 -0.9374695 -0.84506226zm-2.1378784 -3.046051q-0.56573486 0.79397583 -1.9564209 2.0099792q-0.78948975 0.67822266 -1.0418701 1.0647888q-0.25234985 0.38656616 -0.2539673 0.8156128q-0.0015869141 0.42904663 0.23602295 0.79641724q0.3649292 0.56411743 1.0308533 0.67300415q0.67056274 0.08728027 1.4839478 -0.4389038q0.8134155 -0.5261841 1.2139893 -1.2877808q0.39208984 -0.77471924 0.3034668 -1.5733948q-0.09100342 -0.6296997 -0.6850586 -1.5480652l-0.33096313 -0.5116577zm6.0933533 1.9387512l-5.3550415 -8.27832l1.2594299 -0.8147583l0.8147278 1.2594604q-0.08319092 -1.1929932 0.14529419 -1.7315979q0.2199707 -0.5517273 0.71850586 -0.87420654q0.70843506 -0.458313 1.7401428 -0.47439575l0.35476685 1.612854q-0.70684814 0.02923584 -1.2315979 0.36871338q-0.45916748 0.2970276 -0.6483154 0.81018066q-0.17599487 0.5046387 -0.01940918 1.0918884q0.24758911 0.90057373 0.8246765 1.7926941l2.8005676 4.3294067l-1.4037476 0.90808105zm-1.1053772 -13.204742l-1.0353699 -1.6005554l1.4037476 -0.9081116l1.0353699 1.6005859l-1.4037476 0.90808105zm6.3479614 9.813293l-5.3550415 -8.27832l1.4037476 -0.9081116l5.3550415 8.278351l-1.4037476 0.90808105zm2.7323303 -1.7675476l-0.7383423 -1.1413879l1.3569641 -9.438141q-0.8666382 0.6164551 -1.5488281 1.0578003l-3.371643 2.1811218l-0.7383423 -1.1413879l6.7564087 -4.370758l0.60253906 0.93148804l-1.0921326 8.150269l-0.23321533 1.5093384q0.88900757 -0.66815186 1.7155151 -1.2028198l3.830841 -2.47818l0.7807617 1.2070007l-7.320526 4.7356567zm12.511566 -11.87146l1.5619202 -0.74990845q0.4736023 1.480133 4.272461E-4 2.7911377q-0.4685669 1.2894287 -1.9116821 2.2229614q-1.8104248 1.1712036 -3.594452 0.74349976q-1.7840271 -0.42773438 -3.0909424 -2.44812q-1.3493958 -2.085968 -1.0335388 -3.9279175q0.32894897 -1.8504333 2.047577 -2.9621887q1.6661377 -1.0778503 3.4455261 -0.62854004q1.7793579 0.44934082 3.1117554 2.5090637q0.0763855 0.11807251 0.22451782 0.3758545l-6.166046 3.9888q0.9613342 1.3135071 2.123413 1.5852661q1.1620789 0.27175903 2.1985168 -0.39871216q0.7608948 -0.49221802 1.0441895 -1.2337646q0.28793335 -0.7631531 0.03881836 -1.8674316zm-6.0730286 0.7092285l4.6179504 -2.9873657q-0.76226807 -0.9770508 -1.534668 -1.2217407q-1.1952515 -0.38058472 -2.2710266 0.31533813q-0.95770264 0.61953735 -1.2024536 1.7083435q-0.2401123 1.0671997 0.39019775 2.1854248zm8.68045 -2.1168518l1.2463684 -1.1226501q0.66122437 0.76327515 1.4745178 0.8698425q0.81796265 0.084991455 1.7756653 -0.5345459q0.9708252 -0.62802124 1.1753845 -1.3186646q0.2177124 -0.6990967 -0.12176514 -1.223877q-0.30551147 -0.47229004 -0.8904419 -0.4847107q-0.40740967 0.0030517578 -1.7355042 0.4527588q-1.8026733 0.60787964 -2.5843506 0.7227783q-0.7770691 0.09326172 -1.4144287 -0.2015686q-0.63272095 -0.3164673 -1.0231018 -0.9199524q-0.3564453 -0.5510254 -0.4126892 -1.1845703q-0.043151855 -0.6420288 0.18612671 -1.236969q0.17520142 -0.44830322 0.6289978 -0.98379517q0.4538269 -0.53549194 1.0966492 -0.951355q0.98394775 -0.6365051 1.9053345 -0.82315063q0.91290283 -0.19976807 1.5679932 0.06500244q0.659729 0.24316406 1.3086243 0.9585571l-1.2456055 1.0663147q-0.49917603 -0.5703125 -1.1875 -0.62750244q-0.6836853 -0.07879639 -1.4970703 0.4473877q-0.9708252 0.62802124 -1.1653442 1.2191162q-0.20303345 0.5779419 0.06854248 0.9977722q0.17822266 0.2755127 0.493042 0.3882141q0.31481934 0.112701416 0.7755127 0.019378662q0.26083374 -0.05706787 1.4708252 -0.43041992q1.7370911 -0.5654297 2.488678 -0.6980896q0.75161743 -0.1326294 1.3936157 0.140625q0.65509033 0.26474 1.1218567 0.9863281q0.44979858 0.6953125 0.45043945 1.5881348q-0.0078125 0.8796997 -0.56118774 1.7215271q-0.56185913 0.82870483 -1.5326843 1.4567566q-1.613678 1.0438843 -2.899231 0.9264221q-1.2724609 -0.12591553 -2.3572693 -1.2850952z" fill-rule="nonzero"></path><path fill="#000000" fill-opacity="0.0" d="m289.68185 144.5798l60.53543 72.62993l-36.881866 30.708664l-60.535446 -72.62993z" fill-rule="nonzero"></path><path fill="#000000" d="m285.57147 174.2509l0.8022461 1.6702423q-2.0652466 0.9875946 -3.906189 0.6091919q-1.8289185 -0.38841248 -3.1894531 -2.0207672q-1.410553 -1.6923676 -1.6064453 -3.3184662q-0.18389893 -1.6361084 0.6527405 -3.26799q0.84866333 -1.6418915 2.3496094 -2.8916168q1.6330261 -1.3597107 3.356018 -1.7573547q1.7329712 -0.38565063 3.317749 0.24671936q1.5967712 0.6223602 2.747223 2.002655q1.3105164 1.5723419 1.3963623 3.31044q0.097839355 1.7280884 -0.99295044 3.3479156l-1.4546509 -1.0863495q0.8406067 -1.3098755 0.7767029 -2.4359283q-0.051879883 -1.1360626 -0.9222107 -2.1802826q-1.0003967 -1.2002716 -2.257019 -1.5365448q-1.2466431 -0.3242798 -2.511383 0.1594696q-1.2427368 0.4857483 -2.2753906 1.3455658q-1.3328552 1.1097565 -2.0093384 2.3236694q-0.6545105 1.2159119 -0.46655273 2.4420013q0.19793701 1.2380829 0.98825073 2.1862946q0.97036743 1.1642456 2.301056 1.4185486q1.3427124 0.24429321 2.9036255 -0.56741333zm1.9934998 2.1477356q2.1013489 -1.7496185 4.1023865 -1.4231873q1.6508484 0.27236938 2.821289 1.6766663q1.3005066 1.5603485 1.0881958 3.4043732q-0.19033813 1.8460236 -1.9914856 3.3457031q-1.4649353 1.2197418 -2.6756287 1.4754944q-1.1886597 0.25775146 -2.3572388 -0.19252014q-1.1465454 -0.44825745 -1.9768677 -1.4444733q-1.3205261 -1.5843353 -1.1202087 -3.4183655q0.2003479 -1.8340302 2.109558 -3.4236908zm1.1004333 1.320282q-1.4529419 1.2097473 -1.6431885 2.445755q-0.19024658 1.2360077 0.6100769 2.1962128q0.80029297 0.9602051 2.0409546 0.98446655q1.2626953 0.026275635 2.751648 -1.2134552q1.4048767 -1.169754 1.5951233 -2.4057617q0.1902771 -1.2360077 -0.6000366 -2.184204q-0.8003235 -0.96022034 -2.0509949 -0.9964752q-1.2506409 -0.03627014 -2.7035828 1.1734619zm2.1603699 10.279419l7.5768433 -6.3086395l0.96035767 1.1522522l-1.0806885 0.8998108q1.9490662 -0.19960022 3.2595825 1.3727417q0.57022095 0.6841583 0.7982483 1.4702301q0.24005127 0.7760773 0.06185913 1.3920746q-0.15615845 0.61798096 -0.59646606 1.187912q-0.30020142 0.37194824 -1.1887512 1.1118011l-4.6589966 3.8791504l-1.070404 -1.2842712l4.6109314 -3.8391724q0.7805176 -0.64985657 1.0346985 -1.125824q0.2762146 -0.4739685 0.18423462 -1.0480042q-0.09197998 -0.57403564 -0.52215576 -1.0901489q-0.68026733 -0.81617737 -1.6967773 -0.9864044q-1.0065308 -0.15821838 -2.471466 1.0615082l-4.1306458 3.43927l-1.070404 -1.2842865zm10.136688 9.819092l-0.9906616 1.129837q-0.55825806 -0.45013428 -0.918396 -0.88223267q-0.5802002 -0.69615173 -0.6842041 -1.2601929q-0.09197998 -0.57403564 0.12619019 -1.0200043q0.23019409 -0.4559784 1.394928 -1.425766l4.3467712 -3.619217l-0.7903137 -0.94821167l1.0086365 -0.83981323l0.7903137 0.94821167l1.8731995 -1.5596619l1.8289185 0.6324005l-2.641693 2.1995392l1.0804138 1.2962799l-1.0086365 0.83981323l-1.0804138 -1.2962799l-4.4188232 3.6791992q-0.55236816 0.4598999 -0.65844727 0.6498871q-0.096069336 0.20199585 -0.062072754 0.43800354q0.033996582 0.23602295 0.27407837 0.52407837q0.17007446 0.20404053 0.5302124 0.51412964zm-0.18502808 2.1208344l7.5768127 -6.3086395l0.9603882 1.1522522l-1.1527405 0.9597931q1.1746521 -0.22576904 1.7369385 -0.06364441q0.5743103 0.15213013 0.95443726 0.6082306q0.54022217 0.6481476 0.6801758 1.6702118l-1.5588989 0.5456848q-0.113983154 -0.6980438 -0.51412964 -1.1781464q-0.3501587 -0.42008972 -0.8824158 -0.5462189q-0.52227783 -0.114105225 -1.0866089 0.11178589q-0.86450195 0.3538208 -1.6810303 1.0336761l-3.9625244 3.299286l-1.070404 -1.2842712zm7.369934 1.1549377q2.1013184 -1.7496185 4.102356 -1.423172q1.6508484 0.27235413 2.8213196 1.6766663q1.3005066 1.5603333 1.0881653 3.404358q-0.19033813 1.8460388 -1.9914856 3.3457184q-1.4649353 1.2197266 -2.6755981 1.4754791q-1.1886902 0.25776672 -2.3572388 -0.19250488q-1.1465759 -0.44825745 -1.9768982 -1.4444733q-1.3205261 -1.5843506 -1.1201782 -3.4183807q0.20031738 -1.8340302 2.109558 -3.4236908zm1.1004028 1.3202972q-1.4529114 1.209732 -1.643158 2.4457397q-0.19024658 1.2360077 0.6100464 2.1962128q0.8003235 0.96022034 2.040985 0.9844818q1.2626648 0.026275635 2.7516174 -1.2134705q1.4049072 -1.1697388 1.5951538 -2.4057465q0.19024658 -1.2360077 -0.60006714 -2.1842194q-0.80029297 -0.9602051 -2.0509644 -0.9964752q-1.2506714 -0.03627014 -2.7036133 1.1734772zm2.1403809 10.255402l10.446655 -8.69812l1.070404 1.2842865l-10.446655 8.69812l-1.070404 -1.2842865zm4.501007 0.81222534l1.2645264 1.1023102q-0.6784668 0.747879 -0.68655396 1.5679169q0.013916016 0.82203674 0.74420166 1.6982269q0.7402649 0.8881836 1.4506531 1.0083466q0.72036743 0.13215637 1.2006531 -0.26776123q0.4322815 -0.35992432 0.3743286 -0.94195557q-0.051971436 -0.40402222 -0.6581421 -1.6682129q-0.82025146 -1.7162323 -1.0282593 -2.478302q-0.18600464 -0.7600708 0.030181885 -1.4280548q0.23822021 -0.6659851 0.79055786 -1.125885q0.5043335 -0.41990662 1.1266785 -0.5517731q0.63235474 -0.11987305 1.2506714 0.03627014q0.46624756 0.12010193 1.0525208 0.50624084q0.5862427 0.38613892 1.0764465 0.9742584q0.7503052 0.9002075 1.0463257 1.7922974q0.30807495 0.8821106 0.12390137 1.5640869q-0.16217041 0.6839905 -0.7946167 1.4138947l-1.2084961 -1.1083069q0.50631714 -0.56391907 0.4804077 -1.253952q-0.0039367676 -0.6880188 -0.624176 -1.4321747q-0.7402649 -0.88819885 -1.3505859 -1.0103302q-0.5982971 -0.13214111 -0.98254395 0.18778992q-0.25216675 0.20996094 -0.32626343 0.5359497q-0.07406616 0.32600403 0.07394409 0.77204895q0.08804321 0.25202942 0.6041565 1.4081879q0.77023315 1.6562347 0.99224854 2.3863068q0.2220459 0.730072 0.027832031 1.4000549q-0.18417358 0.6819916 -0.8446045 1.2318726q-0.63638306 0.52989197 -1.5228882 0.6376953q-0.8744812 0.0978241 -1.7769165 -0.35038757q-0.8904114 -0.45820618 -1.6307068 -1.346405q-1.2304688 -1.4763184 -1.2683411 -2.7663727q-0.027862549 -1.2780609 0.9928589 -2.4938812z" fill-rule="nonzero"></path><path fill="#000000" fill-opacity="0.0" d="m443.16687 405.14154l153.98425 -82.20474l22.614197 42.33072l-153.98428 82.20471z" fill-rule="nonzero"></path><path fill="#000000" d="m471.4009 415.18243l1.7986755 -0.44656372q0.5492554 2.2218933 -0.19424438 3.947235q-0.7508545 1.7115173 -2.6254272 2.7122803q-1.9435425 1.0375671 -3.5761719 0.89953613q-1.6399841 -0.15176392 -3.0692139 -1.3016968q-1.436554 -1.1637268 -2.3568726 -2.8864136q-1.0013123 -1.8742981 -1.0419312 -3.6415405q-0.026855469 -1.7745972 0.9135132 -3.1976624q0.93304443 -1.4368286 2.5181885 -2.2830505q1.8056641 -0.96398926 3.5257263 -0.6955261q1.712677 0.2546997 3.0786133 1.65094l-1.3587952 1.2036133q-1.1129456 -1.088501 -2.229004 -1.254303q-1.1234131 -0.17959595 -2.3226013 0.4605713q-1.3783569 0.73587036 -1.9622803 1.8977661q-0.5700989 1.154541 -0.35232544 2.4906616q0.22421265 1.3150024 0.85739136 2.5002136q0.8172302 1.5297546 1.8694153 2.4381714q1.0585938 0.88726807 2.2977295 0.9519348q1.2529602 0.05731201 2.3418884 -0.52401733q1.3370056 -0.71377563 1.8555908 -1.9647827q0.51119995 -1.2647705 0.03213501 -2.957367zm2.50766 -1.5158386q-1.2884521 -2.4117737 -0.56344604 -4.304352q0.60110474 -1.5607605 2.2138062 -2.4217224q1.7919006 -0.956604 3.555359 -0.37475586q1.769867 0.56066895 2.874237 2.6279297q0.8982239 1.681366 0.903595 2.918335q0.011810303 1.2158508 -0.6659241 2.2684326q-0.67129517 1.0314331 -1.8153381 1.6421814q-1.8194885 0.9713135 -3.5755615 0.4032898q-1.756073 -0.5680542 -2.9267273 -2.7593384zm1.5162048 -0.8094177q0.89086914 1.667572 2.0631714 2.1044617q1.1723022 0.43688965 2.274994 -0.15179443q1.1026917 -0.58865356 1.3777161 -1.7982178q0.2814331 -1.2306824 -0.63153076 -2.9396057q-0.8614197 -1.6124573 -2.0336914 -2.049347q-1.1723022 -0.43688965 -2.2612305 0.1444397q-1.1026917 0.5886841 -1.3914795 1.8055725q-0.28878784 1.2168884 0.6020508 2.884491zm10.507416 -0.030090332l-4.645752 -8.696228l1.3232422 -0.7063904l0.6626282 1.2403259q0.19915771 -1.9483643 2.0048523 -2.9123535q0.78567505 -0.4194336 1.6018982 -0.48321533q0.8088684 -0.07757568 1.3762207 0.22177124q0.5737915 0.27816772 1.0429382 0.82476807q0.30358887 0.3692932 0.8483887 1.3891296l2.856659 5.34729l-1.4748535 0.7873535l-2.8272095 -5.292145q-0.47857666 -0.895813 -0.89334106 -1.2411499q-0.40838623 -0.3665161 -0.98934937 -0.3928833q-0.58096313 -0.026367188 -1.1736755 0.29003906q-0.9372864 0.5003662 -1.309906 1.460907q-0.35879517 0.95318604 0.5394287 2.634552l2.5326843 4.7408752l-1.4748535 0.7873535zm11.671692 -7.931305l0.90618896 1.198883q-0.5540161 0.45516968 -1.0502319 0.72006226q-0.799469 0.42678833 -1.3730774 0.4142151q-0.58096313 -0.026397705 -0.97366333 -0.3303833q-0.40005493 -0.31781006 -1.1142273 -1.6546326l-2.6652222 -4.9889526l-1.0889282 0.58132935l-0.6184387 -1.1576538l1.0888977 -0.58132935l-1.148529 -2.1499329l0.98986816 -1.6620178l1.619751 3.031952l1.4886475 -0.79470825l0.61846924 1.1576538l-1.4886475 0.79470825l2.709381 5.0716553q0.33868408 0.63394165 0.5033264 0.77630615q0.17840576 0.13500977 0.4165039 0.14962769q0.23809814 0.014587402 0.5689087 -0.16201782q0.23431396 -0.12509155 0.61102295 -0.4147644zm7.158539 -3.502777q-0.4515381 1.1443787 -1.0550232 1.838501q-0.61087036 0.6803589 -1.479248 1.1439209q-1.4197083 0.7579346 -2.5597534 0.4809265q-1.1473694 -0.29077148 -1.7290039 -1.3795471q-0.34603882 -0.6477356 -0.33636475 -1.3259583q0.00970459 -0.67822266 0.30899048 -1.2453918q0.2993164 -0.5671692 0.8036804 -1.0489807q0.3748169 -0.35949707 1.1916504 -0.91955566q1.6741028 -1.1770935 2.3602905 -1.9154053q-0.16195679 -0.30319214 -0.20614624 -0.38586426q-0.47854614 -0.895813 -1.0908508 -1.0471497q-0.8302002 -0.19445801 -1.9466858 0.4015808q-1.033783 0.5518799 -1.338562 1.1751099q-0.30480957 0.62323 -0.038482666 1.6854858l-1.5577393 0.56591797q-0.28652954 -1.0337524 -0.14730835 -1.834259q0.15301514 -0.80789185 0.83184814 -1.559967q0.6852417 -0.77319336 1.8155212 -1.3765869q1.1164856 -0.5960388 1.9455566 -0.7021179q0.82907104 -0.1060791 1.3734131 0.117004395q0.5443115 0.22305298 0.9923401 0.7632141q0.28146362 0.3279724 0.80422974 1.3064575l1.0528259 1.9707642q1.0970154 2.0534668 1.4742126 2.560608q0.38363647 0.4859619 0.93814087 0.8275757l-1.5437927 0.8241577q-0.4772644 -0.3297119 -0.863739 -0.9204407zm-1.8763123 -3.2138062q-0.63012695 0.7437744 -2.1176758 1.8389893q-0.84347534 0.6097107 -1.1272888 0.9737549q-0.28381348 0.3640747 -0.32122803 0.79141235q-0.03741455 0.42736816 0.16873169 0.81326294q0.31658936 0.59259033 0.9711914 0.7568054q0.66101074 0.14303589 1.5155945 -0.3131714q0.85461426 -0.4562378 1.3174438 -1.1815491q0.45547485 -0.7391052 0.4338379 -1.5422974q-0.038116455 -0.63500977 -0.5534668 -1.5997314l-0.2871399 -0.5374756zm0.43136597 -7.881958l-0.8982239 -1.681366l1.4748535 -0.7873535l0.8982544 1.681366l-1.474884 0.7873535zm5.5071716 10.308685l-4.645752 -8.696228l1.4748535 -0.7873535l4.645752 8.696228l-1.4748535 0.7873535zm3.6426392 -1.9446106l-4.6457825 -8.696228l1.3232727 -0.7064209l0.66259766 1.2403564q0.19918823 -1.9483948 2.0048523 -2.9123535q0.78567505 -0.4194336 1.6018982 -0.48324585q0.8088989 -0.07757568 1.3762207 0.22177124q0.5737915 0.27819824 1.0429688 0.82476807q0.30352783 0.3692932 0.8483887 1.3891602l2.8566284 5.3472595l-1.4748535 0.78738403l-2.8272095 -5.2921753q-0.47857666 -0.895813 -0.89331055 -1.2411499q-0.40838623 -0.3664856 -0.9893799 -0.3928833q-0.5809326 -0.026367188 -1.173645 0.29003906q-0.9373169 0.5003967 -1.309906 1.460907q-0.35882568 0.95318604 0.5393982 2.634552l2.5327148 4.7408752l-1.4748535 0.78738403zm13.613037 -10.862946l1.6193237 -0.6164856q0.3484497 1.5143433 -0.23266602 2.7810059q-0.574646 1.2455444 -2.0908813 2.0549622q-1.9021606 1.0154724 -3.6444702 0.440094q-1.7422485 -0.57540894 -2.8760986 -2.6977844q-1.1706543 -2.1912842 -0.7020874 -4.000122q0.48242188 -1.8161621 2.288086 -2.7801208q1.7505493 -0.9345398 3.4863892 -0.3380127q1.7359009 0.5965576 2.8918457 2.7602844q0.066223145 0.12402344 0.19232178 0.393219l-6.4783936 3.458496q0.8484497 1.3891602 1.9838867 1.7571411q1.135498 0.36798096 2.2244263 -0.21331787q0.7994385 -0.42678833 1.1437378 -1.1419373q0.35064697 -0.7362976 0.19458008 -1.8574219zm-6.1118164 0.1986084l4.8519287 -2.5901794q-0.6781616 -1.037262 -1.4274902 -1.3456726q-1.1594849 -0.479187 -2.289734 0.12420654q-1.0062256 0.5371704 -1.3410645 1.601532q-0.32843018 1.0432434 0.20635986 2.2101135zm16.442505 -2.1180725l-0.5890503 -1.1025391q-0.13494873 1.7369995 -1.7338257 2.5905762q-1.0338135 0.5519104 -2.2178345 0.4577942q-1.1776123 -0.115234375 -2.204834 -0.87753296q-1.020874 -0.78344727 -1.7350464 -2.1202698q-0.69207764 -1.2954712 -0.83166504 -2.5847778q-0.12585449 -1.2966614 0.42687988 -2.3179321q0.5665283 -1.0286255 1.6416626 -1.6026001q0.78570557 -0.4194336 1.5688477 -0.41244507q0.7969971 -3.6621094E-4 1.4700928 0.3310852l-2.2971191 -4.2998657l1.4610596 -0.7800293l6.4053955 11.990051l-1.364563 0.7284851zm-6.9781494 -1.8540344q0.89086914 1.667572 2.0355835 2.1192017q1.1585083 0.44424438 2.1096191 -0.06347656q0.96484375 -0.5151062 1.220581 -1.6612244q0.2557373 -1.1461182 -0.6130371 -2.7723694q-0.94976807 -1.777832 -2.0806885 -2.236786q-1.1383057 -0.47277832 -2.1445312 0.06439209q-0.9786377 0.52246094 -1.2132568 1.6750183q-0.2345581 1.1525269 0.68573 2.8752441zm17.354248 -3.6852722l-9.5894165 -10.290222l1.6264648 -0.86831665l6.0161133 6.884247q0.96588135 1.0784607 1.8204956 2.1808472q-0.56848145 -2.1584778 -0.6477661 -2.5058289l-2.0336914 -9.31134l1.9159546 -1.0228271l4.9624634 5.144104q1.8552856 1.9143677 3.191162 3.7517395q-0.36938477 -1.255188 -0.7850342 -2.9284973l-2.2410278 -8.704712l1.598938 -0.85357666l3.111023 13.748718l-1.5299683 0.816803l-7.4038086 -7.7906494q-0.9281006 -0.9746094 -1.1231079 -1.2070312q0.2487793 0.9299011 0.39257812 1.5970459l2.3313599 10.498566l-1.6127319 0.8609314zm7.7521973 -17.387207l-0.89819336 -1.681366l1.4748535 -0.7873535l0.8982544 1.681366l-1.4749146 0.7873535zm5.507202 10.308655l-4.645752 -8.6961975l1.4748535 -0.78738403l4.645752 8.696228l-1.4748535 0.7873535zm6.161194 -4.9895325l0.90625 1.198883q-0.5540161 0.45516968 -1.0502319 0.72006226q-0.7994995 0.42678833 -1.3731079 0.41418457q-0.5809326 -0.026367188 -0.9736328 -0.3303833q-0.40008545 -0.31777954 -1.1142578 -1.654602l-2.6652222 -4.9889526l-1.0889282 0.58132935l-0.61846924 -1.1576538l1.0889282 -0.58132935l-1.1485596 -2.1499329l0.9899292 -1.6620483l1.619751 3.0319824l1.4886475 -0.79473877l0.6184082 1.1576843l-1.4886475 0.79470825l2.7094116 5.0716553q0.33868408 0.63394165 0.50335693 0.77630615q0.17840576 0.13500977 0.4165039 0.14959717q0.23803711 0.01461792 0.56884766 -0.1619873q0.234375 -0.12509155 0.61102295 -0.4147644zm2.053955 0.60388184l-6.4053955 -11.990051l1.4748535 -0.7873535l2.2971191 4.2998657q0.3932495 -1.750885 1.9645996 -2.5897522q0.96484375 -0.5150757 1.8739624 -0.5044861q0.9155884 -0.010528564 1.5795898 0.50286865q0.6777954 0.506073 1.3551025 1.7739868l2.9450073 5.5126343l-1.4748535 0.78738403l-2.9450073 -5.512665q-0.58898926 -1.1025391 -1.3364868 -1.3411255q-0.7548218 -0.25238037 -1.62323 0.21121216q-0.6616211 0.35321045 -1.0564575 1.0068054q-0.38842773 0.6324463 -0.3199463 1.3575134q0.06109619 0.7112732 0.605896 1.7311401l2.5401 4.754669l-1.4748535 0.7873535zm3.659668 -15.202423l-0.89819336 -1.681366l1.4748535 -0.7873535l0.89819336 1.681366l-1.4748535 0.7873535zm5.507202 10.308685l-4.645752 -8.696228l1.4748535 -0.7873535l4.645752 8.696228l-1.4748535 0.7873535zm3.6425781 -1.9446411l-4.645752 -8.6961975l1.3232422 -0.7064209l0.6626587 1.2403564q0.19915771 -1.9483948 2.0048218 -2.9123535q0.78570557 -0.4194336 1.6019287 -0.48324585q0.8088379 -0.07757568 1.3762207 0.22177124q0.5737915 0.27816772 1.0429077 0.82476807q0.30358887 0.3692932 0.8484497 1.3891296l2.8566284 5.34729l-1.4748535 0.7873535l-2.8272095 -5.292145q-0.47857666 -0.895813 -0.8933716 -1.2411499q-0.40838623 -0.3665161 -0.98931885 -0.3928833q-0.58099365 -0.026367188 -1.173706 0.29003906q-0.93725586 0.5003662 -1.3098755 1.460907q-0.35882568 0.95318604 0.5394287 2.634552l2.5327148 4.7408752l-1.4749146 0.7873535z" fill-rule="nonzero"></path></g></svg>

