<?xml version="1.0" standalone="yes"?>

<svg version="1.1" viewBox="0.0 0.0 960.0 540.0" fill="none" stroke="none" stroke-linecap="square" stroke-miterlimit="10" xmlns="http://www.w3.org/2000/svg" xmlns:xlink="http://www.w3.org/1999/xlink"><clipPath id="g12dfc07d3_10.0"><path d="m0 0l960.0 0l0 540.0l-960.0 0l0 -540.0z" clip-rule="nonzero"></path></clipPath><g clip-path="url(#g12dfc07d3_10.0)"><path fill="#000000" fill-opacity="0.0" d="m0 0l960.0 0l0 540.0l-960.0 0z" fill-rule="nonzero"></path><path fill="#cccccc" d="m423.58603 475.31235l0 0c0 -5.566345 4.5124207 -10.078766 10.078766 -10.078766l0 0c2.6730347 0 5.236603 1.0618896 7.1267395 2.9519958c1.8901367 1.8901367 2.9519958 4.453705 2.9519958 7.12677l0 0c0 5.5663147 -4.5124207 10.078735 -10.078735 10.078735l0 0c-5.566345 0 -10.078766 -4.5124207 -10.078766 -10.078735z" fill-rule="nonzero"></path><path stroke="#666666" stroke-width="2.0" stroke-linejoin="round" stroke-linecap="butt" d="m423.58603 475.31235l0 0c0 -5.566345 4.5124207 -10.078766 10.078766 -10.078766l0 0c2.6730347 0 5.236603 1.0618896 7.1267395 2.9519958c1.8901367 1.8901367 2.9519958 4.453705 2.9519958 7.12677l0 0c0 5.5663147 -4.5124207 10.078735 -10.078735 10.078735l0 0c-5.566345 0 -10.078766 -4.5124207 -10.078766 -10.078735z" fill-rule="nonzero"></path><path fill="#cccccc" d="m459.74615 475.31235l0 0c0 -5.566345 4.51239 -10.078766 10.078735 -10.078766l0 0c2.6730347 0 5.236603 1.0618896 7.1267395 2.9519958c1.8901367 1.8901367 2.9519958 4.453705 2.9519958 7.12677l0 0c0 5.5663147 -4.5124207 10.078735 -10.078735 10.078735l0 0c-5.566345 0 -10.078735 -4.5124207 -10.078735 -10.078735z" fill-rule="nonzero"></path><path stroke="#666666" stroke-width="2.0" stroke-linejoin="round" stroke-linecap="butt" d="m459.74615 475.31235l0 0c0 -5.566345 4.51239 -10.078766 10.078735 -10.078766l0 0c2.6730347 0 5.236603 1.0618896 7.1267395 2.9519958c1.8901367 1.8901367 2.9519958 4.453705 2.9519958 7.12677l0 0c0 5.5663147 -4.5124207 10.078735 -10.078735 10.078735l0 0c-5.566345 0 -10.078735 -4.5124207 -10.078735 -10.078735z" fill-rule="nonzero"></path><path fill="#cccccc" d="m495.90625 475.31235l0 0c0 -5.566345 4.5124207 -10.078766 10.078735 -10.078766l0 0c2.6730652 0 5.2366333 1.0618896 7.12677 2.9519958c1.8901367 1.8901367 2.9519653 4.453705 2.9519653 7.12677l0 0c0 5.5663147 -4.51239 10.078735 -10.078735 10.078735l0 0c-5.5663147 0 -10.078735 -4.5124207 -10.078735 -10.078735z" fill-rule="nonzero"></path><path stroke="#666666" stroke-width="2.0" stroke-linejoin="round" stroke-linecap="butt" d="m495.90625 475.31235l0 0c0 -5.566345 4.5124207 -10.078766 10.078735 -10.078766l0 0c2.6730652 0 5.2366333 1.0618896 7.12677 2.9519958c1.8901367 1.8901367 2.9519653 4.453705 2.9519653 7.12677l0 0c0 5.5663147 -4.51239 10.078735 -10.078735 10.078735l0 0c-5.5663147 0 -10.078735 -4.5124207 -10.078735 -10.078735z" fill-rule="nonzero"></path><path fill="#cccccc" d="m252.93774 399.01968l0 0c0 -5.566345 4.5124207 -10.078735 10.078735 -10.078735l0 0c2.6730652 0 5.2366333 1.0618591 7.1267395 2.9519958c1.8901367 1.8901367 2.9519958 4.453705 2.9519958 7.1267395l0 0c0 5.566345 -4.51239 10.078735 -10.078735 10.078735l0 0c-5.5663147 0 -10.078735 -4.51239 -10.078735 -10.078735z" fill-rule="nonzero"></path><path stroke="#666666" stroke-width="2.0" stroke-linejoin="round" stroke-linecap="butt" d="m252.93774 399.01968l0 0c0 -5.566345 4.5124207 -10.078735 10.078735 -10.078735l0 0c2.6730652 0 5.2366333 1.0618591 7.1267395 2.9519958c1.8901367 1.8901367 2.9519958 4.453705 2.9519958 7.1267395l0 0c0 5.566345 -4.51239 10.078735 -10.078735 10.078735l0 0c-5.5663147 0 -10.078735 -4.51239 -10.078735 -10.078735z" fill-rule="nonzero"></path><path fill="#cccccc" d="m289.09784 399.01968l0 0c0 -5.566345 4.5124207 -10.078735 10.078766 -10.078735l0 0c2.6730347 0 5.236603 1.0618591 7.1267395 2.9519958c1.8901367 1.8901367 2.9519958 4.453705 2.9519958 7.1267395l0 0c0 5.566345 -4.5124207 10.078735 -10.078735 10.078735l0 0c-5.566345 0 -10.078766 -4.51239 -10.078766 -10.078735z" fill-rule="nonzero"></path><path stroke="#666666" stroke-width="2.0" stroke-linejoin="round" stroke-linecap="butt" d="m289.09784 399.01968l0 0c0 -5.566345 4.5124207 -10.078735 10.078766 -10.078735l0 0c2.6730347 0 5.236603 1.0618591 7.1267395 2.9519958c1.8901367 1.8901367 2.9519958 4.453705 2.9519958 7.1267395l0 0c0 5.566345 -4.5124207 10.078735 -10.078735 10.078735l0 0c-5.566345 0 -10.078766 -4.51239 -10.078766 -10.078735z" fill-rule="nonzero"></path><path fill="#cccccc" d="m325.25797 399.01968l0 0c0 -5.566345 4.51239 -10.078735 10.078735 -10.078735l0 0c2.6730347 0 5.236603 1.0618591 7.1267395 2.9519958c1.8901367 1.8901367 2.9519958 4.453705 2.9519958 7.1267395l0 0c0 5.566345 -4.51239 10.078735 -10.078735 10.078735l0 0c-5.566345 0 -10.078735 -4.51239 -10.078735 -10.078735z" fill-rule="nonzero"></path><path stroke="#666666" stroke-width="2.0" stroke-linejoin="round" stroke-linecap="butt" d="m325.25797 399.01968l0 0c0 -5.566345 4.51239 -10.078735 10.078735 -10.078735l0 0c2.6730347 0 5.236603 1.0618591 7.1267395 2.9519958c1.8901367 1.8901367 2.9519958 4.453705 2.9519958 7.1267395l0 0c0 5.566345 -4.51239 10.078735 -10.078735 10.078735l0 0c-5.566345 0 -10.078735 -4.51239 -10.078735 -10.078735z" fill-rule="nonzero"></path><path fill="#cccccc" d="m361.41806 399.01968l0 0c0 -5.566345 4.5124207 -10.078735 10.078735 -10.078735l0 0c2.6730652 0 5.2366333 1.0618591 7.1267395 2.9519958c1.8901367 1.8901367 2.9519958 4.453705 2.9519958 7.1267395l0 0c0 5.566345 -4.51239 10.078735 -10.078735 10.078735l0 0c-5.5663147 0 -10.078735 -4.51239 -10.078735 -10.078735z" fill-rule="nonzero"></path><path stroke="#666666" stroke-width="2.0" stroke-linejoin="round" stroke-linecap="butt" d="m361.41806 399.01968l0 0c0 -5.566345 4.5124207 -10.078735 10.078735 -10.078735l0 0c2.6730652 0 5.2366333 1.0618591 7.1267395 2.9519958c1.8901367 1.8901367 2.9519958 4.453705 2.9519958 7.1267395l0 0c0 5.566345 -4.51239 10.078735 -10.078735 10.078735l0 0c-5.5663147 0 -10.078735 -4.51239 -10.078735 -10.078735z" fill-rule="nonzero"></path><path fill="#cccccc" d="m271.82037 432.29947l0 0c0 -5.566345 4.51239 -10.078735 10.078735 -10.078735l0 0c2.6730347 0 5.236603 1.0618591 7.1267395 2.9519653c1.8901367 1.8901367 2.9519958 4.453705 2.9519958 7.12677l0 0c0 5.5663147 -4.5124207 10.078735 -10.078735 10.078735l0 0c-5.566345 0 -10.078735 -4.5124207 -10.078735 -10.078735z" fill-rule="nonzero"></path><path stroke="#666666" stroke-width="2.0" stroke-linejoin="round" stroke-linecap="butt" d="m271.82037 432.29947l0 0c0 -5.566345 4.51239 -10.078735 10.078735 -10.078735l0 0c2.6730347 0 5.236603 1.0618591 7.1267395 2.9519653c1.8901367 1.8901367 2.9519958 4.453705 2.9519958 7.12677l0 0c0 5.5663147 -4.5124207 10.078735 -10.078735 10.078735l0 0c-5.566345 0 -10.078735 -4.5124207 -10.078735 -10.078735z" fill-rule="nonzero"></path><path fill="#cccccc" d="m307.98047 432.29947l0 0c0 -5.566345 4.5124207 -10.078735 10.078735 -10.078735l0 0c2.6730652 0 5.2366333 1.0618591 7.1267395 2.9519653c1.8901367 1.8901367 2.9519958 4.453705 2.9519958 7.12677l0 0c0 5.5663147 -4.51239 10.078735 -10.078735 10.078735l0 0c-5.5663147 0 -10.078735 -4.5124207 -10.078735 -10.078735z" fill-rule="nonzero"></path><path stroke="#666666" stroke-width="2.0" stroke-linejoin="round" stroke-linecap="butt" d="m307.98047 432.29947l0 0c0 -5.566345 4.5124207 -10.078735 10.078735 -10.078735l0 0c2.6730652 0 5.2366333 1.0618591 7.1267395 2.9519653c1.8901367 1.8901367 2.9519958 4.453705 2.9519958 7.12677l0 0c0 5.5663147 -4.51239 10.078735 -10.078735 10.078735l0 0c-5.5663147 0 -10.078735 -4.5124207 -10.078735 -10.078735z" fill-rule="nonzero"></path><path fill="#cccccc" d="m344.1406 432.29947l0 0c0 -5.566345 4.51239 -10.078735 10.078735 -10.078735l0 0c2.6730347 0 5.236603 1.0618591 7.1267395 2.9519653c1.8901367 1.8901367 2.9519958 4.453705 2.9519958 7.12677l0 0c0 5.5663147 -4.5124207 10.078735 -10.078735 10.078735l0 0c-5.566345 0 -10.078735 -4.5124207 -10.078735 -10.078735z" fill-rule="nonzero"></path><path stroke="#666666" stroke-width="2.0" stroke-linejoin="round" stroke-linecap="butt" d="m344.1406 432.29947l0 0c0 -5.566345 4.51239 -10.078735 10.078735 -10.078735l0 0c2.6730347 0 5.236603 1.0618591 7.1267395 2.9519653c1.8901367 1.8901367 2.9519958 4.453705 2.9519958 7.12677l0 0c0 5.5663147 -4.5124207 10.078735 -10.078735 10.078735l0 0c-5.566345 0 -10.078735 -4.5124207 -10.078735 -10.078735z" fill-rule="nonzero"></path><path fill="#000000" fill-opacity="0.0" d="m270.14322 391.89294l47.915253 -42.700043" fill-rule="nonzero"></path><path stroke="#666666" stroke-width="1.0" stroke-linejoin="round" stroke-linecap="butt" stroke-dasharray="4.0,3.0" d="m270.14322 391.89294l47.915253 -42.700043" fill-rule="nonzero"></path><path fill="#000000" fill-opacity="0.0" d="m299.1766 388.94095l18.881866 -39.748047" fill-rule="nonzero"></path><path stroke="#666666" stroke-width="1.0" stroke-linejoin="round" stroke-linecap="butt" stroke-dasharray="4.0,3.0" d="m299.1766 388.94095l18.881866 -39.748047" fill-rule="nonzero"></path><path fill="#000000" fill-opacity="0.0" d="m335.3367 388.94095l-17.278229 -39.748047" fill-rule="nonzero"></path><path stroke="#666666" stroke-width="1.0" stroke-linejoin="round" stroke-linecap="butt" stroke-dasharray="4.0,3.0" d="m335.3367 388.94095l-17.278229 -39.748047" fill-rule="nonzero"></path><path fill="#000000" fill-opacity="0.0" d="m364.37006 391.89294l-46.311584 -42.700043" fill-rule="nonzero"></path><path stroke="#666666" stroke-width="1.0" stroke-linejoin="round" stroke-linecap="butt" stroke-dasharray="4.0,3.0" d="m364.37006 391.89294l-46.311584 -42.700043" fill-rule="nonzero"></path><path fill="#000000" fill-opacity="0.0" d="m354.21933 422.22073l10.150726 -16.07431" fill-rule="nonzero"></path><path stroke="#666666" stroke-width="1.0" stroke-linejoin="round" stroke-linecap="butt" stroke-dasharray="4.0,3.0" d="m354.21933 422.22073l10.150726 -16.07431" fill-rule="nonzero"></path><path fill="#000000" fill-opacity="0.0" d="m318.0592 422.22073l10.150757 -16.07431" fill-rule="nonzero"></path><path stroke="#666666" stroke-width="1.0" stroke-linejoin="round" stroke-linecap="butt" stroke-dasharray="4.0,3.0" d="m318.0592 422.22073l10.150757 -16.07431" fill-rule="nonzero"></path><path fill="#000000" fill-opacity="0.0" d="m281.8991 422.22073l-11.75589 -16.07431" fill-rule="nonzero"></path><path stroke="#666666" stroke-width="1.0" stroke-linejoin="round" stroke-linecap="butt" stroke-dasharray="4.0,3.0" d="m281.8991 422.22073l-11.75589 -16.07431" fill-rule="nonzero"></path><path fill="#000000" fill-opacity="0.0" d="m440.79153 468.18558l29.313171 -42.700012" fill-rule="nonzero"></path><path stroke="#666666" stroke-width="1.0" stroke-linejoin="round" stroke-linecap="butt" stroke-dasharray="4.0,3.0" d="m440.79153 468.18558l29.313171 -42.700012" fill-rule="nonzero"></path><path fill="#000000" fill-opacity="0.0" d="m469.8249 465.23358l0.27981567 -39.748016" fill-rule="nonzero"></path><path stroke="#666666" stroke-width="1.0" stroke-linejoin="round" stroke-linecap="butt" stroke-dasharray="4.0,3.0" d="m469.8249 465.23358l0.27981567 -39.748016" fill-rule="nonzero"></path><path fill="#000000" fill-opacity="0.0" d="m498.85825 468.18558l-28.75354 -42.700012" fill-rule="nonzero"></path><path stroke="#666666" stroke-width="1.0" stroke-linejoin="round" stroke-linecap="butt" stroke-dasharray="4.0,3.0" d="m498.85825 468.18558l-28.75354 -42.700012" fill-rule="nonzero"></path><path fill="#cccccc" d="m280.2947 313.6025l0 0c0 -3.931305 3.1869507 -7.1182556 7.1182556 -7.1182556l61.291046 0c1.8878784 0 3.6984253 0.7499695 5.0333557 2.0849c1.3349304 1.3349304 2.0849 3.1454773 2.0849 5.0333557l0 28.472137c0 3.931305 -3.1869507 7.1182556 -7.1182556 7.1182556l-61.291046 0c-3.931305 0 -7.1182556 -3.1869507 -7.1182556 -7.1182556z" fill-rule="nonzero"></path><path stroke="#666666" stroke-width="2.0" stroke-linejoin="round" stroke-linecap="butt" d="m280.2947 313.6025l0 0c0 -3.931305 3.1869507 -7.1182556 7.1182556 -7.1182556l61.291046 0c1.8878784 0 3.6984253 0.7499695 5.0333557 2.0849c1.3349304 1.3349304 2.0849 3.1454773 2.0849 5.0333557l0 28.472137c0 3.931305 -3.1869507 7.1182556 -7.1182556 7.1182556l-61.291046 0c-3.931305 0 -7.1182556 -3.1869507 -7.1182556 -7.1182556z" fill-rule="nonzero"></path><path fill="#000000" d="m311.99988 324.19858l0 -11.453125l1.515625 0l0 11.453125l-1.515625 0zm4.1796875 0l0 -11.453125l4.328125 0q1.140625 0 1.734375 0.109375q0.84375 0.140625 1.40625 0.53125q0.578125 0.390625 0.921875 1.109375q0.359375 0.703125 0.359375 1.5625q0 1.453125 -0.9375 2.46875q-0.921875 1.015625 -3.359375 1.015625l-2.9375 0l0 4.65625l-1.515625 0zm1.515625 -6.015625l2.96875 0q1.46875 0 2.078125 -0.546875q0.625 -0.546875 0.625 -1.53125q0 -0.71875 -0.375 -1.234375q-0.359375 -0.515625 -0.953125 -0.671875q-0.375 -0.109375 -1.40625 -0.109375l-2.9375 0l0 4.09375z" fill-rule="nonzero"></path><path fill="#000000" d="m296.10535 343.19858l0 -11.453125l4.296875 0q1.3125 0 2.109375 0.34375q0.796875 0.34375 1.234375 1.078125q0.453125 0.71875 0.453125 1.5q0 0.734375 -0.40625 1.390625q-0.390625 0.640625 -1.1875 1.046875q1.03125 0.296875 1.59375 1.03125q0.5625 0.734375 0.5625 1.734375q0 0.8125 -0.34375 1.5q-0.34375 0.6875 -0.84375 1.0625q-0.5 0.375 -1.25 0.578125q-0.75 0.1875 -1.84375 0.1875l-4.375 0zm1.515625 -6.640625l2.484375 0q1.0 0 1.4375 -0.140625q0.578125 -0.171875 0.875 -0.5625q0.296875 -0.40625 0.296875 -1.0q0 -0.578125 -0.28125 -1.0q-0.265625 -0.4375 -0.78125 -0.59375q-0.5 -0.171875 -1.734375 -0.171875l-2.296875 0l0 3.46875zm0 5.28125l2.859375 0q0.734375 0 1.03125 -0.046875q0.515625 -0.09375 0.859375 -0.3125q0.359375 -0.21875 0.578125 -0.640625q0.234375 -0.421875 0.234375 -0.96875q0 -0.640625 -0.328125 -1.109375q-0.328125 -0.46875 -0.90625 -0.65625q-0.578125 -0.203125 -1.671875 -0.203125l-2.65625 0l0 3.9375zm9.03125 1.359375l0 -8.296875l1.265625 0l0 1.25q0.484375 -0.875 0.890625 -1.15625q0.40625 -0.28125 0.90625 -0.28125q0.703125 0 1.4375 0.453125l-0.484375 1.296875q-0.515625 -0.296875 -1.03125 -0.296875q-0.453125 0 -0.828125 0.28125q-0.359375 0.265625 -0.515625 0.765625q-0.234375 0.75 -0.234375 1.640625l0 4.34375l-1.40625 0zm5.34375 -9.84375l0 -1.609375l1.40625 0l0 1.609375l-1.40625 0zm0 9.84375l0 -8.296875l1.40625 0l0 8.296875l-1.40625 0zm8.9296875 0l0 -1.046875q-0.78125 1.234375 -2.3125 1.234375q-1.0 0 -1.828125 -0.546875q-0.828125 -0.546875 -1.296875 -1.53125q-0.453125 -0.984375 -0.453125 -2.25q0 -1.25 0.40625 -2.25q0.421875 -1.015625 1.25 -1.546875q0.828125 -0.546875 1.859375 -0.546875q0.75 0 1.328125 0.3125q0.59375 0.3125 0.953125 0.828125l0 -4.109375l1.40625 0l0 11.453125l-1.3125 0zm-4.4375 -4.140625q0 1.59375 0.671875 2.390625q0.671875 0.78125 1.578125 0.78125q0.921875 0 1.5625 -0.75q0.65625 -0.765625 0.65625 -2.3125q0 -1.703125 -0.65625 -2.5q-0.65625 -0.796875 -1.625 -0.796875q-0.9375 0 -1.5625 0.765625q-0.625 0.765625 -0.625 2.421875zm7.6953125 4.828125l1.375 0.203125q0.078125 0.640625 0.46875 0.921875q0.53125 0.390625 1.4375 0.390625q0.96875 0 1.5 -0.390625q0.53125 -0.390625 0.71875 -1.09375q0.109375 -0.421875 0.109375 -1.8125q-0.921875 1.09375 -2.296875 1.09375q-1.71875 0 -2.65625 -1.234375q-0.9375 -1.234375 -0.9375 -2.96875q0 -1.1875 0.421875 -2.1875q0.4375 -1.0 1.25 -1.546875q0.828125 -0.546875 1.921875 -0.546875q1.46875 0 2.421875 1.1875l0 -1.0l1.296875 0l0 7.171875q0 1.9375 -0.390625 2.75q-0.390625 0.8125 -1.25 1.28125q-0.859375 0.46875 -2.109375 0.46875q-1.484375 0 -2.40625 -0.671875q-0.90625 -0.671875 -0.875 -2.015625zm1.171875 -4.984375q0 1.625 0.640625 2.375q0.65625 0.75 1.625 0.75q0.96875 0 1.625 -0.734375q0.65625 -0.75 0.65625 -2.34375q0 -1.53125 -0.671875 -2.296875q-0.671875 -0.78125 -1.625 -0.78125q-0.9375 0 -1.59375 0.765625q-0.65625 0.765625 -0.65625 2.265625zm13.6640625 1.625l1.453125 0.171875q-0.34375 1.28125 -1.28125 1.984375q-0.921875 0.703125 -2.359375 0.703125q-1.828125 0 -2.890625 -1.125q-1.0625 -1.125 -1.0625 -3.140625q0 -2.09375 1.078125 -3.25q1.078125 -1.15625 2.796875 -1.15625q1.65625 0 2.703125 1.140625q1.0625 1.125 1.0625 3.171875q0 0.125 0 0.375l-6.1875 0q0.078125 1.375 0.765625 2.109375q0.703125 0.71875 1.734375 0.71875q0.78125 0 1.328125 -0.40625q0.546875 -0.40625 0.859375 -1.296875zm-4.609375 -2.28125l4.625 0q-0.09375 -1.046875 -0.53125 -1.5625q-0.671875 -0.8125 -1.734375 -0.8125q-0.96875 0 -1.640625 0.65625q-0.65625 0.640625 -0.71875 1.71875z" fill-rule="nonzero"></path><path fill="#cccccc" d="m432.34094 389.89514l0 0c0 -3.9312744 3.1869507 -7.118225 7.1182556 -7.118225l61.291046 0c1.8878784 0 3.6984253 0.74993896 5.0333557 2.0848694c1.3349304 1.3349304 2.0849 3.1454773 2.0849 5.0333557l0 28.472168c0 3.931305 -3.1869507 7.1182556 -7.1182556 7.1182556l-61.291046 0c-3.931305 0 -7.1182556 -3.1869507 -7.1182556 -7.1182556z" fill-rule="nonzero"></path><path stroke="#666666" stroke-width="2.0" stroke-linejoin="round" stroke-linecap="butt" d="m432.34094 389.89514l0 0c0 -3.9312744 3.1869507 -7.118225 7.1182556 -7.118225l61.291046 0c1.8878784 0 3.6984253 0.74993896 5.0333557 2.0848694c1.3349304 1.3349304 2.0849 3.1454773 2.0849 5.0333557l0 28.472168c0 3.931305 -3.1869507 7.1182556 -7.1182556 7.1182556l-61.291046 0c-3.931305 0 -7.1182556 -3.1869507 -7.1182556 -7.1182556z" fill-rule="nonzero"></path><path fill="#000000" d="m464.0461 400.49124l0 -11.453125l1.515625 0l0 11.453125l-1.515625 0zm4.179718 0l0 -11.453125l4.328125 0q1.140625 0 1.734375 0.109375q0.84375 0.140625 1.40625 0.53125q0.578125 0.390625 0.921875 1.109375q0.359375 0.703125 0.359375 1.5625q0 1.453125 -0.9375 2.46875q-0.921875 1.015625 -3.359375 1.015625l-2.9375 0l0 4.65625l-1.515625 0zm1.515625 -6.015625l2.96875 0q1.46875 0 2.078125 -0.546875q0.625 -0.546875 0.625 -1.53125q0 -0.71875 -0.375 -1.234375q-0.359375 -0.515625 -0.953125 -0.671875q-0.375 -0.109375 -1.40625 -0.109375l-2.9375 0l0 4.09375z" fill-rule="nonzero"></path><path fill="#000000" d="m448.15158 419.49124l0 -11.453125l4.296875 0q1.3125 0 2.109375 0.34375q0.796875 0.34375 1.234375 1.078125q0.453125 0.71875 0.453125 1.5q0 0.734375 -0.40625 1.390625q-0.390625 0.640625 -1.1875 1.046875q1.03125 0.296875 1.59375 1.03125q0.5625 0.734375 0.5625 1.734375q0 0.8125 -0.34375 1.5q-0.34375 0.6875 -0.84375 1.0625q-0.5 0.375 -1.25 0.578125q-0.75 0.1875 -1.84375 0.1875l-4.375 0zm1.515625 -6.640625l2.484375 0q1.0 0 1.4375 -0.140625q0.578125 -0.171875 0.875 -0.5625q0.296875 -0.40625 0.296875 -1.0q0 -0.578125 -0.28125 -1.0q-0.265625 -0.4375 -0.78125 -0.59375q-0.5 -0.171875 -1.734375 -0.171875l-2.296875 0l0 3.46875zm0 5.28125l2.859375 0q0.734375 0 1.03125 -0.046875q0.515625 -0.09375 0.859375 -0.3125q0.359375 -0.21875 0.578125 -0.640625q0.234375 -0.421875 0.234375 -0.96875q0 -0.640625 -0.328125 -1.109375q-0.328125 -0.46875 -0.90625 -0.65625q-0.578125 -0.203125 -1.671875 -0.203125l-2.65625 0l0 3.9375zm9.03125 1.359375l0 -8.296875l1.265625 0l0 1.25q0.484375 -0.875 0.890625 -1.15625q0.40625 -0.28125 0.90625 -0.28125q0.703125 0 1.4375 0.453125l-0.484375 1.296875q-0.515625 -0.296875 -1.03125 -0.296875q-0.453125 0 -0.828125 0.28125q-0.359375 0.265625 -0.515625 0.765625q-0.234375 0.75 -0.234375 1.640625l0 4.34375l-1.40625 0zm5.34375 -9.84375l0 -1.609375l1.40625 0l0 1.609375l-1.40625 0zm0 9.84375l0 -8.296875l1.40625 0l0 8.296875l-1.40625 0zm8.929718 0l0 -1.046875q-0.78125 1.234375 -2.3125 1.234375q-1.0 0 -1.828125 -0.546875q-0.828125 -0.546875 -1.296875 -1.53125q-0.453125 -0.984375 -0.453125 -2.25q0 -1.25 0.40625 -2.25q0.421875 -1.015625 1.25 -1.546875q0.828125 -0.546875 1.859375 -0.546875q0.75 0 1.328125 0.3125q0.59375 0.3125 0.953125 0.828125l0 -4.109375l1.40625 0l0 11.453125l-1.3125 0zm-4.4375 -4.140625q0 1.59375 0.671875 2.390625q0.671875 0.78125 1.578125 0.78125q0.921875 0 1.5625 -0.75q0.65625 -0.765625 0.65625 -2.3125q0 -1.703125 -0.65625 -2.5q-0.65625 -0.796875 -1.625 -0.796875q-0.9375 0 -1.5625 0.765625q-0.625 0.765625 -0.625 2.421875zm7.6953125 4.828125l1.375 0.203125q0.078125 0.640625 0.46875 0.921875q0.53125 0.390625 1.4375 0.390625q0.96875 0 1.5 -0.390625q0.53125 -0.390625 0.71875 -1.09375q0.109375 -0.421875 0.109375 -1.8125q-0.921875 1.09375 -2.296875 1.09375q-1.71875 0 -2.65625 -1.234375q-0.9375 -1.234375 -0.9375 -2.96875q0 -1.1875 0.421875 -2.1875q0.4375 -1.0 1.25 -1.546875q0.828125 -0.546875 1.921875 -0.546875q1.46875 0 2.421875 1.1875l0 -1.0l1.296875 0l0 7.171875q0 1.9375 -0.390625 2.75q-0.390625 0.8125 -1.25 1.28125q-0.859375 0.46875 -2.109375 0.46875q-1.484375 0 -2.40625 -0.671875q-0.90625 -0.671875 -0.875 -2.015625zm1.171875 -4.984375q0 1.625 0.640625 2.375q0.65625 0.75 1.625 0.75q0.96875 0 1.625 -0.734375q0.65625 -0.75 0.65625 -2.34375q0 -1.53125 -0.671875 -2.296875q-0.671875 -0.78125 -1.625 -0.78125q-0.9375 0 -1.59375 0.765625q-0.65625 0.765625 -0.65625 2.265625zm13.6640625 1.625l1.453125 0.171875q-0.34375 1.28125 -1.28125 1.984375q-0.921875 0.703125 -2.359375 0.703125q-1.828125 0 -2.890625 -1.125q-1.0625 -1.125 -1.0625 -3.140625q0 -2.09375 1.078125 -3.25q1.078125 -1.15625 2.796875 -1.15625q1.65625 0 2.703125 1.140625q1.0625 1.125 1.0625 3.171875q0 0.125 0 0.375l-6.1875 0q0.078125 1.375 0.765625 2.109375q0.703125 0.71875 1.734375 0.71875q0.78125 0 1.328125 -0.40625q0.546875 -0.40625 0.859375 -1.296875zm-4.609375 -2.28125l4.625 0q-0.09375 -1.046875 -0.53125 -1.5625q-0.671875 -0.8125 -1.734375 -0.8125q-0.96875 0 -1.640625 0.65625q-0.65625 0.640625 -0.71875 1.71875z" fill-rule="nonzero"></path><path fill="#cccccc" d="m397.81628 159.57874l144.0 0l0 94.33072l-144.0 0z" fill-rule="nonzero"></path><path stroke="#666666" stroke-width="2.0" stroke-linejoin="round" stroke-linecap="butt" d="m397.81628 159.57874l144.0 0l0 94.33072l-144.0 0z" fill-rule="nonzero"></path><path fill="#000000" d="m443.20142 209.2891l1.6875 -0.140625q0.125 1.015625 0.5625 1.671875q0.4375 0.65625 1.359375 1.0625q0.9375 0.40625 2.09375 0.40625q1.03125 0 1.8125 -0.3125q0.796875 -0.3125 1.1875 -0.84375q0.390625 -0.53125 0.390625 -1.15625q0 -0.640625 -0.375 -1.109375q-0.375 -0.484375 -1.234375 -0.8125q-0.546875 -0.21875 -2.421875 -0.65625q-1.875 -0.453125 -2.625 -0.859375q-0.96875 -0.515625 -1.453125 -1.265625q-0.46875 -0.75 -0.46875 -1.6875q0 -1.03125 0.578125 -1.921875q0.59375 -0.90625 1.703125 -1.359375q1.125 -0.46875 2.5 -0.46875q1.515625 0 2.671875 0.484375q1.15625 0.484375 1.765625 1.4375q0.625 0.9375 0.671875 2.140625l-1.71875 0.125q-0.140625 -1.28125 -0.953125 -1.9375q-0.796875 -0.671875 -2.359375 -0.671875q-1.625 0 -2.375 0.609375q-0.75 0.59375 -0.75 1.4375q0 0.734375 0.53125 1.203125q0.515625 0.46875 2.703125 0.96875q2.203125 0.5 3.015625 0.875q1.1875 0.546875 1.75 1.390625q0.578125 0.828125 0.578125 1.921875q0 1.09375 -0.625 2.0625q-0.625 0.953125 -1.796875 1.484375q-1.15625 0.53125 -2.609375 0.53125q-1.84375 0 -3.09375 -0.53125q-1.25 -0.546875 -1.96875 -1.625q-0.703125 -1.078125 -0.734375 -2.453125zm19.584198 1.203125l1.71875 0.21875q-0.40625 1.5 -1.515625 2.34375q-1.09375 0.828125 -2.8125 0.828125q-2.15625 0 -3.421875 -1.328125q-1.265625 -1.328125 -1.265625 -3.734375q0 -2.484375 1.265625 -3.859375q1.28125 -1.375 3.328125 -1.375q1.984375 0 3.234375 1.34375q1.25 1.34375 1.25 3.796875q0 0.140625 -0.015625 0.4375l-7.34375 0q0.09375 1.625 0.921875 2.484375q0.828125 0.859375 2.0625 0.859375q0.90625 0 1.546875 -0.46875q0.65625 -0.484375 1.046875 -1.546875zm-5.484375 -2.703125l5.5 0q-0.109375 -1.234375 -0.625 -1.859375q-0.796875 -0.96875 -2.078125 -0.96875q-1.140625 0 -1.9375 0.78125q-0.78125 0.765625 -0.859375 2.046875zm9.094452 5.875l0 -9.859375l1.5 0l0 1.5q0.578125 -1.046875 1.0625 -1.375q0.484375 -0.34375 1.078125 -0.34375q0.84375 0 1.71875 0.546875l-0.578125 1.546875q-0.609375 -0.359375 -1.234375 -0.359375q-0.546875 0 -0.984375 0.328125q-0.421875 0.328125 -0.609375 0.90625q-0.28125 0.890625 -0.28125 1.953125l0 5.15625l-1.671875 0zm8.962677 0l-3.75 -9.859375l1.765625 0l2.125 5.90625q0.34375 0.953125 0.625 1.984375q0.21875 -0.78125 0.625 -1.875l2.1875 -6.015625l1.71875 0l-3.734375 9.859375l-1.5625 0zm13.34375 -3.171875l1.71875 0.21875q-0.40625 1.5 -1.515625 2.34375q-1.09375 0.828125 -2.8125 0.828125q-2.15625 0 -3.421875 -1.328125q-1.265625 -1.328125 -1.265625 -3.734375q0 -2.484375 1.265625 -3.859375q1.28125 -1.375 3.328125 -1.375q1.984375 0 3.234375 1.34375q1.25 1.34375 1.25 3.796875q0 0.140625 -0.015625 0.4375l-7.34375 0q0.09375 1.625 0.921875 2.484375q0.828125 0.859375 2.0625 0.859375q0.90625 0 1.546875 -0.46875q0.65625 -0.484375 1.046875 -1.546875zm-5.484375 -2.703125l5.5 0q-0.109375 -1.234375 -0.625 -1.859375q-0.796875 -0.96875 -2.078125 -0.96875q-1.140625 0 -1.9375 0.78125q-0.78125 0.765625 -0.859375 2.046875zm9.094482 5.875l0 -9.859375l1.5 0l0 1.5q0.578125 -1.046875 1.0625 -1.375q0.484375 -0.34375 1.078125 -0.34375q0.84375 0 1.71875 0.546875l-0.578125 1.546875q-0.609375 -0.359375 -1.234375 -0.359375q-0.546875 0 -0.984375 0.328125q-0.421875 0.328125 -0.609375 0.90625q-0.28125 0.890625 -0.28125 1.953125l0 5.15625l-1.671875 0z" fill-rule="nonzero"></path><path fill="#cccccc" d="m397.82416 233.75197l144.0 0l0 20.157486l-144.0 0z" fill-rule="nonzero"></path><path stroke="#666666" stroke-width="2.0" stroke-linejoin="round" stroke-linecap="butt" d="m397.82416 233.75197l144.0 0l0 20.157486l-144.0 0z" fill-rule="nonzero"></path><path fill="#000000" d="m414.46478 245.36508l1.234375 0.3125q-0.390625 1.515625 -1.40625 2.3125q-1.0 0.796875 -2.453125 0.796875q-1.5 0 -2.453125 -0.609375q-0.9375 -0.609375 -1.4375 -1.765625q-0.484375 -1.171875 -0.484375 -2.5q0 -1.453125 0.5625 -2.53125q0.5625 -1.09375 1.578125 -1.65625q1.03125 -0.5625 2.265625 -0.5625q1.390625 0 2.34375 0.71875q0.953125 0.703125 1.328125 2.0l-1.21875 0.28125q-0.328125 -1.015625 -0.9375 -1.46875q-0.609375 -0.46875 -1.546875 -0.46875q-1.078125 0 -1.796875 0.515625q-0.71875 0.515625 -1.015625 1.375q-0.28125 0.859375 -0.28125 1.78125q0 1.1875 0.34375 2.078125q0.34375 0.890625 1.0625 1.328125q0.734375 0.4375 1.59375 0.4375q1.03125 0 1.75 -0.59375q0.71875 -0.609375 0.96875 -1.78125zm2.8439026 3.265625l0 -9.3125l1.140625 0l0 3.34375q0.796875 -0.921875 2.015625 -0.921875q0.75 0 1.296875 0.296875q0.5625 0.296875 0.796875 0.8125q0.234375 0.515625 0.234375 1.515625l0 4.265625l-1.140625 0l0 -4.265625q0 -0.859375 -0.375 -1.25q-0.359375 -0.390625 -1.046875 -0.390625q-0.5 0 -0.953125 0.265625q-0.453125 0.25 -0.640625 0.703125q-0.1875 0.453125 -0.1875 1.25l0 3.6875l-1.140625 0zm11.803101 -0.828125q-0.625 0.53125 -1.21875 0.765625q-0.578125 0.21875 -1.25 0.21875q-1.125 0 -1.71875 -0.546875q-0.59375 -0.546875 -0.59375 -1.390625q0 -0.484375 0.21875 -0.890625q0.234375 -0.421875 0.59375 -0.671875q0.375 -0.25 0.828125 -0.375q0.328125 -0.078125 1.015625 -0.171875q1.375 -0.15625 2.03125 -0.390625q0.015625 -0.234375 0.015625 -0.296875q0 -0.703125 -0.328125 -0.984375q-0.4375 -0.390625 -1.296875 -0.390625q-0.8125 0 -1.203125 0.28125q-0.375 0.28125 -0.5625 1.0l-1.109375 -0.140625q0.140625 -0.71875 0.484375 -1.15625q0.359375 -0.453125 1.015625 -0.6875q0.671875 -0.234375 1.53125 -0.234375q0.875 0 1.40625 0.203125q0.546875 0.203125 0.796875 0.515625q0.25 0.296875 0.359375 0.765625q0.046875 0.296875 0.046875 1.0625l0 1.515625q0 1.59375 0.078125 2.015625q0.078125 0.421875 0.28125 0.8125l-1.1875 0q-0.171875 -0.359375 -0.234375 -0.828125zm-0.09375 -2.5625q-0.625 0.265625 -1.859375 0.4375q-0.703125 0.109375 -1.0 0.234375q-0.296875 0.125 -0.453125 0.375q-0.15625 0.234375 -0.15625 0.53125q0 0.453125 0.34375 0.765625q0.34375 0.296875 1.015625 0.296875q0.65625 0 1.171875 -0.28125q0.515625 -0.296875 0.765625 -0.796875q0.171875 -0.375 0.171875 -1.140625l0 -0.421875zm3.1156006 -4.59375l0 -1.328125l1.140625 0l0 1.328125l-1.140625 0zm0 7.984375l0 -6.734375l1.140625 0l0 6.734375l-1.140625 0zm2.96109 0l0 -6.734375l1.03125 0l0 0.953125q0.734375 -1.109375 2.140625 -1.109375q0.609375 0 1.109375 0.21875q0.515625 0.21875 0.765625 0.578125q0.265625 0.34375 0.359375 0.84375q0.0625 0.3125 0.0625 1.109375l0 4.140625l-1.140625 0l0 -4.09375q0 -0.703125 -0.140625 -1.046875q-0.125 -0.34375 -0.46875 -0.546875q-0.328125 -0.21875 -0.78125 -0.21875q-0.734375 0 -1.265625 0.46875q-0.53125 0.453125 -0.53125 1.75l0 3.6875l-1.140625 0zm10.240448 0l3.578125 -9.3125l1.3125 0l3.8125 9.3125l-1.40625 0l-1.078125 -2.8125l-3.890625 0l-1.03125 2.8125l-1.296875 0zm2.6875 -3.828125l3.15625 0l-0.984375 -2.578125q-0.4375 -1.171875 -0.65625 -1.921875q-0.171875 0.890625 -0.5 1.78125l-1.015625 2.71875zm7.2178955 3.828125l0 -9.3125l3.515625 0q0.921875 0 1.40625 0.09375q0.6875 0.109375 1.15625 0.4375q0.46875 0.3125 0.75 0.890625q0.28125 0.578125 0.28125 1.28125q0 1.1875 -0.765625 2.015625q-0.75 0.8125 -2.71875 0.8125l-2.390625 0l0 3.78125l-1.234375 0zm1.234375 -4.875l2.40625 0q1.1875 0 1.6875 -0.4375q0.515625 -0.453125 0.515625 -1.265625q0 -0.578125 -0.296875 -0.984375q-0.296875 -0.421875 -0.78125 -0.5625q-0.3125 -0.078125 -1.15625 -0.078125l-2.375 0l0 3.328125zm7.874115 4.875l0 -9.3125l1.21875 0l0 9.3125l-1.21875 0z" fill-rule="nonzero"></path><path fill="#cccccc" d="m547.90155 374.83597l0 0c0 -11.793671 9.560669 -21.35434 21.35437 -21.35434c11.79364 0 21.35431 9.560669 21.35431 21.35434c0 11.793671 -9.560669 21.35431 -21.35431 21.35431c-11.793701 0 -21.35437 -9.560638 -21.35437 -21.35431z" fill-rule="nonzero"></path><path fill="#a3a3a3" d="m560.1902 368.44943c0 -1.2285156 0.99591064 -2.2243958 2.2244263 -2.2243958c1.2285156 0 2.2244263 0.9958801 2.2244263 2.2243958c0 1.2285156 -0.99591064 2.2243958 -2.2244263 2.2243958c-1.2285156 0 -2.2244263 -0.9958801 -2.2244263 -2.2243958m13.682617 0c0 -1.2285156 0.99591064 -2.2243958 2.2244263 -2.2243958c1.2284546 0 2.2243652 0.9958801 2.2243652 2.2243958c0 1.2285156 -0.99591064 2.2243958 -2.2243652 2.2243958c-1.2285156 0 -2.2244263 -0.9958801 -2.2244263 -2.2243958" fill-rule="nonzero"></path><path fill="#000000" fill-opacity="0.0" d="m557.6817 384.1487q11.574219 7.948944 23.121338 0" fill-rule="nonzero"></path><path fill="#000000" fill-opacity="0.0" d="m547.90155 374.83597l0 0c0 -11.793671 9.560669 -21.35434 21.35437 -21.35434c11.79364 0 21.35431 9.560669 21.35431 21.35434c0 11.793671 -9.560669 21.35431 -21.35431 21.35431c-11.793701 0 -21.35437 -9.560638 -21.35437 -21.35431z" fill-rule="nonzero"></path><path stroke="#666666" stroke-width="2.0" stroke-linejoin="round" stroke-linecap="butt" d="m560.1902 368.44943c0 -1.2285156 0.99591064 -2.2243958 2.2244263 -2.2243958c1.2285156 0 2.2244263 0.9958801 2.2244263 2.2243958c0 1.2285156 -0.99591064 2.2243958 -2.2244263 2.2243958c-1.2285156 0 -2.2244263 -0.9958801 -2.2244263 -2.2243958m13.682617 0c0 -1.2285156 0.99591064 -2.2243958 2.2244263 -2.2243958c1.2284546 0 2.2243652 0.9958801 2.2243652 2.2243958c0 1.2285156 -0.99591064 2.2243958 -2.2243652 2.2243958c-1.2285156 0 -2.2244263 -0.9958801 -2.2244263 -2.2243958" fill-rule="nonzero"></path><path stroke="#666666" stroke-width="2.0" stroke-linejoin="round" stroke-linecap="butt" d="m557.6817 384.1487q11.574219 7.948944 23.121338 0" fill-rule="nonzero"></path><path stroke="#666666" stroke-width="2.0" stroke-linejoin="round" stroke-linecap="butt" d="m547.90155 374.83597l0 0c0 -11.793671 9.560669 -21.35434 21.35437 -21.35434c11.79364 0 21.35431 9.560669 21.35431 21.35434c0 11.793671 -9.560669 21.35431 -21.35431 21.35431c-11.793701 0 -21.35437 -9.560638 -21.35437 -21.35431z" fill-rule="nonzero"></path><path fill="#000000" fill-opacity="0.0" d="m541.8228 390.20078l54.86615 0l0 20.157501l-54.86615 0z" fill-rule="nonzero"></path><path fill="#000000" d="m558.46344 408.73517l1.234375 0.3125q-0.390625 1.515625 -1.40625 2.3125q-1.0 0.796875 -2.453125 0.796875q-1.5 0 -2.453125 -0.609375q-0.9375 -0.609375 -1.4375 -1.765625q-0.484375 -1.171875 -0.484375 -2.5q0 -1.453125 0.5625 -2.53125q0.5625 -1.09375 1.578125 -1.65625q1.03125 -0.5625 2.265625 -0.5625q1.390625 0 2.34375 0.71875q0.953125 0.703125 1.328125 2.0l-1.21875 0.28125q-0.328125 -1.015625 -0.9375 -1.46875q-0.609375 -0.46875 -1.546875 -0.46875q-1.078125 0 -1.796875 0.515625q-0.71875 0.515625 -1.015625 1.375q-0.28125 0.859375 -0.28125 1.78125q0 1.1875 0.34375 2.078125q0.34375 0.890625 1.0625 1.328125q0.734375 0.4375 1.59375 0.4375q1.03125 0 1.75 -0.59375q0.71875 -0.609375 0.96875 -1.78125zm2.812683 3.265625l0 -9.3125l1.140625 0l0 9.3125l-1.140625 0zm2.9923096 -7.984375l0 -1.328125l1.140625 0l0 1.328125l-1.140625 0zm0 7.984375l0 -6.734375l1.140625 0l0 6.734375l-1.140625 0zm7.5704956 -2.171875l1.1875 0.140625q-0.28125 1.046875 -1.046875 1.625q-0.75 0.5625 -1.921875 0.5625q-1.484375 0 -2.359375 -0.90625q-0.859375 -0.921875 -0.859375 -2.5625q0 -1.703125 0.875 -2.640625q0.890625 -0.9375 2.28125 -0.9375q1.359375 0 2.203125 0.921875q0.859375 0.921875 0.859375 2.578125q0 0.109375 0 0.3125l-5.03125 0q0.0625 1.109375 0.625 1.703125q0.5625 0.59375 1.40625 0.59375q0.640625 0 1.078125 -0.328125q0.453125 -0.34375 0.703125 -1.0625zm-3.75 -1.84375l3.765625 0q-0.078125 -0.859375 -0.4375 -1.28125q-0.546875 -0.65625 -1.40625 -0.65625q-0.796875 0 -1.328125 0.53125q-0.53125 0.515625 -0.59375 1.40625zm6.5531006 4.015625l0 -6.734375l1.03125 0l0 0.953125q0.734375 -1.109375 2.140625 -1.109375q0.609375 0 1.109375 0.21875q0.515625 0.21875 0.765625 0.578125q0.265625 0.34375 0.359375 0.84375q0.0625 0.3125 0.0625 1.109375l0 4.140625l-1.140625 0l0 -4.09375q0 -0.703125 -0.140625 -1.046875q-0.125 -0.34375 -0.46875 -0.546875q-0.328125 -0.21875 -0.78125 -0.21875q-0.734375 0 -1.265625 0.46875q-0.53125 0.453125 -0.53125 1.75l0 3.6875l-1.140625 0zm9.912476 -1.015625l0.15625 1.0q-0.484375 0.109375 -0.859375 0.109375q-0.625 0 -0.96875 -0.203125q-0.34375 -0.203125 -0.484375 -0.515625q-0.140625 -0.328125 -0.140625 -1.34375l0 -3.890625l-0.828125 0l0 -0.875l0.828125 0l0 -1.671875l1.140625 -0.6875l0 2.359375l1.15625 0l0 0.875l-1.15625 0l0 3.953125q0 0.484375 0.0625 0.625q0.0625 0.140625 0.1875 0.21875q0.140625 0.078125 0.390625 0.078125q0.203125 0 0.515625 -0.03125z" fill-rule="nonzero"></path><path fill="#cccccc" d="m615.0236 353.5971l0 0c0 -11.793671 9.560669 -21.35434 21.35431 -21.35434c11.793701 0 21.35437 9.560669 21.35437 21.35434c0 11.793671 -9.560669 21.35434 -21.35437 21.35434c-11.79364 0 -21.35431 -9.560669 -21.35431 -21.35434z" fill-rule="nonzero"></path><path fill="#a3a3a3" d="m627.31226 347.21057c0 -1.2284851 0.99591064 -2.2243958 2.2244263 -2.2243958c1.2284546 0 2.2243652 0.99591064 2.2243652 2.2243958c0 1.2285156 -0.99591064 2.2244263 -2.2243652 2.2244263c-1.2285156 0 -2.2244263 -0.99591064 -2.2244263 -2.2244263m13.682556 0c0 -1.2284851 0.99591064 -2.2243958 2.2244263 -2.2243958c1.2285156 0 2.2244263 0.99591064 2.2244263 2.2243958c0 1.2285156 -0.99591064 2.2244263 -2.2244263 2.2244263c-1.2285156 0 -2.2244263 -0.99591064 -2.2244263 -2.2244263" fill-rule="nonzero"></path><path fill="#000000" fill-opacity="0.0" d="m624.8038 362.90988q11.574158 7.948944 23.121338 0" fill-rule="nonzero"></path><path fill="#000000" fill-opacity="0.0" d="m615.0236 353.5971l0 0c0 -11.793671 9.560669 -21.35434 21.35431 -21.35434c11.793701 0 21.35437 9.560669 21.35437 21.35434c0 11.793671 -9.560669 21.35434 -21.35437 21.35434c-11.79364 0 -21.35431 -9.560669 -21.35431 -21.35434z" fill-rule="nonzero"></path><path stroke="#666666" stroke-width="2.0" stroke-linejoin="round" stroke-linecap="butt" d="m627.31226 347.21057c0 -1.2284851 0.99591064 -2.2243958 2.2244263 -2.2243958c1.2284546 0 2.2243652 0.99591064 2.2243652 2.2243958c0 1.2285156 -0.99591064 2.2244263 -2.2243652 2.2244263c-1.2285156 0 -2.2244263 -0.99591064 -2.2244263 -2.2244263m13.682556 0c0 -1.2284851 0.99591064 -2.2243958 2.2244263 -2.2243958c1.2285156 0 2.2244263 0.99591064 2.2244263 2.2243958c0 1.2285156 -0.99591064 2.2244263 -2.2244263 2.2244263c-1.2285156 0 -2.2244263 -0.99591064 -2.2244263 -2.2244263" fill-rule="nonzero"></path><path stroke="#666666" stroke-width="2.0" stroke-linejoin="round" stroke-linecap="butt" d="m624.8038 362.90988q11.574158 7.948944 23.121338 0" fill-rule="nonzero"></path><path stroke="#666666" stroke-width="2.0" stroke-linejoin="round" stroke-linecap="butt" d="m615.0236 353.5971l0 0c0 -11.793671 9.560669 -21.35434 21.35431 -21.35434c11.793701 0 21.35437 9.560669 21.35437 21.35434c0 11.793671 -9.560669 21.35434 -21.35437 21.35434c-11.79364 0 -21.35431 -9.560669 -21.35431 -21.35434z" fill-rule="nonzero"></path><path fill="#000000" fill-opacity="0.0" d="m608.9449 368.96194l54.86615 0l0 20.15747l-54.86615 0z" fill-rule="nonzero"></path><path fill="#000000" d="m625.5855 387.4963l1.234375 0.3125q-0.390625 1.515625 -1.40625 2.3125q-1.0 0.796875 -2.453125 0.796875q-1.5 0 -2.453125 -0.609375q-0.9375 -0.609375 -1.4375 -1.765625q-0.484375 -1.171875 -0.484375 -2.5q0 -1.453125 0.5625 -2.53125q0.5625 -1.09375 1.578125 -1.65625q1.03125 -0.5625 2.265625 -0.5625q1.390625 0 2.34375 0.71875q0.953125 0.703125 1.328125 2.0l-1.21875 0.28125q-0.328125 -1.015625 -0.9375 -1.46875q-0.609375 -0.46875 -1.546875 -0.46875q-1.078125 0 -1.796875 0.515625q-0.71875 0.515625 -1.015625 1.375q-0.28125 0.859375 -0.28125 1.78125q0 1.1875 0.34375 2.078125q0.34375 0.890625 1.0625 1.328125q0.734375 0.4375 1.59375 0.4375q1.03125 0 1.75 -0.59375q0.71875 -0.609375 0.96875 -1.78125zm2.812622 3.265625l0 -9.3125l1.140625 0l0 9.3125l-1.140625 0zm2.9923706 -7.984375l0 -1.328125l1.140625 0l0 1.328125l-1.140625 0zm0 7.984375l0 -6.734375l1.140625 0l0 6.734375l-1.140625 0zm7.5704346 -2.171875l1.1875 0.140625q-0.28125 1.046875 -1.046875 1.625q-0.75 0.5625 -1.921875 0.5625q-1.484375 0 -2.359375 -0.90625q-0.859375 -0.921875 -0.859375 -2.5625q0 -1.703125 0.875 -2.640625q0.890625 -0.9375 2.28125 -0.9375q1.359375 0 2.203125 0.921875q0.859375 0.921875 0.859375 2.578125q0 0.109375 0 0.3125l-5.03125 0q0.0625 1.109375 0.625 1.703125q0.5625 0.59375 1.40625 0.59375q0.640625 0 1.078125 -0.328125q0.453125 -0.34375 0.703125 -1.0625zm-3.75 -1.84375l3.765625 0q-0.078125 -0.859375 -0.4375 -1.28125q-0.546875 -0.65625 -1.40625 -0.65625q-0.796875 0 -1.328125 0.53125q-0.53125 0.515625 -0.59375 1.40625zm6.5531006 4.015625l0 -6.734375l1.03125 0l0 0.953125q0.734375 -1.109375 2.140625 -1.109375q0.609375 0 1.109375 0.21875q0.515625 0.21875 0.765625 0.578125q0.265625 0.34375 0.359375 0.84375q0.0625 0.3125 0.0625 1.109375l0 4.140625l-1.140625 0l0 -4.09375q0 -0.703125 -0.140625 -1.046875q-0.125 -0.34375 -0.46875 -0.546875q-0.328125 -0.21875 -0.78125 -0.21875q-0.734375 0 -1.265625 0.46875q-0.53125 0.453125 -0.53125 1.75l0 3.6875l-1.140625 0zm9.912476 -1.015625l0.15625 1.0q-0.484375 0.109375 -0.859375 0.109375q-0.625 0 -0.96875 -0.203125q-0.34375 -0.203125 -0.484375 -0.515625q-0.140625 -0.328125 -0.140625 -1.34375l0 -3.890625l-0.828125 0l0 -0.875l0.828125 0l0 -1.671875l1.140625 -0.6875l0 2.359375l1.15625 0l0 0.875l-1.15625 0l0 3.953125q0 0.484375 0.0625 0.625q0.0625 0.140625 0.1875 0.21875q0.140625 0.078125 0.390625 0.078125q0.203125 0 0.515625 -0.03125z" fill-rule="nonzero"></path><path fill="#cccccc" d="m688.3018 327.8386l0 0c0 -11.793671 9.560669 -21.35434 21.35437 -21.35434c11.79364 0 21.35431 9.560669 21.35431 21.35434c0 11.793671 -9.560669 21.35431 -21.35431 21.35431c-11.793701 0 -21.35437 -9.560638 -21.35437 -21.35431z" fill-rule="nonzero"></path><path fill="#a3a3a3" d="m700.59045 321.45206c0 -1.2285156 0.99591064 -2.2243958 2.2244263 -2.2243958c1.2285156 0 2.2244263 0.9958801 2.2244263 2.2243958c0 1.2285156 -0.99591064 2.2243958 -2.2244263 2.2243958c-1.2285156 0 -2.2244263 -0.9958801 -2.2244263 -2.2243958m13.682617 0c0 -1.2285156 0.99591064 -2.2243958 2.2243652 -2.2243958c1.2285156 0 2.2244263 0.9958801 2.2244263 2.2243958c0 1.2285156 -0.99591064 2.2243958 -2.2244263 2.2243958c-1.2284546 0 -2.2243652 -0.9958801 -2.2243652 -2.2243958" fill-rule="nonzero"></path><path fill="#000000" fill-opacity="0.0" d="m698.082 337.15134q11.574219 7.948944 23.121338 0" fill-rule="nonzero"></path><path fill="#000000" fill-opacity="0.0" d="m688.3018 327.8386l0 0c0 -11.793671 9.560669 -21.35434 21.35437 -21.35434c11.79364 0 21.35431 9.560669 21.35431 21.35434c0 11.793671 -9.560669 21.35431 -21.35431 21.35431c-11.793701 0 -21.35437 -9.560638 -21.35437 -21.35431z" fill-rule="nonzero"></path><path stroke="#666666" stroke-width="2.0" stroke-linejoin="round" stroke-linecap="butt" d="m700.59045 321.45206c0 -1.2285156 0.99591064 -2.2243958 2.2244263 -2.2243958c1.2285156 0 2.2244263 0.9958801 2.2244263 2.2243958c0 1.2285156 -0.99591064 2.2243958 -2.2244263 2.2243958c-1.2285156 0 -2.2244263 -0.9958801 -2.2244263 -2.2243958m13.682617 0c0 -1.2285156 0.99591064 -2.2243958 2.2243652 -2.2243958c1.2285156 0 2.2244263 0.9958801 2.2244263 2.2243958c0 1.2285156 -0.99591064 2.2243958 -2.2244263 2.2243958c-1.2284546 0 -2.2243652 -0.9958801 -2.2243652 -2.2243958" fill-rule="nonzero"></path><path stroke="#666666" stroke-width="2.0" stroke-linejoin="round" stroke-linecap="butt" d="m698.082 337.15134q11.574219 7.948944 23.121338 0" fill-rule="nonzero"></path><path stroke="#666666" stroke-width="2.0" stroke-linejoin="round" stroke-linecap="butt" d="m688.3018 327.8386l0 0c0 -11.793671 9.560669 -21.35434 21.35437 -21.35434c11.79364 0 21.35431 9.560669 21.35431 21.35434c0 11.793671 -9.560669 21.35431 -21.35431 21.35431c-11.793701 0 -21.35437 -9.560638 -21.35437 -21.35431z" fill-rule="nonzero"></path><path fill="#000000" fill-opacity="0.0" d="m682.2231 343.2034l54.86615 0l0 20.157501l-54.86615 0z" fill-rule="nonzero"></path><path fill="#000000" d="m698.8637 361.7378l1.234375 0.3125q-0.390625 1.515625 -1.40625 2.3125q-1.0 0.796875 -2.453125 0.796875q-1.5 0 -2.453125 -0.609375q-0.9375 -0.609375 -1.4375 -1.765625q-0.484375 -1.171875 -0.484375 -2.5q0 -1.453125 0.5625 -2.53125q0.5625 -1.09375 1.578125 -1.65625q1.03125 -0.5625 2.265625 -0.5625q1.390625 0 2.34375 0.71875q0.953125 0.703125 1.328125 2.0l-1.21875 0.28125q-0.328125 -1.015625 -0.9375 -1.46875q-0.609375 -0.46875 -1.546875 -0.46875q-1.078125 0 -1.796875 0.515625q-0.71875 0.515625 -1.015625 1.375q-0.28125 0.859375 -0.28125 1.78125q0 1.1875 0.34375 2.078125q0.34375 0.890625 1.0625 1.328125q0.734375 0.4375 1.59375 0.4375q1.03125 0 1.75 -0.59375q0.71875 -0.609375 0.96875 -1.78125zm2.812683 3.265625l0 -9.3125l1.140625 0l0 9.3125l-1.140625 0zm2.9923096 -7.984375l0 -1.328125l1.140625 0l0 1.328125l-1.140625 0zm0 7.984375l0 -6.734375l1.140625 0l0 6.734375l-1.140625 0zm7.5704956 -2.171875l1.1875 0.140625q-0.28125 1.046875 -1.046875 1.625q-0.75 0.5625 -1.921875 0.5625q-1.484375 0 -2.359375 -0.90625q-0.859375 -0.921875 -0.859375 -2.5625q0 -1.703125 0.875 -2.640625q0.890625 -0.9375 2.28125 -0.9375q1.359375 0 2.203125 0.921875q0.859375 0.921875 0.859375 2.578125q0 0.109375 0 0.3125l-5.03125 0q0.0625 1.109375 0.625 1.703125q0.5625 0.59375 1.40625 0.59375q0.640625 0 1.078125 -0.328125q0.453125 -0.34375 0.703125 -1.0625zm-3.75 -1.84375l3.765625 0q-0.078125 -0.859375 -0.4375 -1.28125q-0.546875 -0.65625 -1.40625 -0.65625q-0.796875 0 -1.328125 0.53125q-0.53125 0.515625 -0.59375 1.40625zm6.5531006 4.015625l0 -6.734375l1.03125 0l0 0.953125q0.734375 -1.109375 2.140625 -1.109375q0.609375 0 1.109375 0.21875q0.515625 0.21875 0.765625 0.578125q0.265625 0.34375 0.359375 0.84375q0.0625 0.3125 0.0625 1.109375l0 4.140625l-1.140625 0l0 -4.09375q0 -0.703125 -0.140625 -1.046875q-0.125 -0.34375 -0.46875 -0.546875q-0.328125 -0.21875 -0.78125 -0.21875q-0.734375 0 -1.265625 0.46875q-0.53125 0.453125 -0.53125 1.75l0 3.6875l-1.140625 0zm9.912476 -1.015625l0.15625 1.0q-0.484375 0.109375 -0.859375 0.109375q-0.625 0 -0.96875 -0.203125q-0.34375 -0.203125 -0.484375 -0.515625q-0.140625 -0.328125 -0.140625 -1.34375l0 -3.890625l-0.828125 0l0 -0.875l0.828125 0l0 -1.671875l1.140625 -0.6875l0 2.359375l1.15625 0l0 0.875l-1.15625 0l0 3.953125q0 0.484375 0.0625 0.625q0.0625 0.140625 0.1875 0.21875q0.140625 0.078125 0.390625 0.078125q0.203125 0 0.515625 -0.03125z" fill-rule="nonzero"></path><path fill="#000000" fill-opacity="0.0" d="m318.05847 306.48425l79.765686 -62.65355" fill-rule="nonzero"></path><path stroke="#666666" stroke-width="2.0" stroke-linejoin="round" stroke-linecap="butt" d="m327.49542 299.0718l60.891785 -47.82866" fill-rule="evenodd"></path><path fill="#666666" stroke="#666666" stroke-width="2.0" stroke-linecap="butt" d="m325.45486 296.47394l-5.0970764 8.204285l9.178192 -3.0085144z" fill-rule="evenodd"></path><path fill="#666666" stroke="#666666" stroke-width="2.0" stroke-linecap="butt" d="m390.42776 253.84102l5.0970764 -8.204269l-9.178192 3.0085144z" fill-rule="evenodd"></path><path fill="#000000" fill-opacity="0.0" d="m470.1047 382.77692l-0.2805481 -128.86746" fill-rule="nonzero"></path><path stroke="#666666" stroke-width="2.0" stroke-linejoin="round" stroke-linecap="butt" d="m470.07858 370.77695l-0.228302 -104.86752" fill-rule="evenodd"></path><path fill="#666666" stroke="#666666" stroke-width="2.0" stroke-linecap="butt" d="m466.77512 370.78412l3.3232117 9.069l3.2836914 -9.083374z" fill-rule="evenodd"></path><path fill="#666666" stroke="#666666" stroke-width="2.0" stroke-linecap="butt" d="m473.15372 265.90222l-3.3232117 -9.06897l-3.2836914 9.083374z" fill-rule="evenodd"></path><path fill="#000000" fill-opacity="0.0" d="m554.1561 359.73618l-57.700806 -102.96063" fill-rule="nonzero"></path><path stroke="#666666" stroke-width="2.0" stroke-linejoin="round" stroke-linecap="butt" d="m548.28955 349.26797l-45.96765 -82.02423" fill-rule="evenodd"></path><path fill="#666666" stroke="#666666" stroke-width="2.0" stroke-linecap="butt" d="m545.4078 350.88297l7.3189697 6.302643l-1.5554199 -9.532654z" fill-rule="evenodd"></path><path fill="#666666" stroke="#666666" stroke-width="2.0" stroke-linecap="butt" d="m505.20367 265.62875l-7.318939 -6.302643l1.5553894 9.532623z" fill-rule="evenodd"></path><path fill="#000000" fill-opacity="0.0" d="m621.27814 338.4973l-104.66138 -81.00787" fill-rule="nonzero"></path><path stroke="#666666" stroke-width="2.0" stroke-linejoin="round" stroke-linecap="butt" d="m611.7886 331.1524l-85.68225 -66.318054" fill-rule="evenodd"></path><path fill="#666666" stroke="#666666" stroke-width="2.0" stroke-linecap="butt" d="m609.7666 333.76477l9.199463 2.9429626l-5.1555176 -8.167725z" fill-rule="evenodd"></path><path fill="#666666" stroke="#666666" stroke-width="2.0" stroke-linecap="butt" d="m528.1283 262.222l-9.199402 -2.9429626l5.1554565 8.167725z" fill-rule="evenodd"></path><path fill="#000000" fill-opacity="0.0" d="m694.5564 312.7388l-152.73224 -68.9081" fill-rule="nonzero"></path><path stroke="#666666" stroke-width="2.0" stroke-linejoin="round" stroke-linecap="butt" d="m683.61804 307.80377l-130.85559 -59.03804" fill-rule="evenodd"></path><path fill="#666666" stroke="#666666" stroke-width="2.0" stroke-linecap="butt" d="m682.2595 310.81494l9.631714 0.72143555l-6.914612 -6.7437744z" fill-rule="evenodd"></path><path fill="#666666" stroke="#666666" stroke-width="2.0" stroke-linecap="butt" d="m554.121 245.75453l-9.631714 -0.721405l6.914612 6.7437744z" fill-rule="evenodd"></path><path fill="#cccccc" d="m434.48294 64.08705l0 0c0 -5.2353516 15.819275 -9.479439 35.333344 -9.479439c19.514038 0 35.333313 4.244087 35.333313 9.479439l0 37.917763c0 5.2353516 -15.819275 9.479439 -35.333313 9.479439c-19.514069 0 -35.333344 -4.244087 -35.333344 -9.479439z" fill-rule="nonzero"></path><path fill="#000000" fill-opacity="0.0" d="m505.1496 64.08705l0 0c0 5.2353516 -15.819275 9.479439 -35.333313 9.479439c-19.514069 0 -35.333344 -4.244087 -35.333344 -9.479439" fill-rule="nonzero"></path><path fill="#000000" fill-opacity="0.0" d="m434.48294 64.08705l0 0c0 -5.2353516 15.819275 -9.479439 35.333344 -9.479439c19.514038 0 35.333313 4.244087 35.333313 9.479439l0 37.917763c0 5.2353516 -15.819275 9.479439 -35.333313 9.479439c-19.514069 0 -35.333344 -4.244087 -35.333344 -9.479439z" fill-rule="nonzero"></path><path stroke="#666666" stroke-width="2.0" stroke-linejoin="round" stroke-linecap="butt" d="m505.1496 64.08705l0 0c0 5.2353516 -15.819275 9.479439 -35.333313 9.479439c-19.514069 0 -35.333344 -4.244087 -35.333344 -9.479439" fill-rule="nonzero"></path><path stroke="#666666" stroke-width="2.0" stroke-linejoin="round" stroke-linecap="butt" d="m434.48294 64.08705l0 0c0 -5.2353516 15.819275 -9.479439 35.333344 -9.479439c19.514038 0 35.333313 4.244087 35.333313 9.479439l0 37.917763c0 5.2353516 -15.819275 9.479439 -35.333313 9.479439c-19.514069 0 -35.333344 -4.244087 -35.333344 -9.479439z" fill-rule="nonzero"></path><path fill="#000000" d="m458.32675 94.70565l0 -13.59375l4.6875 0q1.578125 0 2.421875 0.1875q1.15625 0.265625 1.984375 0.96875q1.078125 0.921875 1.609375 2.34375q0.53125 1.40625 0.53125 3.21875q0 1.546875 -0.359375 2.75q-0.359375 1.1875 -0.921875 1.984375q-0.5625 0.78125 -1.234375 1.234375q-0.671875 0.4375 -1.625 0.671875q-0.953125 0.234375 -2.1875 0.234375l-4.90625 0zm1.796875 -1.609375l2.90625 0q1.34375 0 2.109375 -0.25q0.765625 -0.25 1.21875 -0.703125q0.640625 -0.640625 1.0 -1.71875q0.359375 -1.078125 0.359375 -2.625q0 -2.125 -0.703125 -3.265625q-0.703125 -1.15625 -1.703125 -1.546875q-0.71875 -0.28125 -2.328125 -0.28125l-2.859375 0l0 10.390625zm11.597961 1.609375l0 -13.59375l5.109375 0q1.546875 0 2.484375 0.40625q0.953125 0.40625 1.484375 1.265625q0.53125 0.859375 0.53125 1.796875q0 0.875 -0.46875 1.65625q-0.46875 0.765625 -1.4375 1.234375q1.234375 0.359375 1.890625 1.234375q0.671875 0.875 0.671875 2.0625q0 0.953125 -0.40625 1.78125q-0.390625 0.8125 -0.984375 1.265625q-0.59375 0.4375 -1.5 0.671875q-0.890625 0.21875 -2.1875 0.21875l-5.1875 0zm1.796875 -7.890625l2.9375 0q1.203125 0 1.71875 -0.15625q0.6875 -0.203125 1.03125 -0.671875q0.359375 -0.46875 0.359375 -1.1875q0 -0.671875 -0.328125 -1.1875q-0.328125 -0.515625 -0.9375 -0.703125q-0.59375 -0.203125 -2.0625 -0.203125l-2.71875 0l0 4.109375zm0 6.28125l3.390625 0q0.875 0 1.21875 -0.0625q0.625 -0.109375 1.046875 -0.359375q0.421875 -0.265625 0.6875 -0.765625q0.265625 -0.5 0.265625 -1.140625q0 -0.765625 -0.390625 -1.328125q-0.390625 -0.5625 -1.078125 -0.78125q-0.6875 -0.234375 -1.984375 -0.234375l-3.15625 0l0 4.671875z" fill-rule="nonzero"></path><path fill="#000000" fill-opacity="0.0" d="m469.81628 159.57874l0 -48.094482" fill-rule="nonzero"></path><path stroke="#666666" stroke-width="2.0" stroke-linejoin="round" stroke-linecap="butt" d="m469.81628 147.57874l0 -24.094482" fill-rule="evenodd"></path><path fill="#666666" stroke="#666666" stroke-width="2.0" stroke-linecap="butt" d="m466.51282 147.57874l3.3034668 9.076202l3.3034668 -9.076202z" fill-rule="evenodd"></path><path fill="#666666" stroke="#666666" stroke-width="2.0" stroke-linecap="butt" d="m473.11975 123.48425l-3.3034668 -9.076195l-3.3034668 9.076195z" fill-rule="evenodd"></path><path fill="#cccccc" d="m561.7953 54.420383l0 0c0 -5.2353477 15.819275 -9.479439 35.333313 -9.479439c19.514038 0 35.333313 4.244091 35.333313 9.479439l0 37.91776c0 5.2353516 -15.819275 9.479446 -35.333313 9.479446c-19.514038 0 -35.333313 -4.244095 -35.333313 -9.479446z" fill-rule="nonzero"></path><path fill="#000000" fill-opacity="0.0" d="m632.4619 54.420383l0 0c0 5.2353516 -15.819275 9.479443 -35.333313 9.479443c-19.514038 0 -35.333313 -4.244091 -35.333313 -9.479443" fill-rule="nonzero"></path><path fill="#000000" fill-opacity="0.0" d="m561.7953 54.420383l0 0c0 -5.2353477 15.819275 -9.479439 35.333313 -9.479439c19.514038 0 35.333313 4.244091 35.333313 9.479439l0 37.91776c0 5.2353516 -15.819275 9.479446 -35.333313 9.479446c-19.514038 0 -35.333313 -4.244095 -35.333313 -9.479446z" fill-rule="nonzero"></path><path stroke="#666666" stroke-width="2.0" stroke-linejoin="round" stroke-linecap="butt" d="m632.4619 54.420383l0 0c0 5.2353516 -15.819275 9.479443 -35.333313 9.479443c-19.514038 0 -35.333313 -4.244091 -35.333313 -9.479443" fill-rule="nonzero"></path><path stroke="#666666" stroke-width="2.0" stroke-linejoin="round" stroke-linecap="butt" d="m561.7953 54.420383l0 0c0 -5.2353477 15.819275 -9.479439 35.333313 -9.479439c19.514038 0 35.333313 4.244091 35.333313 9.479439l0 37.91776c0 5.2353516 -15.819275 9.479446 -35.333313 9.479446c-19.514038 0 -35.333313 -4.244095 -35.333313 -9.479446z" fill-rule="nonzero"></path><path fill="#000000" d="m585.6391 85.03899l0 -13.59375l4.6875 0q1.578125 0 2.421875 0.1875q1.15625 0.265625 1.984375 0.96875q1.078125 0.921875 1.609375 2.34375q0.53125 1.40625 0.53125 3.21875q0 1.546875 -0.359375 2.75q-0.359375 1.1875 -0.921875 1.984375q-0.5625 0.78125 -1.234375 1.234375q-0.671875 0.4375 -1.625 0.671875q-0.953125 0.234375 -2.1875 0.234375l-4.90625 0zm1.796875 -1.609375l2.90625 0q1.34375 0 2.109375 -0.25q0.765625 -0.25 1.21875 -0.703125q0.640625 -0.640625 1.0 -1.71875q0.359375 -1.078125 0.359375 -2.625q0 -2.125 -0.703125 -3.265625q-0.703125 -1.15625 -1.703125 -1.546875q-0.71875 -0.28125 -2.328125 -0.28125l-2.859375 0l0 10.390625zm11.597961 1.609375l0 -13.59375l5.109375 0q1.546875 0 2.484375 0.40625q0.953125 0.40625 1.484375 1.265625q0.53125 0.859375 0.53125 1.796875q0 0.875 -0.46875 1.65625q-0.46875 0.765625 -1.4375 1.234375q1.234375 0.359375 1.890625 1.234375q0.671875 0.875 0.671875 2.0625q0 0.953125 -0.40625 1.78125q-0.390625 0.8125 -0.984375 1.265625q-0.59375 0.4375 -1.5 0.671875q-0.890625 0.21875 -2.1875 0.21875l-5.1875 0zm1.796875 -7.890625l2.9375 0q1.203125 0 1.71875 -0.15625q0.6875 -0.203125 1.03125 -0.671875q0.359375 -0.46875 0.359375 -1.1875q0 -0.671875 -0.328125 -1.1875q-0.328125 -0.515625 -0.9375 -0.703125q-0.59375 -0.203125 -2.0625 -0.203125l-2.71875 0l0 4.109375zm0 6.28125l3.390625 0q0.875 0 1.21875 -0.0625q0.625 -0.109375 1.046875 -0.359375q0.421875 -0.265625 0.6875 -0.765625q0.265625 -0.5 0.265625 -1.140625q0 -0.765625 -0.390625 -1.328125q-0.390625 -0.5625 -1.078125 -0.78125q-0.6875 -0.234375 -1.984375 -0.234375l-3.15625 0l0 4.671875z" fill-rule="nonzero"></path><path fill="#cccccc" d="m533.6142 92.525375l0 0c0 -5.2353516 15.819275 -9.479446 35.333313 -9.479446c19.514038 0 35.333313 4.244095 35.333313 9.479446l0 37.917755c0 5.2353516 -15.819275 9.479446 -35.333313 9.479446c-19.514038 0 -35.333313 -4.244095 -35.333313 -9.479446z" fill-rule="nonzero"></path><path fill="#000000" fill-opacity="0.0" d="m604.2808 92.525375l0 0c0 5.235344 -15.819275 9.479439 -35.333313 9.479439c-19.514038 0 -35.333313 -4.244095 -35.333313 -9.479439" fill-rule="nonzero"></path><path fill="#000000" fill-opacity="0.0" d="m533.6142 92.525375l0 0c0 -5.2353516 15.819275 -9.479446 35.333313 -9.479446c19.514038 0 35.333313 4.244095 35.333313 9.479446l0 37.917755c0 5.2353516 -15.819275 9.479446 -35.333313 9.479446c-19.514038 0 -35.333313 -4.244095 -35.333313 -9.479446z" fill-rule="nonzero"></path><path stroke="#666666" stroke-width="2.0" stroke-linejoin="round" stroke-linecap="butt" d="m604.2808 92.525375l0 0c0 5.235344 -15.819275 9.479439 -35.333313 9.479439c-19.514038 0 -35.333313 -4.244095 -35.333313 -9.479439" fill-rule="nonzero"></path><path stroke="#666666" stroke-width="2.0" stroke-linejoin="round" stroke-linecap="butt" d="m533.6142 92.525375l0 0c0 -5.2353516 15.819275 -9.479446 35.333313 -9.479446c19.514038 0 35.333313 4.244095 35.333313 9.479446l0 37.917755c0 5.2353516 -15.819275 9.479446 -35.333313 9.479446c-19.514038 0 -35.333313 -4.244095 -35.333313 -9.479446z" fill-rule="nonzero"></path><path fill="#000000" d="m557.458 123.14397l0 -13.59375l4.6875 0q1.578125 0 2.421875 0.1875q1.15625 0.265625 1.984375 0.96875q1.078125 0.921875 1.609375 2.34375q0.53125 1.40625 0.53125 3.21875q0 1.546875 -0.359375 2.75q-0.359375 1.1875 -0.921875 1.984375q-0.5625 0.78125 -1.234375 1.234375q-0.671875 0.4375 -1.625 0.671875q-0.953125 0.234375 -2.1875 0.234375l-4.90625 0zm1.796875 -1.609375l2.90625 0q1.34375 0 2.109375 -0.25q0.765625 -0.25 1.21875 -0.703125q0.640625 -0.640625 1.0 -1.71875q0.359375 -1.078125 0.359375 -2.625q0 -2.125 -0.703125 -3.265625q-0.703125 -1.15625 -1.703125 -1.546875q-0.71875 -0.28125 -2.328125 -0.28125l-2.859375 0l0 10.390625zm11.597961 1.609375l0 -13.59375l5.109375 0q1.546875 0 2.484375 0.40625q0.953125 0.40625 1.484375 1.265625q0.53125 0.859375 0.53125 1.796875q0 0.875 -0.46875 1.65625q-0.46875 0.765625 -1.4375 1.234375q1.234375 0.359375 1.890625 1.234375q0.671875 0.875 0.671875 2.0625q0 0.953125 -0.40625 1.78125q-0.390625 0.8125 -0.984375 1.265625q-0.59375 0.4375 -1.5 0.671875q-0.890625 0.21875 -2.1875 0.21875l-5.1875 0zm1.796875 -7.890625l2.9375 0q1.203125 0 1.71875 -0.15625q0.6875 -0.203125 1.03125 -0.671875q0.359375 -0.46875 0.359375 -1.1875q0 -0.671875 -0.328125 -1.1875q-0.328125 -0.515625 -0.9375 -0.703125q-0.59375 -0.203125 -2.0625 -0.203125l-2.71875 0l0 4.109375zm0 6.28125l3.390625 0q0.875 0 1.21875 -0.0625q0.625 -0.109375 1.046875 -0.359375q0.421875 -0.265625 0.6875 -0.765625q0.265625 -0.5 0.265625 -1.140625q0 -0.765625 -0.390625 -1.328125q-0.390625 -0.5625 -1.078125 -0.78125q-0.6875 -0.234375 -1.984375 -0.234375l-3.15625 0l0 4.671875z" fill-rule="nonzero"></path><path fill="#cccccc" d="m331.99213 44.75372l0 0c0 -5.2353516 15.819275 -9.479443 35.333344 -9.479443c19.514038 0 35.333313 4.244091 35.333313 9.479443l0 37.91776c0 5.2353516 -15.819275 9.479439 -35.333313 9.479439c-19.514069 0 -35.333344 -4.244087 -35.333344 -9.479439z" fill-rule="nonzero"></path><path fill="#000000" fill-opacity="0.0" d="m402.65878 44.75372l0 0c0 5.2353477 -15.819275 9.479439 -35.333313 9.479439c-19.514069 0 -35.333344 -4.244091 -35.333344 -9.479439" fill-rule="nonzero"></path><path fill="#000000" fill-opacity="0.0" d="m331.99213 44.75372l0 0c0 -5.2353516 15.819275 -9.479443 35.333344 -9.479443c19.514038 0 35.333313 4.244091 35.333313 9.479443l0 37.91776c0 5.2353516 -15.819275 9.479439 -35.333313 9.479439c-19.514069 0 -35.333344 -4.244087 -35.333344 -9.479439z" fill-rule="nonzero"></path><path stroke="#666666" stroke-width="2.0" stroke-linejoin="round" stroke-linecap="butt" d="m402.65878 44.75372l0 0c0 5.2353477 -15.819275 9.479439 -35.333313 9.479439c-19.514069 0 -35.333344 -4.244091 -35.333344 -9.479439" fill-rule="nonzero"></path><path stroke="#666666" stroke-width="2.0" stroke-linejoin="round" stroke-linecap="butt" d="m331.99213 44.75372l0 0c0 -5.2353516 15.819275 -9.479443 35.333344 -9.479443c19.514038 0 35.333313 4.244091 35.333313 9.479443l0 37.91776c0 5.2353516 -15.819275 9.479439 -35.333313 9.479439c-19.514069 0 -35.333344 -4.244087 -35.333344 -9.479439z" fill-rule="nonzero"></path><path fill="#000000" d="m355.83594 75.372314l0 -13.593746l4.6875 0q1.578125 0 2.421875 0.1875q1.15625 0.265625 1.984375 0.96875q1.078125 0.921875 1.609375 2.3437462q0.53125 1.40625 0.53125 3.21875q0 1.546875 -0.359375 2.75q-0.359375 1.1875 -0.921875 1.984375q-0.5625 0.78125 -1.234375 1.234375q-0.671875 0.4375 -1.625 0.671875q-0.953125 0.234375 -2.1875 0.234375l-4.90625 0zm1.796875 -1.609375l2.90625 0q1.34375 0 2.109375 -0.25q0.765625 -0.25 1.21875 -0.703125q0.640625 -0.640625 1.0 -1.71875q0.359375 -1.078125 0.359375 -2.625q0 -2.125 -0.703125 -3.265625q-0.703125 -1.15625 -1.703125 -1.5468712q-0.71875 -0.28125 -2.328125 -0.28125l-2.859375 0l0 10.390621zm11.597961 1.609375l0 -13.593746l5.109375 0q1.546875 0 2.484375 0.40625q0.953125 0.40625 1.484375 1.265625q0.53125 0.8593712 0.53125 1.7968712q0 0.875 -0.46875 1.65625q-0.46875 0.765625 -1.4375 1.234375q1.234375 0.359375 1.890625 1.234375q0.671875 0.875 0.671875 2.0625q0 0.953125 -0.40625 1.78125q-0.390625 0.8125 -0.984375 1.265625q-0.59375 0.4375 -1.5 0.671875q-0.890625 0.21875 -2.1875 0.21875l-5.1875 0zm1.796875 -7.890625l2.9375 0q1.203125 0 1.71875 -0.15625q0.6875 -0.203125 1.03125 -0.671875q0.359375 -0.46875 0.359375 -1.1875q0 -0.671875 -0.328125 -1.1875q-0.328125 -0.5156212 -0.9375 -0.7031212q-0.59375 -0.203125 -2.0625 -0.203125l-2.71875 0l0 4.109371zm0 6.28125l3.390625 0q0.875 0 1.21875 -0.0625q0.625 -0.109375 1.046875 -0.359375q0.421875 -0.265625 0.6875 -0.765625q0.265625 -0.5 0.265625 -1.140625q0 -0.765625 -0.390625 -1.328125q-0.390625 -0.5625 -1.078125 -0.78125q-0.6875 -0.234375 -1.984375 -0.234375l-3.15625 0l0 4.671875z" fill-rule="nonzero"></path><path fill="#000000" fill-opacity="0.0" d="m402.65878 63.712597l31.824158 19.333332" fill-rule="nonzero"></path><path stroke="#666666" stroke-width="2.0" stroke-linejoin="round" stroke-linecap="butt" d="m412.91458 69.943054l11.312561 6.8724213" fill-rule="evenodd"></path><path fill="#666666" stroke="#666666" stroke-width="2.0" stroke-linecap="butt" d="m414.62976 67.11974l-9.472137 -1.8890915l6.041809 7.5357056z" fill-rule="evenodd"></path><path fill="#666666" stroke="#666666" stroke-width="2.0" stroke-linecap="butt" d="m422.51196 79.63879l9.472137 1.8890915l-6.0417786 -7.5357056z" fill-rule="evenodd"></path><path fill="#000000" fill-opacity="0.0" d="m505.1496 83.04593l56.64569 -9.666664" fill-rule="nonzero"></path><path stroke="#666666" stroke-width="2.0" stroke-linejoin="round" stroke-linecap="butt" d="m516.9786 81.0273l32.987732 -5.629402" fill-rule="evenodd"></path><path fill="#666666" stroke="#666666" stroke-width="2.0" stroke-linecap="butt" d="m516.4229 77.770905l-8.391174 4.783188l9.502563 1.7295914z" fill-rule="evenodd"></path><path fill="#666666" stroke="#666666" stroke-width="2.0" stroke-linecap="butt" d="m550.522 78.65429l8.391174 -4.78318l-9.502563 -1.729599z" fill-rule="evenodd"></path><path fill="#000000" fill-opacity="0.0" d="m505.1496 83.04593l28.4646 28.438324" fill-rule="nonzero"></path><path stroke="#666666" stroke-width="2.0" stroke-linejoin="round" stroke-linecap="butt" d="m513.6388 91.527306l11.486145 11.475578" fill-rule="evenodd"></path><path fill="#666666" stroke="#666666" stroke-width="2.0" stroke-linecap="butt" d="m515.97363 89.190315l-8.755646 -4.077896l4.0859985 8.751862z" fill-rule="evenodd"></path><path fill="#666666" stroke="#666666" stroke-width="2.0" stroke-linecap="butt" d="m522.79016 105.33987l8.755615 4.077896l-4.0859985 -8.751854z" fill-rule="evenodd"></path></g></svg>

