<?xml version="1.0" standalone="yes"?>

<svg version="1.1" viewBox="0.0 0.0 960.0 540.0" fill="none" stroke="none" stroke-linecap="square" stroke-miterlimit="10" xmlns="http://www.w3.org/2000/svg" xmlns:xlink="http://www.w3.org/1999/xlink"><clipPath id="g1cb649d69_042.0"><path d="m0 0l960.0 0l0 540.0l-960.0 0l0 -540.0z" clip-rule="nonzero"></path></clipPath><g clip-path="url(#g1cb649d69_042.0)"><path fill="#000000" fill-opacity="0.0" d="m0 0l960.0 0l0 540.0l-960.0 0z" fill-rule="nonzero"></path><path fill="#cccccc" d="m274.00336 441.75854l0 0c0 -5.566345 4.5124207 -10.078766 10.078735 -10.078766l0 0c2.6730652 0 5.2366333 1.0618896 7.12677 2.9519958c1.8901062 1.8901367 2.9519958 4.453705 2.9519958 7.12677l0 0c0 5.5663147 -4.5124207 10.078735 -10.078766 10.078735l0 0c-5.5663147 0 -10.078735 -4.5124207 -10.078735 -10.078735z" fill-rule="nonzero"></path><path stroke="#666666" stroke-width="2.0" stroke-linejoin="round" stroke-linecap="butt" d="m274.00336 441.75854l0 0c0 -5.566345 4.5124207 -10.078766 10.078735 -10.078766l0 0c2.6730652 0 5.2366333 1.0618896 7.12677 2.9519958c1.8901062 1.8901367 2.9519958 4.453705 2.9519958 7.12677l0 0c0 5.5663147 -4.5124207 10.078735 -10.078766 10.078735l0 0c-5.5663147 0 -10.078735 -4.5124207 -10.078735 -10.078735z" fill-rule="nonzero"></path><path fill="#cccccc" d="m310.16348 441.75854l0 0c0 -5.566345 4.51239 -10.078766 10.078735 -10.078766l0 0c2.6730347 0 5.236603 1.0618896 7.1267395 2.9519958c1.8901367 1.8901367 2.9519958 4.453705 2.9519958 7.12677l0 0c0 5.5663147 -4.5124207 10.078735 -10.078735 10.078735l0 0c-5.566345 0 -10.078735 -4.5124207 -10.078735 -10.078735z" fill-rule="nonzero"></path><path stroke="#666666" stroke-width="2.0" stroke-linejoin="round" stroke-linecap="butt" d="m310.16348 441.75854l0 0c0 -5.566345 4.51239 -10.078766 10.078735 -10.078766l0 0c2.6730347 0 5.236603 1.0618896 7.1267395 2.9519958c1.8901367 1.8901367 2.9519958 4.453705 2.9519958 7.12677l0 0c0 5.5663147 -4.5124207 10.078735 -10.078735 10.078735l0 0c-5.566345 0 -10.078735 -4.5124207 -10.078735 -10.078735z" fill-rule="nonzero"></path><path fill="#cccccc" d="m346.32358 441.75854l0 0c0 -5.566345 4.51239 -10.078766 10.078735 -10.078766l0 0c2.6730347 0 5.236603 1.0618896 7.1267395 2.9519958c1.8901367 1.8901367 2.9519958 4.453705 2.9519958 7.12677l0 0c0 5.5663147 -4.51239 10.078735 -10.078735 10.078735l0 0c-5.566345 0 -10.078735 -4.5124207 -10.078735 -10.078735z" fill-rule="nonzero"></path><path stroke="#666666" stroke-width="2.0" stroke-linejoin="round" stroke-linecap="butt" d="m346.32358 441.75854l0 0c0 -5.566345 4.51239 -10.078766 10.078735 -10.078766l0 0c2.6730347 0 5.236603 1.0618896 7.1267395 2.9519958c1.8901367 1.8901367 2.9519958 4.453705 2.9519958 7.12677l0 0c0 5.5663147 -4.51239 10.078735 -10.078735 10.078735l0 0c-5.566345 0 -10.078735 -4.5124207 -10.078735 -10.078735z" fill-rule="nonzero"></path><path fill="#cccccc" d="m110.16084 441.75854l0 0c0 -5.566345 4.5124054 -10.078766 10.078743 -10.078766l0 0c2.67305 0 5.2366104 1.0618896 7.126747 2.9519958c1.8901215 1.8901367 2.9519958 4.453705 2.9519958 7.12677l0 0c0 5.5663147 -4.512413 10.078735 -10.078743 10.078735l0 0c-5.5663376 0 -10.078743 -4.5124207 -10.078743 -10.078735z" fill-rule="nonzero"></path><path stroke="#666666" stroke-width="2.0" stroke-linejoin="round" stroke-linecap="butt" d="m110.16084 441.75854l0 0c0 -5.566345 4.5124054 -10.078766 10.078743 -10.078766l0 0c2.67305 0 5.2366104 1.0618896 7.126747 2.9519958c1.8901215 1.8901367 2.9519958 4.453705 2.9519958 7.12677l0 0c0 5.5663147 -4.512413 10.078735 -10.078743 10.078735l0 0c-5.5663376 0 -10.078743 -4.5124207 -10.078743 -10.078735z" fill-rule="nonzero"></path><path fill="#cccccc" d="m146.32095 441.75854l0 0c0 -5.566345 4.5124054 -10.078766 10.078735 -10.078766l0 0c2.67305 0 5.236618 1.0618896 7.1267395 2.9519958c1.8901367 1.8901367 2.9519958 4.453705 2.9519958 7.12677l0 0c0 5.5663147 -4.5124054 10.078735 -10.078735 10.078735l0 0c-5.56633 0 -10.078735 -4.5124207 -10.078735 -10.078735z" fill-rule="nonzero"></path><path stroke="#666666" stroke-width="2.0" stroke-linejoin="round" stroke-linecap="butt" d="m146.32095 441.75854l0 0c0 -5.566345 4.5124054 -10.078766 10.078735 -10.078766l0 0c2.67305 0 5.236618 1.0618896 7.1267395 2.9519958c1.8901367 1.8901367 2.9519958 4.453705 2.9519958 7.12677l0 0c0 5.5663147 -4.5124054 10.078735 -10.078735 10.078735l0 0c-5.56633 0 -10.078735 -4.5124207 -10.078735 -10.078735z" fill-rule="nonzero"></path><path fill="#cccccc" d="m182.48105 441.75854l0 0c0 -5.566345 4.5124054 -10.078766 10.078751 -10.078766l0 0c2.67305 0 5.236603 1.0618896 7.1267395 2.9519958c1.8901367 1.8901367 2.9519958 4.453705 2.9519958 7.12677l0 0c0 5.5663147 -4.5124054 10.078735 -10.078735 10.078735l0 0c-5.566345 0 -10.078751 -4.5124207 -10.078751 -10.078735z" fill-rule="nonzero"></path><path stroke="#666666" stroke-width="2.0" stroke-linejoin="round" stroke-linecap="butt" d="m182.48105 441.75854l0 0c0 -5.566345 4.5124054 -10.078766 10.078751 -10.078766l0 0c2.67305 0 5.236603 1.0618896 7.1267395 2.9519958c1.8901367 1.8901367 2.9519958 4.453705 2.9519958 7.12677l0 0c0 5.5663147 -4.5124054 10.078735 -10.078735 10.078735l0 0c-5.566345 0 -10.078751 -4.5124207 -10.078751 -10.078735z" fill-rule="nonzero"></path><path fill="#cccccc" d="m218.64116 441.75854l0 0c0 -5.566345 4.5124054 -10.078766 10.078735 -10.078766l0 0c2.67305 0 5.236618 1.0618896 7.1267548 2.9519958c1.8901215 1.8901367 2.9519958 4.453705 2.9519958 7.12677l0 0c0 5.5663147 -4.5124054 10.078735 -10.078751 10.078735l0 0c-5.56633 0 -10.078735 -4.5124207 -10.078735 -10.078735z" fill-rule="nonzero"></path><path stroke="#666666" stroke-width="2.0" stroke-linejoin="round" stroke-linecap="butt" d="m218.64116 441.75854l0 0c0 -5.566345 4.5124054 -10.078766 10.078735 -10.078766l0 0c2.67305 0 5.236618 1.0618896 7.1267548 2.9519958c1.8901215 1.8901367 2.9519958 4.453705 2.9519958 7.12677l0 0c0 5.5663147 -4.5124054 10.078735 -10.078751 10.078735l0 0c-5.56633 0 -10.078735 -4.5124207 -10.078735 -10.078735z" fill-rule="nonzero"></path><path fill="#cccccc" d="m129.04346 475.0383l0 0c0 -5.566345 4.5124054 -10.078735 10.078751 -10.078735l0 0c2.6730347 0 5.236603 1.0618591 7.1267395 2.9519958c1.8901367 1.8901367 2.9519958 4.453705 2.9519958 7.1267395l0 0c0 5.566345 -4.5124054 10.078735 -10.078735 10.078735l0 0c-5.566345 0 -10.078751 -4.51239 -10.078751 -10.078735z" fill-rule="nonzero"></path><path stroke="#666666" stroke-width="2.0" stroke-linejoin="round" stroke-linecap="butt" d="m129.04346 475.0383l0 0c0 -5.566345 4.5124054 -10.078735 10.078751 -10.078735l0 0c2.6730347 0 5.236603 1.0618591 7.1267395 2.9519958c1.8901367 1.8901367 2.9519958 4.453705 2.9519958 7.1267395l0 0c0 5.566345 -4.5124054 10.078735 -10.078735 10.078735l0 0c-5.566345 0 -10.078751 -4.51239 -10.078751 -10.078735z" fill-rule="nonzero"></path><path fill="#cccccc" d="m165.20357 475.0383l0 0c0 -5.566345 4.5124054 -10.078735 10.078735 -10.078735l0 0c2.67305 0 5.236618 1.0618591 7.1267548 2.9519958c1.8901215 1.8901367 2.9519958 4.453705 2.9519958 7.1267395l0 0c0 5.566345 -4.5124054 10.078735 -10.078751 10.078735l0 0c-5.56633 0 -10.078735 -4.51239 -10.078735 -10.078735z" fill-rule="nonzero"></path><path stroke="#666666" stroke-width="2.0" stroke-linejoin="round" stroke-linecap="butt" d="m165.20357 475.0383l0 0c0 -5.566345 4.5124054 -10.078735 10.078735 -10.078735l0 0c2.67305 0 5.236618 1.0618591 7.1267548 2.9519958c1.8901215 1.8901367 2.9519958 4.453705 2.9519958 7.1267395l0 0c0 5.566345 -4.5124054 10.078735 -10.078751 10.078735l0 0c-5.56633 0 -10.078735 -4.51239 -10.078735 -10.078735z" fill-rule="nonzero"></path><path fill="#cccccc" d="m201.36368 475.0383l0 0c0 -5.566345 4.5124054 -10.078735 10.078751 -10.078735l0 0c2.6730347 0 5.236603 1.0618591 7.1267395 2.9519958c1.8901367 1.8901367 2.9519958 4.453705 2.9519958 7.1267395l0 0c0 5.566345 -4.5124054 10.078735 -10.078735 10.078735l0 0c-5.566345 0 -10.078751 -4.51239 -10.078751 -10.078735z" fill-rule="nonzero"></path><path stroke="#666666" stroke-width="2.0" stroke-linejoin="round" stroke-linecap="butt" d="m201.36368 475.0383l0 0c0 -5.566345 4.5124054 -10.078735 10.078751 -10.078735l0 0c2.6730347 0 5.236603 1.0618591 7.1267395 2.9519958c1.8901367 1.8901367 2.9519958 4.453705 2.9519958 7.1267395l0 0c0 5.566345 -4.5124054 10.078735 -10.078735 10.078735l0 0c-5.566345 0 -10.078751 -4.51239 -10.078751 -10.078735z" fill-rule="nonzero"></path><path fill="#000000" fill-opacity="0.0" d="m127.36633 434.63177l47.915253 -42.700012" fill-rule="nonzero"></path><path stroke="#666666" stroke-width="1.0" stroke-linejoin="round" stroke-linecap="butt" stroke-dasharray="4.0,3.0" d="m127.36633 434.63177l47.915253 -42.700012" fill-rule="nonzero"></path><path fill="#000000" fill-opacity="0.0" d="m156.39969 431.67978l18.881897 -39.748016" fill-rule="nonzero"></path><path stroke="#666666" stroke-width="1.0" stroke-linejoin="round" stroke-linecap="butt" stroke-dasharray="4.0,3.0" d="m156.39969 431.67978l18.881897 -39.748016" fill-rule="nonzero"></path><path fill="#000000" fill-opacity="0.0" d="m192.5598 431.67978l-17.278214 -39.748016" fill-rule="nonzero"></path><path stroke="#666666" stroke-width="1.0" stroke-linejoin="round" stroke-linecap="butt" stroke-dasharray="4.0,3.0" d="m192.5598 431.67978l-17.278214 -39.748016" fill-rule="nonzero"></path><path fill="#000000" fill-opacity="0.0" d="m221.59315 434.63177l-46.31157 -42.700012" fill-rule="nonzero"></path><path stroke="#666666" stroke-width="1.0" stroke-linejoin="round" stroke-linecap="butt" stroke-dasharray="4.0,3.0" d="m221.59315 434.63177l-46.31157 -42.700012" fill-rule="nonzero"></path><path fill="#000000" fill-opacity="0.0" d="m211.44243 464.95956l10.150726 -16.07428" fill-rule="nonzero"></path><path stroke="#666666" stroke-width="1.0" stroke-linejoin="round" stroke-linecap="butt" stroke-dasharray="4.0,3.0" d="m211.44243 464.95956l10.150726 -16.07428" fill-rule="nonzero"></path><path fill="#000000" fill-opacity="0.0" d="m175.2823 464.95956l10.150742 -16.07428" fill-rule="nonzero"></path><path stroke="#666666" stroke-width="1.0" stroke-linejoin="round" stroke-linecap="butt" stroke-dasharray="4.0,3.0" d="m175.2823 464.95956l10.150742 -16.07428" fill-rule="nonzero"></path><path fill="#000000" fill-opacity="0.0" d="m139.12221 464.95956l-11.755875 -16.07428" fill-rule="nonzero"></path><path stroke="#666666" stroke-width="1.0" stroke-linejoin="round" stroke-linecap="butt" stroke-dasharray="4.0,3.0" d="m139.12221 464.95956l-11.755875 -16.07428" fill-rule="nonzero"></path><path fill="#000000" fill-opacity="0.0" d="m291.20886 434.63177l29.313171 -42.700012" fill-rule="nonzero"></path><path stroke="#666666" stroke-width="1.0" stroke-linejoin="round" stroke-linecap="butt" stroke-dasharray="4.0,3.0" d="m291.20886 434.63177l29.313171 -42.700012" fill-rule="nonzero"></path><path fill="#000000" fill-opacity="0.0" d="m320.24222 431.67978l0.27981567 -39.748016" fill-rule="nonzero"></path><path stroke="#666666" stroke-width="1.0" stroke-linejoin="round" stroke-linecap="butt" stroke-dasharray="4.0,3.0" d="m320.24222 431.67978l0.27981567 -39.748016" fill-rule="nonzero"></path><path fill="#000000" fill-opacity="0.0" d="m349.27557 434.63177l-28.75354 -42.700012" fill-rule="nonzero"></path><path stroke="#666666" stroke-width="1.0" stroke-linejoin="round" stroke-linecap="butt" stroke-dasharray="4.0,3.0" d="m349.27557 434.63177l-28.75354 -42.700012" fill-rule="nonzero"></path><path fill="#cccccc" d="m137.51779 356.34134l0 0c0 -3.931305 3.1869507 -7.1182556 7.1182556 -7.1182556l61.29106 0c1.8878784 0 3.6984253 0.7499695 5.0333557 2.0849c1.3349457 1.3349304 2.0849 3.1454773 2.0849 5.0333557l0 28.472168c0 3.931305 -3.1869507 7.1182556 -7.1182556 7.1182556l-61.29106 0c-3.931305 0 -7.1182556 -3.1869507 -7.1182556 -7.1182556z" fill-rule="nonzero"></path><path stroke="#666666" stroke-width="2.0" stroke-linejoin="round" stroke-linecap="butt" d="m137.51779 356.34134l0 0c0 -3.931305 3.1869507 -7.1182556 7.1182556 -7.1182556l61.29106 0c1.8878784 0 3.6984253 0.7499695 5.0333557 2.0849c1.3349457 1.3349304 2.0849 3.1454773 2.0849 5.0333557l0 28.472168c0 3.931305 -3.1869507 7.1182556 -7.1182556 7.1182556l-61.29106 0c-3.931305 0 -7.1182556 -3.1869507 -7.1182556 -7.1182556z" fill-rule="nonzero"></path><path fill="#000000" d="m169.22299 366.93744l0 -11.453125l1.515625 0l0 11.453125l-1.515625 0zm4.1796875 0l0 -11.453125l4.328125 0q1.140625 0 1.734375 0.109375q0.84375 0.140625 1.40625 0.53125q0.578125 0.390625 0.921875 1.109375q0.359375 0.703125 0.359375 1.5625q0 1.453125 -0.9375 2.46875q-0.921875 1.015625 -3.359375 1.015625l-2.9375 0l0 4.65625l-1.515625 0zm1.515625 -6.015625l2.96875 0q1.46875 0 2.078125 -0.546875q0.625 -0.546875 0.625 -1.53125q0 -0.71875 -0.375 -1.234375q-0.359375 -0.515625 -0.953125 -0.671875q-0.375 -0.109375 -1.40625 -0.109375l-2.9375 0l0 4.09375z" fill-rule="nonzero"></path><path fill="#000000" d="m153.32846 385.93744l0 -11.453125l4.296875 0q1.3125 0 2.109375 0.34375q0.796875 0.34375 1.234375 1.078125q0.453125 0.71875 0.453125 1.5q0 0.734375 -0.40625 1.390625q-0.390625 0.640625 -1.1875 1.046875q1.03125 0.296875 1.59375 1.03125q0.5625 0.734375 0.5625 1.734375q0 0.8125 -0.34375 1.5q-0.34375 0.6875 -0.84375 1.0625q-0.5 0.375 -1.25 0.578125q-0.75 0.1875 -1.84375 0.1875l-4.375 0zm1.515625 -6.640625l2.484375 0q1.0 0 1.4375 -0.140625q0.578125 -0.171875 0.875 -0.5625q0.296875 -0.40625 0.296875 -1.0q0 -0.578125 -0.28125 -1.0q-0.265625 -0.4375 -0.78125 -0.59375q-0.5 -0.171875 -1.734375 -0.171875l-2.296875 0l0 3.46875zm0 5.28125l2.859375 0q0.734375 0 1.03125 -0.046875q0.515625 -0.09375 0.859375 -0.3125q0.359375 -0.21875 0.578125 -0.640625q0.234375 -0.421875 0.234375 -0.96875q0 -0.640625 -0.328125 -1.109375q-0.328125 -0.46875 -0.90625 -0.65625q-0.578125 -0.203125 -1.671875 -0.203125l-2.65625 0l0 3.9375zm9.03125 1.359375l0 -8.296875l1.265625 0l0 1.25q0.484375 -0.875 0.890625 -1.15625q0.40625 -0.28125 0.90625 -0.28125q0.703125 0 1.4375 0.453125l-0.484375 1.296875q-0.515625 -0.296875 -1.03125 -0.296875q-0.453125 0 -0.828125 0.28125q-0.359375 0.265625 -0.515625 0.765625q-0.234375 0.75 -0.234375 1.640625l0 4.34375l-1.40625 0zm5.34375 -9.84375l0 -1.609375l1.40625 0l0 1.609375l-1.40625 0zm0 9.84375l0 -8.296875l1.40625 0l0 8.296875l-1.40625 0zm8.9296875 0l0 -1.046875q-0.78125 1.234375 -2.3125 1.234375q-1.0 0 -1.828125 -0.546875q-0.828125 -0.546875 -1.296875 -1.53125q-0.453125 -0.984375 -0.453125 -2.25q0 -1.25 0.40625 -2.25q0.421875 -1.015625 1.25 -1.546875q0.828125 -0.546875 1.859375 -0.546875q0.75 0 1.328125 0.3125q0.59375 0.3125 0.953125 0.828125l0 -4.109375l1.40625 0l0 11.453125l-1.3125 0zm-4.4375 -4.140625q0 1.59375 0.671875 2.390625q0.671875 0.78125 1.578125 0.78125q0.921875 0 1.5625 -0.75q0.65625 -0.765625 0.65625 -2.3125q0 -1.703125 -0.65625 -2.5q-0.65625 -0.796875 -1.625 -0.796875q-0.9375 0 -1.5625 0.765625q-0.625 0.765625 -0.625 2.421875zm7.6953125 4.828125l1.375 0.203125q0.078125 0.640625 0.46875 0.921875q0.53125 0.390625 1.4375 0.390625q0.96875 0 1.5 -0.390625q0.53125 -0.390625 0.71875 -1.09375q0.109375 -0.421875 0.109375 -1.8125q-0.921875 1.09375 -2.296875 1.09375q-1.71875 0 -2.65625 -1.234375q-0.9375 -1.234375 -0.9375 -2.96875q0 -1.1875 0.421875 -2.1875q0.4375 -1.0 1.25 -1.546875q0.828125 -0.546875 1.921875 -0.546875q1.46875 0 2.421875 1.1875l0 -1.0l1.296875 0l0 7.171875q0 1.9375 -0.390625 2.75q-0.390625 0.8125 -1.25 1.28125q-0.859375 0.46875 -2.109375 0.46875q-1.484375 0 -2.40625 -0.671875q-0.90625 -0.671875 -0.875 -2.015625zm1.171875 -4.984375q0 1.625 0.640625 2.375q0.65625 0.75 1.625 0.75q0.96875 0 1.625 -0.734375q0.65625 -0.75 0.65625 -2.34375q0 -1.53125 -0.671875 -2.296875q-0.671875 -0.78125 -1.625 -0.78125q-0.9375 0 -1.59375 0.765625q-0.65625 0.765625 -0.65625 2.265625zm13.6640625 1.625l1.453125 0.171875q-0.34375 1.28125 -1.28125 1.984375q-0.921875 0.703125 -2.359375 0.703125q-1.828125 0 -2.890625 -1.125q-1.0625 -1.125 -1.0625 -3.140625q0 -2.09375 1.078125 -3.25q1.078125 -1.15625 2.796875 -1.15625q1.65625 0 2.703125 1.140625q1.0625 1.125 1.0625 3.171875q0 0.125 0 0.375l-6.1875 0q0.078125 1.375 0.765625 2.109375q0.703125 0.71875 1.734375 0.71875q0.78125 0 1.328125 -0.40625q0.546875 -0.40625 0.859375 -1.296875zm-4.609375 -2.28125l4.625 0q-0.09375 -1.046875 -0.53125 -1.5625q-0.671875 -0.8125 -1.734375 -0.8125q-0.96875 0 -1.640625 0.65625q-0.65625 0.640625 -0.71875 1.71875z" fill-rule="nonzero"></path><path fill="#cccccc" d="m282.75827 356.34134l0 0c0 -3.931305 3.1869507 -7.1182556 7.1182556 -7.1182556l61.291046 0c1.8878784 0 3.6984253 0.7499695 5.0333557 2.0849c1.3349304 1.3349304 2.0849 3.1454773 2.0849 5.0333557l0 28.472168c0 3.931305 -3.1869507 7.1182556 -7.1182556 7.1182556l-61.291046 0c-3.931305 0 -7.1182556 -3.1869507 -7.1182556 -7.1182556z" fill-rule="nonzero"></path><path stroke="#666666" stroke-width="2.0" stroke-linejoin="round" stroke-linecap="butt" d="m282.75827 356.34134l0 0c0 -3.931305 3.1869507 -7.1182556 7.1182556 -7.1182556l61.291046 0c1.8878784 0 3.6984253 0.7499695 5.0333557 2.0849c1.3349304 1.3349304 2.0849 3.1454773 2.0849 5.0333557l0 28.472168c0 3.931305 -3.1869507 7.1182556 -7.1182556 7.1182556l-61.291046 0c-3.931305 0 -7.1182556 -3.1869507 -7.1182556 -7.1182556z" fill-rule="nonzero"></path><path fill="#000000" d="m314.46344 366.93744l0 -11.453125l1.515625 0l0 11.453125l-1.515625 0zm4.1796875 0l0 -11.453125l4.328125 0q1.140625 0 1.734375 0.109375q0.84375 0.140625 1.40625 0.53125q0.578125 0.390625 0.921875 1.109375q0.359375 0.703125 0.359375 1.5625q0 1.453125 -0.9375 2.46875q-0.921875 1.015625 -3.359375 1.015625l-2.9375 0l0 4.65625l-1.515625 0zm1.515625 -6.015625l2.96875 0q1.46875 0 2.078125 -0.546875q0.625 -0.546875 0.625 -1.53125q0 -0.71875 -0.375 -1.234375q-0.359375 -0.515625 -0.953125 -0.671875q-0.375 -0.109375 -1.40625 -0.109375l-2.9375 0l0 4.09375z" fill-rule="nonzero"></path><path fill="#000000" d="m298.5689 385.93744l0 -11.453125l4.296875 0q1.3125 0 2.109375 0.34375q0.796875 0.34375 1.234375 1.078125q0.453125 0.71875 0.453125 1.5q0 0.734375 -0.40625 1.390625q-0.390625 0.640625 -1.1875 1.046875q1.03125 0.296875 1.59375 1.03125q0.5625 0.734375 0.5625 1.734375q0 0.8125 -0.34375 1.5q-0.34375 0.6875 -0.84375 1.0625q-0.5 0.375 -1.25 0.578125q-0.75 0.1875 -1.84375 0.1875l-4.375 0zm1.515625 -6.640625l2.484375 0q1.0 0 1.4375 -0.140625q0.578125 -0.171875 0.875 -0.5625q0.296875 -0.40625 0.296875 -1.0q0 -0.578125 -0.28125 -1.0q-0.265625 -0.4375 -0.78125 -0.59375q-0.5 -0.171875 -1.734375 -0.171875l-2.296875 0l0 3.46875zm0 5.28125l2.859375 0q0.734375 0 1.03125 -0.046875q0.515625 -0.09375 0.859375 -0.3125q0.359375 -0.21875 0.578125 -0.640625q0.234375 -0.421875 0.234375 -0.96875q0 -0.640625 -0.328125 -1.109375q-0.328125 -0.46875 -0.90625 -0.65625q-0.578125 -0.203125 -1.671875 -0.203125l-2.65625 0l0 3.9375zm9.03125 1.359375l0 -8.296875l1.265625 0l0 1.25q0.484375 -0.875 0.890625 -1.15625q0.40625 -0.28125 0.90625 -0.28125q0.703125 0 1.4375 0.453125l-0.484375 1.296875q-0.515625 -0.296875 -1.03125 -0.296875q-0.453125 0 -0.828125 0.28125q-0.359375 0.265625 -0.515625 0.765625q-0.234375 0.75 -0.234375 1.640625l0 4.34375l-1.40625 0zm5.34375 -9.84375l0 -1.609375l1.40625 0l0 1.609375l-1.40625 0zm0 9.84375l0 -8.296875l1.40625 0l0 8.296875l-1.40625 0zm8.9296875 0l0 -1.046875q-0.78125 1.234375 -2.3125 1.234375q-1.0 0 -1.828125 -0.546875q-0.828125 -0.546875 -1.296875 -1.53125q-0.453125 -0.984375 -0.453125 -2.25q0 -1.25 0.40625 -2.25q0.421875 -1.015625 1.25 -1.546875q0.828125 -0.546875 1.859375 -0.546875q0.75 0 1.328125 0.3125q0.59375 0.3125 0.953125 0.828125l0 -4.109375l1.40625 0l0 11.453125l-1.3125 0zm-4.4375 -4.140625q0 1.59375 0.671875 2.390625q0.671875 0.78125 1.578125 0.78125q0.921875 0 1.5625 -0.75q0.65625 -0.765625 0.65625 -2.3125q0 -1.703125 -0.65625 -2.5q-0.65625 -0.796875 -1.625 -0.796875q-0.9375 0 -1.5625 0.765625q-0.625 0.765625 -0.625 2.421875zm7.6953125 4.828125l1.375 0.203125q0.078125 0.640625 0.46875 0.921875q0.53125 0.390625 1.4375 0.390625q0.96875 0 1.5 -0.390625q0.53125 -0.390625 0.71875 -1.09375q0.109375 -0.421875 0.109375 -1.8125q-0.921875 1.09375 -2.296875 1.09375q-1.71875 0 -2.65625 -1.234375q-0.9375 -1.234375 -0.9375 -2.96875q0 -1.1875 0.421875 -2.1875q0.4375 -1.0 1.25 -1.546875q0.828125 -0.546875 1.921875 -0.546875q1.46875 0 2.421875 1.1875l0 -1.0l1.296875 0l0 7.171875q0 1.9375 -0.390625 2.75q-0.390625 0.8125 -1.25 1.28125q-0.859375 0.46875 -2.109375 0.46875q-1.484375 0 -2.40625 -0.671875q-0.90625 -0.671875 -0.875 -2.015625zm1.171875 -4.984375q0 1.625 0.640625 2.375q0.65625 0.75 1.625 0.75q0.96875 0 1.625 -0.734375q0.65625 -0.75 0.65625 -2.34375q0 -1.53125 -0.671875 -2.296875q-0.671875 -0.78125 -1.625 -0.78125q-0.9375 0 -1.59375 0.765625q-0.65625 0.765625 -0.65625 2.265625zm13.6640625 1.625l1.453125 0.171875q-0.34375 1.28125 -1.28125 1.984375q-0.921875 0.703125 -2.359375 0.703125q-1.828125 0 -2.890625 -1.125q-1.0625 -1.125 -1.0625 -3.140625q0 -2.09375 1.078125 -3.25q1.078125 -1.15625 2.796875 -1.15625q1.65625 0 2.703125 1.140625q1.0625 1.125 1.0625 3.171875q0 0.125 0 0.375l-6.1875 0q0.078125 1.375 0.765625 2.109375q0.703125 0.71875 1.734375 0.71875q0.78125 0 1.328125 -0.40625q0.546875 -0.40625 0.859375 -1.296875zm-4.609375 -2.28125l4.625 0q-0.09375 -1.046875 -0.53125 -1.5625q-0.671875 -0.8125 -1.734375 -0.8125q-0.96875 0 -1.640625 0.65625q-0.65625 0.640625 -0.71875 1.71875z" fill-rule="nonzero"></path><path fill="#cccccc" d="m691.22046 441.75854l0 0c0 -5.566345 4.51239 -10.078766 10.078735 -10.078766l0 0c2.6730957 0 5.2366333 1.0618896 7.12677 2.9519958c1.8901367 1.8901367 2.9519653 4.453705 2.9519653 7.12677l0 0c0 5.5663147 -4.51239 10.078735 -10.078735 10.078735l0 0c-5.566345 0 -10.078735 -4.5124207 -10.078735 -10.078735z" fill-rule="nonzero"></path><path stroke="#666666" stroke-width="2.0" stroke-linejoin="round" stroke-linecap="butt" d="m691.22046 441.75854l0 0c0 -5.566345 4.51239 -10.078766 10.078735 -10.078766l0 0c2.6730957 0 5.2366333 1.0618896 7.12677 2.9519958c1.8901367 1.8901367 2.9519653 4.453705 2.9519653 7.12677l0 0c0 5.5663147 -4.51239 10.078735 -10.078735 10.078735l0 0c-5.566345 0 -10.078735 -4.5124207 -10.078735 -10.078735z" fill-rule="nonzero"></path><path fill="#cccccc" d="m727.38055 441.75854l0 0c0 -5.566345 4.512451 -10.078766 10.078735 -10.078766l0 0c2.6730957 0 5.2366333 1.0618896 7.12677 2.9519958c1.8901367 1.8901367 2.9520264 4.453705 2.9520264 7.12677l0 0c0 5.5663147 -4.512451 10.078735 -10.078796 10.078735l0 0c-5.566284 0 -10.078735 -4.5124207 -10.078735 -10.078735z" fill-rule="nonzero"></path><path stroke="#666666" stroke-width="2.0" stroke-linejoin="round" stroke-linecap="butt" d="m727.38055 441.75854l0 0c0 -5.566345 4.512451 -10.078766 10.078735 -10.078766l0 0c2.6730957 0 5.2366333 1.0618896 7.12677 2.9519958c1.8901367 1.8901367 2.9520264 4.453705 2.9520264 7.12677l0 0c0 5.5663147 -4.512451 10.078735 -10.078796 10.078735l0 0c-5.566284 0 -10.078735 -4.5124207 -10.078735 -10.078735z" fill-rule="nonzero"></path><path fill="#cccccc" d="m763.5407 441.75854l0 0c0 -5.566345 4.51239 -10.078766 10.078735 -10.078766l0 0c2.6730347 0 5.2365723 1.0618896 7.126709 2.9519958c1.8901367 1.8901367 2.9520264 4.453705 2.9520264 7.12677l0 0c0 5.5663147 -4.512451 10.078735 -10.078735 10.078735l0 0c-5.566345 0 -10.078735 -4.5124207 -10.078735 -10.078735z" fill-rule="nonzero"></path><path stroke="#666666" stroke-width="2.0" stroke-linejoin="round" stroke-linecap="butt" d="m763.5407 441.75854l0 0c0 -5.566345 4.51239 -10.078766 10.078735 -10.078766l0 0c2.6730347 0 5.2365723 1.0618896 7.126709 2.9519958c1.8901367 1.8901367 2.9520264 4.453705 2.9520264 7.12677l0 0c0 5.5663147 -4.512451 10.078735 -10.078735 10.078735l0 0c-5.566345 0 -10.078735 -4.5124207 -10.078735 -10.078735z" fill-rule="nonzero"></path><path fill="#cccccc" d="m527.3779 441.75854l0 0c0 -5.566345 4.512451 -10.078766 10.078735 -10.078766l0 0c2.6730957 0 5.2366333 1.0618896 7.12677 2.9519958c1.8901367 1.8901367 2.9520264 4.453705 2.9520264 7.12677l0 0c0 5.5663147 -4.512451 10.078735 -10.078796 10.078735l0 0c-5.566284 0 -10.078735 -4.5124207 -10.078735 -10.078735z" fill-rule="nonzero"></path><path stroke="#666666" stroke-width="2.0" stroke-linejoin="round" stroke-linecap="butt" d="m527.3779 441.75854l0 0c0 -5.566345 4.512451 -10.078766 10.078735 -10.078766l0 0c2.6730957 0 5.2366333 1.0618896 7.12677 2.9519958c1.8901367 1.8901367 2.9520264 4.453705 2.9520264 7.12677l0 0c0 5.5663147 -4.512451 10.078735 -10.078796 10.078735l0 0c-5.566284 0 -10.078735 -4.5124207 -10.078735 -10.078735z" fill-rule="nonzero"></path><path fill="#cccccc" d="m563.5381 441.75854l0 0c0 -5.566345 4.51239 -10.078766 10.078735 -10.078766l0 0c2.6730347 0 5.2365723 1.0618896 7.126709 2.9519958c1.8901367 1.8901367 2.9520264 4.453705 2.9520264 7.12677l0 0c0 5.5663147 -4.512451 10.078735 -10.078735 10.078735l0 0c-5.566345 0 -10.078735 -4.5124207 -10.078735 -10.078735z" fill-rule="nonzero"></path><path stroke="#666666" stroke-width="2.0" stroke-linejoin="round" stroke-linecap="butt" d="m563.5381 441.75854l0 0c0 -5.566345 4.51239 -10.078766 10.078735 -10.078766l0 0c2.6730347 0 5.2365723 1.0618896 7.126709 2.9519958c1.8901367 1.8901367 2.9520264 4.453705 2.9520264 7.12677l0 0c0 5.5663147 -4.512451 10.078735 -10.078735 10.078735l0 0c-5.566345 0 -10.078735 -4.5124207 -10.078735 -10.078735z" fill-rule="nonzero"></path><path fill="#cccccc" d="m599.6982 441.75854l0 0c0 -5.566345 4.51239 -10.078766 10.078735 -10.078766l0 0c2.6730347 0 5.2365723 1.0618896 7.126709 2.9519958c1.8901367 1.8901367 2.9520264 4.453705 2.9520264 7.12677l0 0c0 5.5663147 -4.51239 10.078735 -10.078735 10.078735l0 0c-5.566345 0 -10.078735 -4.5124207 -10.078735 -10.078735z" fill-rule="nonzero"></path><path stroke="#666666" stroke-width="2.0" stroke-linejoin="round" stroke-linecap="butt" d="m599.6982 441.75854l0 0c0 -5.566345 4.51239 -10.078766 10.078735 -10.078766l0 0c2.6730347 0 5.2365723 1.0618896 7.126709 2.9519958c1.8901367 1.8901367 2.9520264 4.453705 2.9520264 7.12677l0 0c0 5.5663147 -4.51239 10.078735 -10.078735 10.078735l0 0c-5.566345 0 -10.078735 -4.5124207 -10.078735 -10.078735z" fill-rule="nonzero"></path><path fill="#cccccc" d="m635.8583 441.75854l0 0c0 -5.566345 4.51239 -10.078766 10.078735 -10.078766l0 0c2.6730347 0 5.2366333 1.0618896 7.12677 2.9519958c1.8900757 1.8901367 2.9519653 4.453705 2.9519653 7.12677l0 0c0 5.5663147 -4.51239 10.078735 -10.078735 10.078735l0 0c-5.566345 0 -10.078735 -4.5124207 -10.078735 -10.078735z" fill-rule="nonzero"></path><path stroke="#666666" stroke-width="2.0" stroke-linejoin="round" stroke-linecap="butt" d="m635.8583 441.75854l0 0c0 -5.566345 4.51239 -10.078766 10.078735 -10.078766l0 0c2.6730347 0 5.2366333 1.0618896 7.12677 2.9519958c1.8900757 1.8901367 2.9519653 4.453705 2.9519653 7.12677l0 0c0 5.5663147 -4.51239 10.078735 -10.078735 10.078735l0 0c-5.566345 0 -10.078735 -4.5124207 -10.078735 -10.078735z" fill-rule="nonzero"></path><path fill="#cccccc" d="m546.26056 475.0383l0 0c0 -5.566345 4.512451 -10.078735 10.078735 -10.078735l0 0c2.6730957 0 5.2366333 1.0618591 7.12677 2.9519958c1.8901367 1.8901367 2.9520264 4.453705 2.9520264 7.1267395l0 0c0 5.566345 -4.512451 10.078735 -10.078796 10.078735l0 0c-5.566284 0 -10.078735 -4.51239 -10.078735 -10.078735z" fill-rule="nonzero"></path><path stroke="#666666" stroke-width="2.0" stroke-linejoin="round" stroke-linecap="butt" d="m546.26056 475.0383l0 0c0 -5.566345 4.512451 -10.078735 10.078735 -10.078735l0 0c2.6730957 0 5.2366333 1.0618591 7.12677 2.9519958c1.8901367 1.8901367 2.9520264 4.453705 2.9520264 7.1267395l0 0c0 5.566345 -4.512451 10.078735 -10.078796 10.078735l0 0c-5.566284 0 -10.078735 -4.51239 -10.078735 -10.078735z" fill-rule="nonzero"></path><path fill="#cccccc" d="m582.4207 475.0383l0 0c0 -5.566345 4.51239 -10.078735 10.078735 -10.078735l0 0c2.6730347 0 5.2365723 1.0618591 7.126709 2.9519958c1.8901367 1.8901367 2.9520264 4.453705 2.9520264 7.1267395l0 0c0 5.566345 -4.512451 10.078735 -10.078735 10.078735l0 0c-5.566345 0 -10.078735 -4.51239 -10.078735 -10.078735z" fill-rule="nonzero"></path><path stroke="#666666" stroke-width="2.0" stroke-linejoin="round" stroke-linecap="butt" d="m582.4207 475.0383l0 0c0 -5.566345 4.51239 -10.078735 10.078735 -10.078735l0 0c2.6730347 0 5.2365723 1.0618591 7.126709 2.9519958c1.8901367 1.8901367 2.9520264 4.453705 2.9520264 7.1267395l0 0c0 5.566345 -4.512451 10.078735 -10.078735 10.078735l0 0c-5.566345 0 -10.078735 -4.51239 -10.078735 -10.078735z" fill-rule="nonzero"></path><path fill="#cccccc" d="m618.5808 475.0383l0 0c0 -5.566345 4.51239 -10.078735 10.078735 -10.078735l0 0c2.6730347 0 5.2365723 1.0618591 7.126709 2.9519958c1.8901367 1.8901367 2.9520264 4.453705 2.9520264 7.1267395l0 0c0 5.566345 -4.51239 10.078735 -10.078735 10.078735l0 0c-5.566345 0 -10.078735 -4.51239 -10.078735 -10.078735z" fill-rule="nonzero"></path><path stroke="#666666" stroke-width="2.0" stroke-linejoin="round" stroke-linecap="butt" d="m618.5808 475.0383l0 0c0 -5.566345 4.51239 -10.078735 10.078735 -10.078735l0 0c2.6730347 0 5.2365723 1.0618591 7.126709 2.9519958c1.8901367 1.8901367 2.9520264 4.453705 2.9520264 7.1267395l0 0c0 5.566345 -4.51239 10.078735 -10.078735 10.078735l0 0c-5.566345 0 -10.078735 -4.51239 -10.078735 -10.078735z" fill-rule="nonzero"></path><path fill="#000000" fill-opacity="0.0" d="m544.58344 434.63177l47.915283 -42.700012" fill-rule="nonzero"></path><path stroke="#666666" stroke-width="1.0" stroke-linejoin="round" stroke-linecap="butt" stroke-dasharray="4.0,3.0" d="m544.58344 434.63177l47.915283 -42.700012" fill-rule="nonzero"></path><path fill="#000000" fill-opacity="0.0" d="m573.6168 431.67978l18.881897 -39.748016" fill-rule="nonzero"></path><path stroke="#666666" stroke-width="1.0" stroke-linejoin="round" stroke-linecap="butt" stroke-dasharray="4.0,3.0" d="m573.6168 431.67978l18.881897 -39.748016" fill-rule="nonzero"></path><path fill="#000000" fill-opacity="0.0" d="m609.7769 431.67978l-17.278198 -39.748016" fill-rule="nonzero"></path><path stroke="#666666" stroke-width="1.0" stroke-linejoin="round" stroke-linecap="butt" stroke-dasharray="4.0,3.0" d="m609.7769 431.67978l-17.278198 -39.748016" fill-rule="nonzero"></path><path fill="#000000" fill-opacity="0.0" d="m638.81024 434.63177l-46.311523 -42.700012" fill-rule="nonzero"></path><path stroke="#666666" stroke-width="1.0" stroke-linejoin="round" stroke-linecap="butt" stroke-dasharray="4.0,3.0" d="m638.81024 434.63177l-46.311523 -42.700012" fill-rule="nonzero"></path><path fill="#000000" fill-opacity="0.0" d="m628.65955 464.95956l10.150696 -16.07428" fill-rule="nonzero"></path><path stroke="#666666" stroke-width="1.0" stroke-linejoin="round" stroke-linecap="butt" stroke-dasharray="4.0,3.0" d="m628.65955 464.95956l10.150696 -16.07428" fill-rule="nonzero"></path><path fill="#000000" fill-opacity="0.0" d="m592.49945 464.95956l10.150696 -16.07428" fill-rule="nonzero"></path><path stroke="#666666" stroke-width="1.0" stroke-linejoin="round" stroke-linecap="butt" stroke-dasharray="4.0,3.0" d="m592.49945 464.95956l10.150696 -16.07428" fill-rule="nonzero"></path><path fill="#000000" fill-opacity="0.0" d="m556.3393 464.95956l-11.755859 -16.07428" fill-rule="nonzero"></path><path stroke="#666666" stroke-width="1.0" stroke-linejoin="round" stroke-linecap="butt" stroke-dasharray="4.0,3.0" d="m556.3393 464.95956l-11.755859 -16.07428" fill-rule="nonzero"></path><path fill="#000000" fill-opacity="0.0" d="m708.42596 434.63177l29.313232 -42.700012" fill-rule="nonzero"></path><path stroke="#666666" stroke-width="1.0" stroke-linejoin="round" stroke-linecap="butt" stroke-dasharray="4.0,3.0" d="m708.42596 434.63177l29.313232 -42.700012" fill-rule="nonzero"></path><path fill="#000000" fill-opacity="0.0" d="m737.4593 431.67978l0.27990723 -39.748016" fill-rule="nonzero"></path><path stroke="#666666" stroke-width="1.0" stroke-linejoin="round" stroke-linecap="butt" stroke-dasharray="4.0,3.0" d="m737.4593 431.67978l0.27990723 -39.748016" fill-rule="nonzero"></path><path fill="#000000" fill-opacity="0.0" d="m766.4927 434.63177l-28.753479 -42.700012" fill-rule="nonzero"></path><path stroke="#666666" stroke-width="1.0" stroke-linejoin="round" stroke-linecap="butt" stroke-dasharray="4.0,3.0" d="m766.4927 434.63177l-28.753479 -42.700012" fill-rule="nonzero"></path><path fill="#cccccc" d="m554.7349 356.34134l0 0c0 -3.931305 3.1869507 -7.1182556 7.118225 -7.1182556l61.291077 0c1.8878784 0 3.6984253 0.7499695 5.033325 2.0849c1.3349609 1.3349304 2.0849 3.1454773 2.0849 5.0333557l0 28.472168c0 3.931305 -3.1869507 7.1182556 -7.118225 7.1182556l-61.291077 0c-3.9312744 0 -7.118225 -3.1869507 -7.118225 -7.1182556z" fill-rule="nonzero"></path><path stroke="#666666" stroke-width="2.0" stroke-linejoin="round" stroke-linecap="butt" d="m554.7349 356.34134l0 0c0 -3.931305 3.1869507 -7.1182556 7.118225 -7.1182556l61.291077 0c1.8878784 0 3.6984253 0.7499695 5.033325 2.0849c1.3349609 1.3349304 2.0849 3.1454773 2.0849 5.0333557l0 28.472168c0 3.931305 -3.1869507 7.1182556 -7.118225 7.1182556l-61.291077 0c-3.9312744 0 -7.118225 -3.1869507 -7.118225 -7.1182556z" fill-rule="nonzero"></path><path fill="#000000" d="m586.4401 366.93744l0 -11.453125l1.515625 0l0 11.453125l-1.515625 0zm4.1796875 0l0 -11.453125l4.328125 0q1.140625 0 1.734375 0.109375q0.84375 0.140625 1.40625 0.53125q0.578125 0.390625 0.921875 1.109375q0.359375 0.703125 0.359375 1.5625q0 1.453125 -0.9375 2.46875q-0.921875 1.015625 -3.359375 1.015625l-2.9375 0l0 4.65625l-1.515625 0zm1.515625 -6.015625l2.96875 0q1.46875 0 2.078125 -0.546875q0.625 -0.546875 0.625 -1.53125q0 -0.71875 -0.375 -1.234375q-0.359375 -0.515625 -0.953125 -0.671875q-0.375 -0.109375 -1.40625 -0.109375l-2.9375 0l0 4.09375z" fill-rule="nonzero"></path><path fill="#000000" d="m570.5456 385.93744l0 -11.453125l4.296875 0q1.3125 0 2.109375 0.34375q0.796875 0.34375 1.234375 1.078125q0.453125 0.71875 0.453125 1.5q0 0.734375 -0.40625 1.390625q-0.390625 0.640625 -1.1875 1.046875q1.03125 0.296875 1.59375 1.03125q0.5625 0.734375 0.5625 1.734375q0 0.8125 -0.34375 1.5q-0.34375 0.6875 -0.84375 1.0625q-0.5 0.375 -1.25 0.578125q-0.75 0.1875 -1.84375 0.1875l-4.375 0zm1.515625 -6.640625l2.484375 0q1.0 0 1.4375 -0.140625q0.578125 -0.171875 0.875 -0.5625q0.296875 -0.40625 0.296875 -1.0q0 -0.578125 -0.28125 -1.0q-0.265625 -0.4375 -0.78125 -0.59375q-0.5 -0.171875 -1.734375 -0.171875l-2.296875 0l0 3.46875zm0 5.28125l2.859375 0q0.734375 0 1.03125 -0.046875q0.515625 -0.09375 0.859375 -0.3125q0.359375 -0.21875 0.578125 -0.640625q0.234375 -0.421875 0.234375 -0.96875q0 -0.640625 -0.328125 -1.109375q-0.328125 -0.46875 -0.90625 -0.65625q-0.578125 -0.203125 -1.671875 -0.203125l-2.65625 0l0 3.9375zm9.03125 1.359375l0 -8.296875l1.265625 0l0 1.25q0.484375 -0.875 0.890625 -1.15625q0.40625 -0.28125 0.90625 -0.28125q0.703125 0 1.4375 0.453125l-0.484375 1.296875q-0.515625 -0.296875 -1.03125 -0.296875q-0.453125 0 -0.828125 0.28125q-0.359375 0.265625 -0.515625 0.765625q-0.234375 0.75 -0.234375 1.640625l0 4.34375l-1.40625 0zm5.34375 -9.84375l0 -1.609375l1.40625 0l0 1.609375l-1.40625 0zm0 9.84375l0 -8.296875l1.40625 0l0 8.296875l-1.40625 0zm8.9296875 0l0 -1.046875q-0.78125 1.234375 -2.3125 1.234375q-1.0 0 -1.828125 -0.546875q-0.828125 -0.546875 -1.296875 -1.53125q-0.453125 -0.984375 -0.453125 -2.25q0 -1.25 0.40625 -2.25q0.421875 -1.015625 1.25 -1.546875q0.828125 -0.546875 1.859375 -0.546875q0.75 0 1.328125 0.3125q0.59375 0.3125 0.953125 0.828125l0 -4.109375l1.40625 0l0 11.453125l-1.3125 0zm-4.4375 -4.140625q0 1.59375 0.671875 2.390625q0.671875 0.78125 1.578125 0.78125q0.921875 0 1.5625 -0.75q0.65625 -0.765625 0.65625 -2.3125q0 -1.703125 -0.65625 -2.5q-0.65625 -0.796875 -1.625 -0.796875q-0.9375 0 -1.5625 0.765625q-0.625 0.765625 -0.625 2.421875zm7.6953125 4.828125l1.375 0.203125q0.078125 0.640625 0.46875 0.921875q0.53125 0.390625 1.4375 0.390625q0.96875 0 1.5 -0.390625q0.53125 -0.390625 0.71875 -1.09375q0.109375 -0.421875 0.109375 -1.8125q-0.921875 1.09375 -2.296875 1.09375q-1.71875 0 -2.65625 -1.234375q-0.9375 -1.234375 -0.9375 -2.96875q0 -1.1875 0.421875 -2.1875q0.4375 -1.0 1.25 -1.546875q0.828125 -0.546875 1.921875 -0.546875q1.46875 0 2.421875 1.1875l0 -1.0l1.296875 0l0 7.171875q0 1.9375 -0.390625 2.75q-0.390625 0.8125 -1.25 1.28125q-0.859375 0.46875 -2.109375 0.46875q-1.484375 0 -2.40625 -0.671875q-0.90625 -0.671875 -0.875 -2.015625zm1.171875 -4.984375q0 1.625 0.640625 2.375q0.65625 0.75 1.625 0.75q0.96875 0 1.625 -0.734375q0.65625 -0.75 0.65625 -2.34375q0 -1.53125 -0.671875 -2.296875q-0.671875 -0.78125 -1.625 -0.78125q-0.9375 0 -1.59375 0.765625q-0.65625 0.765625 -0.65625 2.265625zm13.6640625 1.625l1.453125 0.171875q-0.34375 1.28125 -1.28125 1.984375q-0.921875 0.703125 -2.359375 0.703125q-1.828125 0 -2.890625 -1.125q-1.0625 -1.125 -1.0625 -3.140625q0 -2.09375 1.078125 -3.25q1.078125 -1.15625 2.796875 -1.15625q1.65625 0 2.703125 1.140625q1.0625 1.125 1.0625 3.171875q0 0.125 0 0.375l-6.1875 0q0.078125 1.375 0.765625 2.109375q0.703125 0.71875 1.734375 0.71875q0.78125 0 1.328125 -0.40625q0.546875 -0.40625 0.859375 -1.296875zm-4.609375 -2.28125l4.625 0q-0.09375 -1.046875 -0.53125 -1.5625q-0.671875 -0.8125 -1.734375 -0.8125q-0.96875 0 -1.640625 0.65625q-0.65625 0.640625 -0.71875 1.71875z" fill-rule="nonzero"></path><path fill="#cccccc" d="m699.9754 356.34134l0 0c0 -3.931305 3.1869507 -7.1182556 7.118225 -7.1182556l61.291077 0c1.8878784 0 3.6984253 0.7499695 5.033386 2.0849c1.3348999 1.3349304 2.0848389 3.1454773 2.0848389 5.0333557l0 28.472168c0 3.931305 -3.1869507 7.1182556 -7.118225 7.1182556l-61.291077 0c-3.9312744 0 -7.118225 -3.1869507 -7.118225 -7.1182556z" fill-rule="nonzero"></path><path stroke="#666666" stroke-width="2.0" stroke-linejoin="round" stroke-linecap="butt" d="m699.9754 356.34134l0 0c0 -3.931305 3.1869507 -7.1182556 7.118225 -7.1182556l61.291077 0c1.8878784 0 3.6984253 0.7499695 5.033386 2.0849c1.3348999 1.3349304 2.0848389 3.1454773 2.0848389 5.0333557l0 28.472168c0 3.931305 -3.1869507 7.1182556 -7.118225 7.1182556l-61.291077 0c-3.9312744 0 -7.118225 -3.1869507 -7.118225 -7.1182556z" fill-rule="nonzero"></path><path fill="#000000" d="m731.6806 366.93744l0 -11.453125l1.515625 0l0 11.453125l-1.515625 0zm4.1796875 0l0 -11.453125l4.328125 0q1.140625 0 1.734375 0.109375q0.84375 0.140625 1.40625 0.53125q0.578125 0.390625 0.921875 1.109375q0.359375 0.703125 0.359375 1.5625q0 1.453125 -0.9375 2.46875q-0.921875 1.015625 -3.359375 1.015625l-2.9375 0l0 4.65625l-1.515625 0zm1.515625 -6.015625l2.96875 0q1.46875 0 2.078125 -0.546875q0.625 -0.546875 0.625 -1.53125q0 -0.71875 -0.375 -1.234375q-0.359375 -0.515625 -0.953125 -0.671875q-0.375 -0.109375 -1.40625 -0.109375l-2.9375 0l0 4.09375z" fill-rule="nonzero"></path><path fill="#000000" d="m715.7861 385.93744l0 -11.453125l4.296875 0q1.3125 0 2.109375 0.34375q0.796875 0.34375 1.234375 1.078125q0.453125 0.71875 0.453125 1.5q0 0.734375 -0.40625 1.390625q-0.390625 0.640625 -1.1875 1.046875q1.03125 0.296875 1.59375 1.03125q0.5625 0.734375 0.5625 1.734375q0 0.8125 -0.34375 1.5q-0.34375 0.6875 -0.84375 1.0625q-0.5 0.375 -1.25 0.578125q-0.75 0.1875 -1.84375 0.1875l-4.375 0zm1.515625 -6.640625l2.484375 0q1.0 0 1.4375 -0.140625q0.578125 -0.171875 0.875 -0.5625q0.296875 -0.40625 0.296875 -1.0q0 -0.578125 -0.28125 -1.0q-0.265625 -0.4375 -0.78125 -0.59375q-0.5 -0.171875 -1.734375 -0.171875l-2.296875 0l0 3.46875zm0 5.28125l2.859375 0q0.734375 0 1.03125 -0.046875q0.515625 -0.09375 0.859375 -0.3125q0.359375 -0.21875 0.578125 -0.640625q0.234375 -0.421875 0.234375 -0.96875q0 -0.640625 -0.328125 -1.109375q-0.328125 -0.46875 -0.90625 -0.65625q-0.578125 -0.203125 -1.671875 -0.203125l-2.65625 0l0 3.9375zm9.03125 1.359375l0 -8.296875l1.265625 0l0 1.25q0.484375 -0.875 0.890625 -1.15625q0.40625 -0.28125 0.90625 -0.28125q0.703125 0 1.4375 0.453125l-0.484375 1.296875q-0.515625 -0.296875 -1.03125 -0.296875q-0.453125 0 -0.828125 0.28125q-0.359375 0.265625 -0.515625 0.765625q-0.234375 0.75 -0.234375 1.640625l0 4.34375l-1.40625 0zm5.34375 -9.84375l0 -1.609375l1.40625 0l0 1.609375l-1.40625 0zm0 9.84375l0 -8.296875l1.40625 0l0 8.296875l-1.40625 0zm8.9296875 0l0 -1.046875q-0.78125 1.234375 -2.3125 1.234375q-1.0 0 -1.828125 -0.546875q-0.828125 -0.546875 -1.296875 -1.53125q-0.453125 -0.984375 -0.453125 -2.25q0 -1.25 0.40625 -2.25q0.421875 -1.015625 1.25 -1.546875q0.828125 -0.546875 1.859375 -0.546875q0.75 0 1.328125 0.3125q0.59375 0.3125 0.953125 0.828125l0 -4.109375l1.40625 0l0 11.453125l-1.3125 0zm-4.4375 -4.140625q0 1.59375 0.671875 2.390625q0.671875 0.78125 1.578125 0.78125q0.921875 0 1.5625 -0.75q0.65625 -0.765625 0.65625 -2.3125q0 -1.703125 -0.65625 -2.5q-0.65625 -0.796875 -1.625 -0.796875q-0.9375 0 -1.5625 0.765625q-0.625 0.765625 -0.625 2.421875zm7.6953125 4.828125l1.375 0.203125q0.078125 0.640625 0.46875 0.921875q0.53125 0.390625 1.4375 0.390625q0.96875 0 1.5 -0.390625q0.53125 -0.390625 0.71875 -1.09375q0.109375 -0.421875 0.109375 -1.8125q-0.921875 1.09375 -2.296875 1.09375q-1.71875 0 -2.65625 -1.234375q-0.9375 -1.234375 -0.9375 -2.96875q0 -1.1875 0.421875 -2.1875q0.4375 -1.0 1.25 -1.546875q0.828125 -0.546875 1.921875 -0.546875q1.46875 0 2.421875 1.1875l0 -1.0l1.296875 0l0 7.171875q0 1.9375 -0.390625 2.75q-0.390625 0.8125 -1.25 1.28125q-0.859375 0.46875 -2.109375 0.46875q-1.484375 0 -2.40625 -0.671875q-0.90625 -0.671875 -0.875 -2.015625zm1.171875 -4.984375q0 1.625 0.640625 2.375q0.65625 0.75 1.625 0.75q0.96875 0 1.625 -0.734375q0.65625 -0.75 0.65625 -2.34375q0 -1.53125 -0.671875 -2.296875q-0.671875 -0.78125 -1.625 -0.78125q-0.9375 0 -1.59375 0.765625q-0.65625 0.765625 -0.65625 2.265625zm13.6640625 1.625l1.453125 0.171875q-0.34375 1.28125 -1.28125 1.984375q-0.921875 0.703125 -2.359375 0.703125q-1.828125 0 -2.890625 -1.125q-1.0625 -1.125 -1.0625 -3.140625q0 -2.09375 1.078125 -3.25q1.078125 -1.15625 2.796875 -1.15625q1.65625 0 2.703125 1.140625q1.0625 1.125 1.0625 3.171875q0 0.125 0 0.375l-6.1875 0q0.078125 1.375 0.765625 2.109375q0.703125 0.71875 1.734375 0.71875q0.78125 0 1.328125 -0.40625q0.546875 -0.40625 0.859375 -1.296875zm-4.609375 -2.28125l4.625 0q-0.09375 -1.046875 -0.53125 -1.5625q-0.671875 -0.8125 -1.734375 -0.8125q-0.96875 0 -1.640625 0.65625q-0.65625 0.640625 -0.71875 1.71875z" fill-rule="nonzero"></path><path fill="#cccccc" d="m172.07874 142.55905l144.0 0l0 94.3307l-144.0 0z" fill-rule="nonzero"></path><path stroke="#666666" stroke-width="2.0" stroke-linejoin="round" stroke-linecap="butt" d="m172.07874 142.55905l144.0 0l0 94.3307l-144.0 0z" fill-rule="nonzero"></path><path fill="#000000" d="m217.46387 192.26941l1.6875 -0.140625q0.125 1.015625 0.5625 1.671875q0.4375 0.65625 1.359375 1.0625q0.9375 0.40625 2.09375 0.40625q1.03125 0 1.8125 -0.3125q0.796875 -0.3125 1.1875 -0.84375q0.390625 -0.53125 0.390625 -1.15625q0 -0.640625 -0.375 -1.109375q-0.375 -0.484375 -1.234375 -0.8125q-0.546875 -0.21875 -2.421875 -0.65625q-1.875 -0.453125 -2.625 -0.859375q-0.96875 -0.515625 -1.453125 -1.265625q-0.46875 -0.75 -0.46875 -1.6875q0 -1.03125 0.578125 -1.921875q0.59375 -0.90625 1.703125 -1.359375q1.125 -0.46875 2.5 -0.46875q1.515625 0 2.671875 0.484375q1.15625 0.484375 1.765625 1.4375q0.625 0.9375 0.671875 2.140625l-1.71875 0.125q-0.140625 -1.28125 -0.953125 -1.9375q-0.796875 -0.671875 -2.359375 -0.671875q-1.625 0 -2.375 0.609375q-0.75 0.59375 -0.75 1.4375q0 0.734375 0.53125 1.203125q0.515625 0.46875 2.703125 0.96875q2.203125 0.5 3.015625 0.875q1.1875 0.546875 1.75 1.390625q0.578125 0.828125 0.578125 1.921875q0 1.09375 -0.625 2.0625q-0.625 0.953125 -1.796875 1.484375q-1.15625 0.53125 -2.609375 0.53125q-1.84375 0 -3.09375 -0.53125q-1.25 -0.546875 -1.96875 -1.625q-0.703125 -1.078125 -0.734375 -2.453125zm19.584198 1.203125l1.71875 0.21875q-0.40625 1.5 -1.515625 2.34375q-1.09375 0.828125 -2.8125 0.828125q-2.15625 0 -3.421875 -1.328125q-1.265625 -1.328125 -1.265625 -3.734375q0 -2.484375 1.265625 -3.859375q1.28125 -1.375 3.328125 -1.375q1.984375 0 3.234375 1.34375q1.25 1.34375 1.25 3.796875q0 0.140625 -0.015625 0.4375l-7.34375 0q0.09375 1.625 0.921875 2.484375q0.828125 0.859375 2.0625 0.859375q0.90625 0 1.546875 -0.46875q0.65625 -0.484375 1.046875 -1.546875zm-5.484375 -2.703125l5.5 0q-0.109375 -1.234375 -0.625 -1.859375q-0.796875 -0.96875 -2.078125 -0.96875q-1.140625 0 -1.9375 0.78125q-0.78125 0.765625 -0.859375 2.046875zm9.094467 5.875l0 -9.859375l1.5 0l0 1.5q0.578125 -1.046875 1.0625 -1.375q0.484375 -0.34375 1.078125 -0.34375q0.84375 0 1.71875 0.546875l-0.578125 1.546875q-0.609375 -0.359375 -1.234375 -0.359375q-0.546875 0 -0.984375 0.328125q-0.421875 0.328125 -0.609375 0.90625q-0.28125 0.890625 -0.28125 1.953125l0 5.15625l-1.671875 0zm8.962677 0l-3.75 -9.859375l1.765625 0l2.125 5.90625q0.34375 0.953125 0.625 1.984375q0.21875 -0.78125 0.625 -1.875l2.1875 -6.015625l1.71875 0l-3.734375 9.859375l-1.5625 0zm13.343765 -3.171875l1.71875 0.21875q-0.40625 1.5 -1.515625 2.34375q-1.09375 0.828125 -2.8125 0.828125q-2.15625 0 -3.421875 -1.328125q-1.2656403 -1.328125 -1.2656403 -3.734375q0 -2.484375 1.2656403 -3.859375q1.28125 -1.375 3.328125 -1.375q1.984375 0 3.234375 1.34375q1.25 1.34375 1.25 3.796875q0 0.140625 -0.015625 0.4375l-7.34375 0q0.09375 1.625 0.921875 2.484375q0.828125 0.859375 2.0625 0.859375q0.90625 0 1.546875 -0.46875q0.65625 -0.484375 1.046875 -1.546875zm-5.484375 -2.703125l5.5 0q-0.109375 -1.234375 -0.625 -1.859375q-0.796875 -0.96875 -2.078125 -0.96875q-1.140625 0 -1.9375 0.78125q-0.78125 0.765625 -0.859375 2.046875zm9.094452 5.875l0 -9.859375l1.5 0l0 1.5q0.578125 -1.046875 1.0625 -1.375q0.484375 -0.34375 1.078125 -0.34375q0.84375 0 1.71875 0.546875l-0.578125 1.546875q-0.609375 -0.359375 -1.234375 -0.359375q-0.546875 0 -0.984375 0.328125q-0.421875 0.328125 -0.609375 0.90625q-0.28125 0.890625 -0.28125 1.953125l0 5.15625l-1.671875 0z" fill-rule="nonzero"></path><path fill="#cccccc" d="m599.6982 142.55905l144.0 0l0 94.3307l-144.0 0z" fill-rule="nonzero"></path><path stroke="#666666" stroke-width="2.0" stroke-linejoin="round" stroke-linecap="butt" d="m599.6982 142.55905l144.0 0l0 94.3307l-144.0 0z" fill-rule="nonzero"></path><path fill="#000000" d="m645.0833 192.26941l1.6875 -0.140625q0.125 1.015625 0.5625 1.671875q0.4375 0.65625 1.359375 1.0625q0.9375 0.40625 2.09375 0.40625q1.03125 0 1.8125 -0.3125q0.796875 -0.3125 1.1875 -0.84375q0.390625 -0.53125 0.390625 -1.15625q0 -0.640625 -0.375 -1.109375q-0.375 -0.484375 -1.234375 -0.8125q-0.546875 -0.21875 -2.421875 -0.65625q-1.875 -0.453125 -2.625 -0.859375q-0.96875 -0.515625 -1.453125 -1.265625q-0.46875 -0.75 -0.46875 -1.6875q0 -1.03125 0.578125 -1.921875q0.59375 -0.90625 1.703125 -1.359375q1.125 -0.46875 2.5 -0.46875q1.515625 0 2.671875 0.484375q1.15625 0.484375 1.765625 1.4375q0.625 0.9375 0.671875 2.140625l-1.71875 0.125q-0.140625 -1.28125 -0.953125 -1.9375q-0.796875 -0.671875 -2.359375 -0.671875q-1.625 0 -2.375 0.609375q-0.75 0.59375 -0.75 1.4375q0 0.734375 0.53125 1.203125q0.515625 0.46875 2.703125 0.96875q2.203125 0.5 3.015625 0.875q1.1875 0.546875 1.75 1.390625q0.578125 0.828125 0.578125 1.921875q0 1.09375 -0.625 2.0625q-0.625 0.953125 -1.796875 1.484375q-1.15625 0.53125 -2.609375 0.53125q-1.84375 0 -3.09375 -0.53125q-1.25 -0.546875 -1.96875 -1.625q-0.703125 -1.078125 -0.734375 -2.453125zm19.584167 1.203125l1.71875 0.21875q-0.40625 1.5 -1.515625 2.34375q-1.09375 0.828125 -2.8125 0.828125q-2.15625 0 -3.421875 -1.328125q-1.265625 -1.328125 -1.265625 -3.734375q0 -2.484375 1.265625 -3.859375q1.28125 -1.375 3.328125 -1.375q1.984375 0 3.234375 1.34375q1.25 1.34375 1.25 3.796875q0 0.140625 -0.015625 0.4375l-7.34375 0q0.09375 1.625 0.921875 2.484375q0.828125 0.859375 2.0625 0.859375q0.90625 0 1.546875 -0.46875q0.65625 -0.484375 1.046875 -1.546875zm-5.484375 -2.703125l5.5 0q-0.109375 -1.234375 -0.625 -1.859375q-0.796875 -0.96875 -2.078125 -0.96875q-1.140625 0 -1.9375 0.78125q-0.78125 0.765625 -0.859375 2.046875zm9.094482 5.875l0 -9.859375l1.5 0l0 1.5q0.578125 -1.046875 1.0625 -1.375q0.484375 -0.34375 1.078125 -0.34375q0.84375 0 1.71875 0.546875l-0.578125 1.546875q-0.609375 -0.359375 -1.234375 -0.359375q-0.546875 0 -0.984375 0.328125q-0.421875 0.328125 -0.609375 0.90625q-0.28125 0.890625 -0.28125 1.953125l0 5.15625l-1.671875 0zm8.9626465 0l-3.75 -9.859375l1.765625 0l2.125 5.90625q0.34375 0.953125 0.625 1.984375q0.21875 -0.78125 0.625 -1.875l2.1875 -6.015625l1.71875 0l-3.734375 9.859375l-1.5625 0zm13.34375 -3.171875l1.71875 0.21875q-0.40625 1.5 -1.515625 2.34375q-1.09375 0.828125 -2.8125 0.828125q-2.15625 0 -3.421875 -1.328125q-1.265625 -1.328125 -1.265625 -3.734375q0 -2.484375 1.265625 -3.859375q1.28125 -1.375 3.328125 -1.375q1.984375 0 3.234375 1.34375q1.25 1.34375 1.25 3.796875q0 0.140625 -0.015625 0.4375l-7.34375 0q0.09375 1.625 0.921875 2.484375q0.828125 0.859375 2.0625 0.859375q0.90625 0 1.546875 -0.46875q0.65625 -0.484375 1.046875 -1.546875zm-5.484375 -2.703125l5.5 0q-0.109375 -1.234375 -0.625 -1.859375q-0.796875 -0.96875 -2.078125 -0.96875q-1.140625 0 -1.9375 0.78125q-0.78125 0.765625 -0.859375 2.046875zm9.094482 5.875l0 -9.859375l1.5 0l0 1.5q0.578125 -1.046875 1.0625 -1.375q0.484375 -0.34375 1.078125 -0.34375q0.84375 0 1.71875 0.546875l-0.578125 1.546875q-0.609375 -0.359375 -1.234375 -0.359375q-0.546875 0 -0.984375 0.328125q-0.421875 0.328125 -0.609375 0.90625q-0.28125 0.890625 -0.28125 1.953125l0 5.15625l-1.671875 0z" fill-rule="nonzero"></path><path fill="#000000" fill-opacity="0.0" d="m175.28159 349.22308l68.79715 -112.33333" fill-rule="nonzero"></path><path stroke="#666666" stroke-width="1.0" stroke-linejoin="round" stroke-linecap="butt" d="m177.07146 346.30057l65.21741 -106.48825" fill-rule="evenodd"></path><path fill="#666666" stroke="#666666" stroke-width="1.0" stroke-linecap="butt" d="m177.07146 346.30057l-0.37168884 -1.5463867l-0.65467834 3.222229l2.5727234 -2.0475464z" fill-rule="evenodd"></path><path fill="#666666" stroke="#666666" stroke-width="1.0" stroke-linecap="butt" d="m242.28886 239.8123l0.37167358 1.5463715l0.6546936 -3.222229l-2.5727234 2.0475464z" fill-rule="evenodd"></path><path fill="#000000" fill-opacity="0.0" d="m320.51968 349.2362l-76.44095 -112.34645" fill-rule="nonzero"></path><path stroke="#666666" stroke-width="1.0" stroke-linejoin="round" stroke-linecap="butt" d="m318.59183 346.4028l-72.58522 -106.67963" fill-rule="evenodd"></path><path fill="#666666" stroke="#666666" stroke-width="1.0" stroke-linecap="butt" d="m318.59183 346.4028l-1.5624084 -0.29714966l2.6678772 1.9219055l-0.8083191 -3.1871338z" fill-rule="evenodd"></path><path fill="#666666" stroke="#666666" stroke-width="1.0" stroke-linecap="butt" d="m246.0066 239.72318l1.5623932 0.29716492l-2.6678772 -1.9219208l0.80833435 3.187149z" fill-rule="evenodd"></path><path fill="#000000" fill-opacity="0.0" d="m592.4987 349.22308l79.19946 -112.33333" fill-rule="nonzero"></path><path stroke="#666666" stroke-width="1.0" stroke-linejoin="round" stroke-linecap="butt" d="m594.47345 346.42215l75.24994 -106.731445" fill-rule="evenodd"></path><path fill="#666666" stroke="#666666" stroke-width="1.0" stroke-linecap="butt" d="m594.47345 346.42218l-0.27111816 -1.5671387l-0.8612671 3.1732483l2.699524 -1.8772278z" fill-rule="evenodd"></path><path fill="#666666" stroke="#666666" stroke-width="1.0" stroke-linecap="butt" d="m669.7234 239.69069l0.27111816 1.5671234l0.8612671 -3.1732483l-2.699524 1.8772278z" fill-rule="evenodd"></path><path fill="#000000" fill-opacity="0.0" d="m737.7392 349.22308l-66.041016 -112.33333" fill-rule="nonzero"></path><path stroke="#666666" stroke-width="1.0" stroke-linejoin="round" stroke-linecap="butt" d="m736.0023 346.26874l-62.56726 -106.42462" fill-rule="evenodd"></path><path fill="#666666" stroke="#666666" stroke-width="1.0" stroke-linecap="butt" d="m736.0023 346.26874l-1.5394287 -0.39950562l2.5354004 2.093628l-0.5964966 -3.2335205z" fill-rule="evenodd"></path><path fill="#666666" stroke="#666666" stroke-width="1.0" stroke-linecap="butt" d="m673.43506 239.84412l1.5393677 0.39950562l-2.5353394 -2.0936127l0.59643555 3.2335052z" fill-rule="evenodd"></path><path fill="#cccccc" d="m172.08661 216.73228l144.0 0l0 20.157486l-144.0 0z" fill-rule="nonzero"></path><path stroke="#666666" stroke-width="2.0" stroke-linejoin="round" stroke-linecap="butt" d="m172.08661 216.73228l144.0 0l0 20.157486l-144.0 0z" fill-rule="nonzero"></path><path fill="#000000" d="m188.72723 228.3454l1.234375 0.3125q-0.390625 1.515625 -1.40625 2.3125q-1.0 0.796875 -2.453125 0.796875q-1.5 0 -2.453125 -0.609375q-0.9375 -0.609375 -1.4375 -1.765625q-0.484375 -1.171875 -0.484375 -2.5q0 -1.453125 0.5625 -2.53125q0.5625 -1.09375 1.578125 -1.65625q1.03125 -0.5625 2.265625 -0.5625q1.390625 0 2.34375 0.71875q0.953125 0.703125 1.328125 2.0l-1.21875 0.28125q-0.328125 -1.015625 -0.9375 -1.46875q-0.609375 -0.46875 -1.546875 -0.46875q-1.078125 0 -1.796875 0.515625q-0.71875 0.515625 -1.015625 1.375q-0.28125 0.859375 -0.28125 1.78125q0 1.1875 0.34375 2.078125q0.34375 0.890625 1.0625 1.328125q0.734375 0.4375 1.59375 0.4375q1.03125 0 1.75 -0.59375q0.71875 -0.609375 0.96875 -1.78125zm2.8439026 3.265625l0 -9.3125l1.140625 0l0 3.34375q0.796875 -0.921875 2.015625 -0.921875q0.75 0 1.296875 0.296875q0.5625 0.296875 0.796875 0.8125q0.234375 0.515625 0.234375 1.515625l0 4.265625l-1.140625 0l0 -4.265625q0 -0.859375 -0.375 -1.25q-0.359375 -0.390625 -1.046875 -0.390625q-0.5 0 -0.953125 0.265625q-0.453125 0.25 -0.640625 0.703125q-0.1875 0.453125 -0.1875 1.25l0 3.6875l-1.140625 0zm11.803101 -0.828125q-0.625 0.53125 -1.21875 0.765625q-0.578125 0.21875 -1.25 0.21875q-1.125 0 -1.71875 -0.546875q-0.59375 -0.546875 -0.59375 -1.390625q0 -0.484375 0.21875 -0.890625q0.234375 -0.421875 0.59375 -0.671875q0.375 -0.25 0.828125 -0.375q0.328125 -0.078125 1.015625 -0.171875q1.375 -0.15625 2.03125 -0.390625q0.015625 -0.234375 0.015625 -0.296875q0 -0.703125 -0.328125 -0.984375q-0.4375 -0.390625 -1.296875 -0.390625q-0.8125 0 -1.203125 0.28125q-0.375 0.28125 -0.5625 1.0l-1.109375 -0.140625q0.140625 -0.71875 0.484375 -1.15625q0.359375 -0.453125 1.015625 -0.6875q0.671875 -0.234375 1.53125 -0.234375q0.875 0 1.40625 0.203125q0.546875 0.203125 0.796875 0.515625q0.25 0.296875 0.359375 0.765625q0.046875 0.296875 0.046875 1.0625l0 1.515625q0 1.59375 0.078125 2.015625q0.078125 0.421875 0.28125 0.8125l-1.1875 0q-0.171875 -0.359375 -0.234375 -0.828125zm-0.09375 -2.5625q-0.625 0.265625 -1.859375 0.4375q-0.703125 0.109375 -1.0 0.234375q-0.296875 0.125 -0.453125 0.375q-0.15625 0.234375 -0.15625 0.53125q0 0.453125 0.34375 0.765625q0.34375 0.296875 1.015625 0.296875q0.65625 0 1.171875 -0.28125q0.515625 -0.296875 0.765625 -0.796875q0.171875 -0.375 0.171875 -1.140625l0 -0.421875zm3.1156006 -4.59375l0 -1.328125l1.140625 0l0 1.328125l-1.140625 0zm0 7.984375l0 -6.734375l1.140625 0l0 6.734375l-1.140625 0zm2.96109 0l0 -6.734375l1.03125 0l0 0.953125q0.734375 -1.109375 2.140625 -1.109375q0.609375 0 1.109375 0.21875q0.515625 0.21875 0.765625 0.578125q0.265625 0.34375 0.359375 0.84375q0.0625 0.3125 0.0625 1.109375l0 4.140625l-1.140625 0l0 -4.09375q0 -0.703125 -0.140625 -1.046875q-0.125 -0.34375 -0.46875 -0.546875q-0.328125 -0.21875 -0.78125 -0.21875q-0.734375 0 -1.265625 0.46875q-0.53125 0.453125 -0.53125 1.75l0 3.6875l-1.140625 0zm10.240463 0l3.578125 -9.3125l1.3125 0l3.8125 9.3125l-1.40625 0l-1.078125 -2.8125l-3.890625 0l-1.03125 2.8125l-1.296875 0zm2.6875 -3.828125l3.15625 0l-0.984375 -2.578125q-0.4375 -1.171875 -0.65625 -1.921875q-0.171875 0.890625 -0.5 1.78125l-1.015625 2.71875zm7.2178802 3.828125l0 -9.3125l3.515625 0q0.921875 0 1.40625 0.09375q0.6875 0.109375 1.15625 0.4375q0.46875 0.3125 0.75 0.890625q0.28125 0.578125 0.28125 1.28125q0 1.1875 -0.765625 2.015625q-0.75 0.8125 -2.71875 0.8125l-2.390625 0l0 3.78125l-1.234375 0zm1.234375 -4.875l2.40625 0q1.1875 0 1.6875 -0.4375q0.515625 -0.453125 0.515625 -1.265625q0 -0.578125 -0.296875 -0.984375q-0.296875 -0.421875 -0.78125 -0.5625q-0.3125 -0.078125 -1.15625 -0.078125l-2.375 0l0 3.328125zm7.8741302 4.875l0 -9.3125l1.21875 0l0 9.3125l-1.21875 0z" fill-rule="nonzero"></path><path fill="#cccccc" d="m599.6982 216.73228l143.9685 0l0 20.157486l-143.9685 0z" fill-rule="nonzero"></path><path stroke="#666666" stroke-width="2.0" stroke-linejoin="round" stroke-linecap="butt" d="m599.6982 216.73228l143.9685 0l0 20.157486l-143.9685 0z" fill-rule="nonzero"></path><path fill="#000000" d="m616.3388 228.3454l1.234375 0.3125q-0.390625 1.515625 -1.40625 2.3125q-1.0 0.796875 -2.453125 0.796875q-1.5 0 -2.453125 -0.609375q-0.9375 -0.609375 -1.4375 -1.765625q-0.484375 -1.171875 -0.484375 -2.5q0 -1.453125 0.5625 -2.53125q0.5625 -1.09375 1.578125 -1.65625q1.03125 -0.5625 2.265625 -0.5625q1.390625 0 2.34375 0.71875q0.953125 0.703125 1.328125 2.0l-1.21875 0.28125q-0.328125 -1.015625 -0.9375 -1.46875q-0.609375 -0.46875 -1.546875 -0.46875q-1.078125 0 -1.796875 0.515625q-0.71875 0.515625 -1.015625 1.375q-0.28125 0.859375 -0.28125 1.78125q0 1.1875 0.34375 2.078125q0.34375 0.890625 1.0625 1.328125q0.734375 0.4375 1.59375 0.4375q1.03125 0 1.75 -0.59375q0.71875 -0.609375 0.96875 -1.78125zm2.843872 3.265625l0 -9.3125l1.140625 0l0 3.34375q0.796875 -0.921875 2.015625 -0.921875q0.75 0 1.296875 0.296875q0.5625 0.296875 0.796875 0.8125q0.234375 0.515625 0.234375 1.515625l0 4.265625l-1.140625 0l0 -4.265625q0 -0.859375 -0.375 -1.25q-0.359375 -0.390625 -1.046875 -0.390625q-0.5 0 -0.953125 0.265625q-0.453125 0.25 -0.640625 0.703125q-0.1875 0.453125 -0.1875 1.25l0 3.6875l-1.140625 0zm11.803101 -0.828125q-0.625 0.53125 -1.21875 0.765625q-0.578125 0.21875 -1.25 0.21875q-1.125 0 -1.71875 -0.546875q-0.59375 -0.546875 -0.59375 -1.390625q0 -0.484375 0.21875 -0.890625q0.234375 -0.421875 0.59375 -0.671875q0.375 -0.25 0.828125 -0.375q0.328125 -0.078125 1.015625 -0.171875q1.375 -0.15625 2.03125 -0.390625q0.015625 -0.234375 0.015625 -0.296875q0 -0.703125 -0.328125 -0.984375q-0.4375 -0.390625 -1.296875 -0.390625q-0.8125 0 -1.203125 0.28125q-0.375 0.28125 -0.5625 1.0l-1.109375 -0.140625q0.140625 -0.71875 0.484375 -1.15625q0.359375 -0.453125 1.015625 -0.6875q0.671875 -0.234375 1.53125 -0.234375q0.875 0 1.40625 0.203125q0.546875 0.203125 0.796875 0.515625q0.25 0.296875 0.359375 0.765625q0.046875 0.296875 0.046875 1.0625l0 1.515625q0 1.59375 0.078125 2.015625q0.078125 0.421875 0.28125 0.8125l-1.1875 0q-0.171875 -0.359375 -0.234375 -0.828125zm-0.09375 -2.5625q-0.625 0.265625 -1.859375 0.4375q-0.703125 0.109375 -1.0 0.234375q-0.296875 0.125 -0.453125 0.375q-0.15625 0.234375 -0.15625 0.53125q0 0.453125 0.34375 0.765625q0.34375 0.296875 1.015625 0.296875q0.65625 0 1.171875 -0.28125q0.515625 -0.296875 0.765625 -0.796875q0.171875 -0.375 0.171875 -1.140625l0 -0.421875zm3.1156006 -4.59375l0 -1.328125l1.140625 0l0 1.328125l-1.140625 0zm0 7.984375l0 -6.734375l1.140625 0l0 6.734375l-1.140625 0zm2.9611206 0l0 -6.734375l1.03125 0l0 0.953125q0.734375 -1.109375 2.140625 -1.109375q0.609375 0 1.109375 0.21875q0.515625 0.21875 0.765625 0.578125q0.265625 0.34375 0.359375 0.84375q0.0625 0.3125 0.0625 1.109375l0 4.140625l-1.140625 0l0 -4.09375q0 -0.703125 -0.140625 -1.046875q-0.125 -0.34375 -0.46875 -0.546875q-0.328125 -0.21875 -0.78125 -0.21875q-0.734375 0 -1.265625 0.46875q-0.53125 0.453125 -0.53125 1.75l0 3.6875l-1.140625 0zm10.2404175 0l3.578125 -9.3125l1.3125 0l3.8125 9.3125l-1.40625 0l-1.078125 -2.8125l-3.890625 0l-1.03125 2.8125l-1.296875 0zm2.6875 -3.828125l3.15625 0l-0.984375 -2.578125q-0.4375 -1.171875 -0.65625 -1.921875q-0.171875 0.890625 -0.5 1.78125l-1.015625 2.71875zm7.2178955 3.828125l0 -9.3125l3.515625 0q0.921875 0 1.40625 0.09375q0.6875 0.109375 1.15625 0.4375q0.46875 0.3125 0.75 0.890625q0.28125 0.578125 0.28125 1.28125q0 1.1875 -0.765625 2.015625q-0.75 0.8125 -2.71875 0.8125l-2.390625 0l0 3.78125l-1.234375 0zm1.234375 -4.875l2.40625 0q1.1875 0 1.6875 -0.4375q0.515625 -0.453125 0.515625 -1.265625q0 -0.578125 -0.296875 -0.984375q-0.296875 -0.421875 -0.78125 -0.5625q-0.3125 -0.078125 -1.15625 -0.078125l-2.375 0l0 3.328125zm7.8741455 4.875l0 -9.3125l1.21875 0l0 9.3125l-1.21875 0z" fill-rule="nonzero"></path><path fill="#cccccc" d="m419.28348 305.0315l0 0c0 -11.793671 9.560638 -21.35434 21.35431 -21.35434c11.793671 0 21.35434 9.560669 21.35434 21.35434c0 11.793671 -9.560669 21.35434 -21.35434 21.35434c-11.793671 0 -21.35431 -9.560669 -21.35431 -21.35434z" fill-rule="nonzero"></path><path fill="#a3a3a3" d="m431.57208 298.64496c0 -1.2284851 0.99591064 -2.2243958 2.2244263 -2.2243958c1.2284851 0 2.2243958 0.99591064 2.2243958 2.2243958c0 1.2285156 -0.99591064 2.2244263 -2.2243958 2.2244263c-1.2285156 0 -2.2244263 -0.99591064 -2.2244263 -2.2244263m13.682587 0c0 -1.2284851 0.99591064 -2.2243958 2.2244263 -2.2243958c1.2285156 0 2.2243958 0.99591064 2.2243958 2.2243958c0 1.2285156 -0.9958801 2.2244263 -2.2243958 2.2244263c-1.2285156 0 -2.2244263 -0.99591064 -2.2244263 -2.2244263" fill-rule="nonzero"></path><path fill="#000000" fill-opacity="0.0" d="m429.0636 314.34427q11.574188 7.948944 23.121368 0" fill-rule="nonzero"></path><path fill="#000000" fill-opacity="0.0" d="m419.28348 305.0315l0 0c0 -11.793671 9.560638 -21.35434 21.35431 -21.35434c11.793671 0 21.35434 9.560669 21.35434 21.35434c0 11.793671 -9.560669 21.35434 -21.35434 21.35434c-11.793671 0 -21.35431 -9.560669 -21.35431 -21.35434z" fill-rule="nonzero"></path><path stroke="#666666" stroke-width="2.0" stroke-linejoin="round" stroke-linecap="butt" d="m431.57208 298.64496c0 -1.2284851 0.99591064 -2.2243958 2.2244263 -2.2243958c1.2284851 0 2.2243958 0.99591064 2.2243958 2.2243958c0 1.2285156 -0.99591064 2.2244263 -2.2243958 2.2244263c-1.2285156 0 -2.2244263 -0.99591064 -2.2244263 -2.2244263m13.682587 0c0 -1.2284851 0.99591064 -2.2243958 2.2244263 -2.2243958c1.2285156 0 2.2243958 0.99591064 2.2243958 2.2243958c0 1.2285156 -0.9958801 2.2244263 -2.2243958 2.2244263c-1.2285156 0 -2.2244263 -0.99591064 -2.2244263 -2.2244263" fill-rule="nonzero"></path><path stroke="#666666" stroke-width="2.0" stroke-linejoin="round" stroke-linecap="butt" d="m429.0636 314.34427q11.574188 7.948944 23.121368 0" fill-rule="nonzero"></path><path stroke="#666666" stroke-width="2.0" stroke-linejoin="round" stroke-linecap="butt" d="m419.28348 305.0315l0 0c0 -11.793671 9.560638 -21.35434 21.35431 -21.35434c11.793671 0 21.35434 9.560669 21.35434 21.35434c0 11.793671 -9.560669 21.35434 -21.35434 21.35434c-11.793671 0 -21.35431 -9.560669 -21.35431 -21.35434z" fill-rule="nonzero"></path><path fill="#000000" fill-opacity="0.0" d="m413.2047 320.39633l54.86615 0l0 20.15747l-54.86615 0z" fill-rule="nonzero"></path><path fill="#000000" d="m429.84534 338.9307l1.234375 0.3125q-0.390625 1.515625 -1.40625 2.3125q-1.0 0.796875 -2.453125 0.796875q-1.5 0 -2.453125 -0.609375q-0.9375 -0.609375 -1.4375 -1.765625q-0.484375 -1.171875 -0.484375 -2.5q0 -1.453125 0.5625 -2.53125q0.5625 -1.09375 1.578125 -1.65625q1.03125 -0.5625 2.265625 -0.5625q1.390625 0 2.34375 0.71875q0.953125 0.703125 1.328125 2.0l-1.21875 0.28125q-0.328125 -1.015625 -0.9375 -1.46875q-0.609375 -0.46875 -1.546875 -0.46875q-1.078125 0 -1.796875 0.515625q-0.71875 0.515625 -1.015625 1.375q-0.28125 0.859375 -0.28125 1.78125q0 1.1875 0.34375 2.078125q0.34375 0.890625 1.0625 1.328125q0.734375 0.4375 1.59375 0.4375q1.03125 0 1.75 -0.59375q0.71875 -0.609375 0.96875 -1.78125zm2.8126526 3.265625l0 -9.3125l1.140625 0l0 9.3125l-1.140625 0zm2.99234 -7.984375l0 -1.328125l1.140625 0l0 1.328125l-1.140625 0zm0 7.984375l0 -6.734375l1.140625 0l0 6.734375l-1.140625 0zm7.570465 -2.171875l1.1875 0.140625q-0.28125 1.046875 -1.046875 1.625q-0.75 0.5625 -1.921875 0.5625q-1.484375 0 -2.359375 -0.90625q-0.859375 -0.921875 -0.859375 -2.5625q0 -1.703125 0.875 -2.640625q0.890625 -0.9375 2.28125 -0.9375q1.359375 0 2.203125 0.921875q0.859375 0.921875 0.859375 2.578125q0 0.109375 0 0.3125l-5.03125 0q0.0625 1.109375 0.625 1.703125q0.5625 0.59375 1.40625 0.59375q0.640625 0 1.078125 -0.328125q0.453125 -0.34375 0.703125 -1.0625zm-3.75 -1.84375l3.765625 0q-0.078125 -0.859375 -0.4375 -1.28125q-0.546875 -0.65625 -1.40625 -0.65625q-0.796875 0 -1.328125 0.53125q-0.53125 0.515625 -0.59375 1.40625zm6.5531006 4.015625l0 -6.734375l1.03125 0l0 0.953125q0.734375 -1.109375 2.140625 -1.109375q0.609375 0 1.109375 0.21875q0.515625 0.21875 0.765625 0.578125q0.265625 0.34375 0.359375 0.84375q0.0625 0.3125 0.0625 1.109375l0 4.140625l-1.140625 0l0 -4.09375q0 -0.703125 -0.140625 -1.046875q-0.125 -0.34375 -0.46875 -0.546875q-0.328125 -0.21875 -0.78125 -0.21875q-0.734375 0 -1.265625 0.46875q-0.53125 0.453125 -0.53125 1.75l0 3.6875l-1.140625 0zm9.912476 -1.015625l0.15625 1.0q-0.484375 0.109375 -0.859375 0.109375q-0.625 0 -0.96875 -0.203125q-0.34375 -0.203125 -0.484375 -0.515625q-0.140625 -0.328125 -0.140625 -1.34375l0 -3.890625l-0.828125 0l0 -0.875l0.828125 0l0 -1.671875l1.140625 -0.6875l0 2.359375l1.15625 0l0 0.875l-1.15625 0l0 3.953125q0 0.484375 0.0625 0.625q0.0625 0.140625 0.1875 0.21875q0.140625 0.078125 0.390625 0.078125q0.203125 0 0.515625 -0.03125z" fill-rule="nonzero"></path><path fill="#000000" fill-opacity="0.0" d="m425.538 289.9317l-109.451385 -63.12068" fill-rule="nonzero"></path><path stroke="#666666" stroke-width="1.0" stroke-linejoin="round" stroke-linecap="butt" d="m425.53802 289.9317l-106.482635 -61.40857" fill-rule="evenodd"></path><path fill="#666666" stroke="#666666" stroke-width="1.0" stroke-linecap="butt" d="m319.0554 228.52312l1.5360107 -0.41236877l-3.2383728 -0.569397l2.114746 2.5177765z" fill-rule="evenodd"></path><path fill="#000000" fill-opacity="0.0" d="m455.73758 289.9317l143.9606 -63.12068" fill-rule="nonzero"></path><path stroke="#666666" stroke-width="1.0" stroke-linejoin="round" stroke-linecap="butt" d="m455.73758 289.9317l138.4656 -60.71135" fill-rule="evenodd"></path><path fill="#666666" stroke="#666666" stroke-width="1.0" stroke-linecap="butt" d="m594.8664 230.73306l3.49292 -3.3350067l-4.819397 0.30958557z" fill-rule="evenodd"></path><path fill="#000000" fill-opacity="0.0" d="m317.52493 227.50394l282.17325 -0.69291687" fill-rule="nonzero"></path><path stroke="#666666" stroke-width="1.0" stroke-linejoin="round" stroke-linecap="butt" stroke-dasharray="1.0,3.0" d="m317.52493 227.50394l278.74612 -0.6845093" fill-rule="evenodd"></path><path fill="#666666" stroke="#666666" stroke-width="1.0" stroke-linecap="butt" d="m596.27106 226.81944l-1.1217651 1.1273346l3.086975 -1.1321564l-3.0925293 -1.1170044z" fill-rule="evenodd"></path><path fill="#000000" fill-opacity="0.0" d="m340.03937 200.6693l201.19684 0l0 31.874008l-201.19684 0z" fill-rule="nonzero"></path><path fill="#000000" d="m386.40085 222.46928l0 -9.3125l1.234375 0l0 8.21875l4.578125 0l0 1.09375l-5.8125 0zm7.3187256 -7.984375l0 -1.328125l1.140625 0l0 1.328125l-1.140625 0zm0 7.984375l0 -6.734375l1.140625 0l0 6.734375l-1.140625 0zm2.96109 0l0 -6.734375l1.03125 0l0 0.953125q0.734375 -1.109375 2.140625 -1.109375q0.609375 0 1.109375 0.21875q0.515625 0.21875 0.765625 0.578125q0.265625 0.34375 0.359375 0.84375q0.0625 0.3125 0.0625 1.109375l0 4.140625l-1.140625 0l0 -4.09375q0 -0.703125 -0.140625 -1.046875q-0.125 -0.34375 -0.46875 -0.546875q-0.328125 -0.21875 -0.78125 -0.21875q-0.734375 0 -1.265625 0.46875q-0.53125 0.453125 -0.53125 1.75l0 3.6875l-1.140625 0zm7.4124756 0l0 -9.3125l1.140625 0l0 5.3125l2.703125 -2.734375l1.484375 0l-2.578125 2.5l2.84375 4.234375l-1.40625 0l-2.234375 -3.453125l-0.8125 0.78125l0 2.671875l-1.140625 0zm12.554535 2.734375q-0.953125 -1.1875 -1.609375 -2.78125q-0.65625 -1.609375 -0.65625 -3.328125q0 -1.5 0.5 -2.890625q0.5625 -1.609375 1.765625 -3.203125l0.8125 0q-0.765625 1.328125 -1.015625 1.890625q-0.390625 0.875 -0.609375 1.828125q-0.265625 1.1875 -0.265625 2.390625q0 3.046875 1.890625 6.09375l-0.8125 0zm2.407135 -2.734375l0 -9.3125l4.125 0q1.25 0 1.890625 0.265625q0.65625 0.25 1.046875 0.890625q0.390625 0.625 0.390625 1.390625q0 0.984375 -0.65625 1.671875q-0.640625 0.671875 -1.96875 0.859375q0.484375 0.234375 0.734375 0.46875q0.546875 0.484375 1.03125 1.234375l1.609375 2.53125l-1.546875 0l-1.234375 -1.9375q-0.53125 -0.84375 -0.890625 -1.28125q-0.34375 -0.4375 -0.625 -0.609375q-0.265625 -0.1875 -0.546875 -0.265625q-0.21875 -0.03125 -0.6875 -0.03125l-1.4375 0l0 4.125l-1.234375 0zm1.234375 -5.203125l2.65625 0q0.84375 0 1.3125 -0.171875q0.484375 -0.171875 0.71875 -0.546875q0.25 -0.390625 0.25 -0.84375q0 -0.65625 -0.484375 -1.078125q-0.46875 -0.4375 -1.5 -0.4375l-2.953125 0l0 3.078125zm12.843903 3.03125l1.1875 0.140625q-0.28125 1.046875 -1.046875 1.625q-0.75 0.5625 -1.921875 0.5625q-1.484375 0 -2.359375 -0.90625q-0.859375 -0.921875 -0.859375 -2.5625q0 -1.703125 0.875 -2.640625q0.890625 -0.9375 2.28125 -0.9375q1.359375 0 2.203125 0.921875q0.859375 0.921875 0.859375 2.578125q0 0.109375 0 0.3125l-5.03125 0q0.0625 1.109375 0.625 1.703125q0.5625 0.59375 1.40625 0.59375q0.640625 0 1.078125 -0.328125q0.453125 -0.34375 0.703125 -1.0625zm-3.75 -1.84375l3.765625 0q-0.078125 -0.859375 -0.4375 -1.28125q-0.546875 -0.65625 -1.40625 -0.65625q-0.796875 0 -1.328125 0.53125q-0.53125 0.515625 -0.59375 1.40625zm6.5218506 4.015625l0 -9.3125l1.140625 0l0 9.3125l-1.140625 0zm7.382965 -0.828125q-0.625 0.53125 -1.21875 0.765625q-0.578125 0.21875 -1.25 0.21875q-1.125 0 -1.71875 -0.546875q-0.59375 -0.546875 -0.59375 -1.390625q0 -0.484375 0.21875 -0.890625q0.234375 -0.421875 0.59375 -0.671875q0.375 -0.25 0.828125 -0.375q0.328125 -0.078125 1.015625 -0.171875q1.375 -0.15625 2.03125 -0.390625q0.015625 -0.234375 0.015625 -0.296875q0 -0.703125 -0.328125 -0.984375q-0.4375 -0.390625 -1.296875 -0.390625q-0.8125 0 -1.203125 0.28125q-0.375 0.28125 -0.5625 1.0l-1.109375 -0.140625q0.140625 -0.71875 0.484375 -1.15625q0.359375 -0.453125 1.015625 -0.6875q0.671875 -0.234375 1.53125 -0.234375q0.875 0 1.40625 0.203125q0.546875 0.203125 0.796875 0.515625q0.25 0.296875 0.359375 0.765625q0.046875 0.296875 0.046875 1.0625l0 1.515625q0 1.59375 0.078125 2.015625q0.078125 0.421875 0.28125 0.8125l-1.1875 0q-0.171875 -0.359375 -0.234375 -0.828125zm-0.09375 -2.5625q-0.625 0.265625 -1.859375 0.4375q-0.703125 0.109375 -1.0 0.234375q-0.296875 0.125 -0.453125 0.375q-0.15625 0.234375 -0.15625 0.53125q0 0.453125 0.34375 0.765625q0.34375 0.296875 1.015625 0.296875q0.65625 0 1.171875 -0.28125q0.515625 -0.296875 0.765625 -0.796875q0.171875 -0.375 0.171875 -1.140625l0 -0.421875zm5.6156006 2.375l0.15625 1.0q-0.484375 0.109375 -0.859375 0.109375q-0.625 0 -0.96875 -0.203125q-0.34375 -0.203125 -0.484375 -0.515625q-0.140625 -0.328125 -0.140625 -1.34375l0 -3.890625l-0.828125 0l0 -0.875l0.828125 0l0 -1.671875l1.140625 -0.6875l0 2.359375l1.15625 0l0 0.875l-1.15625 0l0 3.953125q0 0.484375 0.0625 0.625q0.0625 0.140625 0.1875 0.21875q0.140625 0.078125 0.390625 0.078125q0.203125 0 0.515625 -0.03125zm1.2029724 -6.96875l0 -1.328125l1.140625 0l0 1.328125l-1.140625 0zm0 7.984375l0 -6.734375l1.140625 0l0 6.734375l-1.140625 0zm2.539215 -3.375q0 -1.875 1.03125 -2.765625q0.875 -0.75 2.125 -0.75q1.390625 0 2.265625 0.90625q0.890625 0.90625 0.890625 2.515625q0 1.296875 -0.390625 2.046875q-0.390625 0.75 -1.140625 1.171875q-0.75 0.40625 -1.625 0.40625q-1.421875 0 -2.296875 -0.90625q-0.859375 -0.90625 -0.859375 -2.625zm1.171875 0q0 1.296875 0.5625 1.953125q0.5625 0.640625 1.421875 0.640625q0.84375 0 1.40625 -0.640625q0.578125 -0.65625 0.578125 -1.984375q0 -1.25 -0.578125 -1.890625q-0.5625 -0.65625 -1.40625 -0.65625q-0.859375 0 -1.421875 0.640625q-0.5625 0.640625 -0.5625 1.9375zm6.6624756 3.375l0 -6.734375l1.03125 0l0 0.953125q0.734375 -1.109375 2.140625 -1.109375q0.609375 0 1.109375 0.21875q0.515625 0.21875 0.765625 0.578125q0.265625 0.34375 0.359375 0.84375q0.0625 0.3125 0.0625 1.109375l0 4.140625l-1.140625 0l0 -4.09375q0 -0.703125 -0.140625 -1.046875q-0.125 -0.34375 -0.46875 -0.546875q-0.328125 -0.21875 -0.78125 -0.21875q-0.734375 0 -1.265625 0.46875q-0.53125 0.453125 -0.53125 1.75l0 3.6875l-1.140625 0zm6.9593506 -2.015625l1.125 -0.171875q0.09375 0.671875 0.53125 1.046875q0.4375 0.359375 1.21875 0.359375q0.78125 0 1.15625 -0.3125q0.390625 -0.328125 0.390625 -0.765625q0 -0.390625 -0.34375 -0.609375q-0.234375 -0.15625 -1.171875 -0.390625q-1.25 -0.3125 -1.734375 -0.546875q-0.484375 -0.234375 -0.734375 -0.640625q-0.25 -0.40625 -0.25 -0.90625q0 -0.453125 0.203125 -0.828125q0.203125 -0.390625 0.5625 -0.640625q0.265625 -0.203125 0.71875 -0.328125q0.46875 -0.140625 1.0 -0.140625q0.78125 0 1.375 0.234375q0.609375 0.21875 0.890625 0.609375q0.296875 0.390625 0.40625 1.046875l-1.125 0.15625q-0.078125 -0.53125 -0.4375 -0.8125q-0.359375 -0.296875 -1.03125 -0.296875q-0.78125 0 -1.125 0.265625q-0.34375 0.25 -0.34375 0.609375q0 0.21875 0.140625 0.390625q0.140625 0.1875 0.4375 0.3125q0.171875 0.0625 1.015625 0.28125q1.21875 0.328125 1.6875 0.53125q0.484375 0.203125 0.75 0.609375q0.28125 0.390625 0.28125 0.96875q0 0.578125 -0.34375 1.078125q-0.328125 0.5 -0.953125 0.78125q-0.625 0.28125 -1.421875 0.28125q-1.3125 0 -2.0 -0.546875q-0.6875 -0.546875 -0.875 -1.625zm7.1171875 2.015625l0 -9.3125l1.140625 0l0 3.34375q0.796875 -0.921875 2.015625 -0.921875q0.75 0 1.296875 0.296875q0.5625 0.296875 0.796875 0.8125q0.234375 0.515625 0.234375 1.515625l0 4.265625l-1.140625 0l0 -4.265625q0 -0.859375 -0.375 -1.25q-0.359375 -0.390625 -1.046875 -0.390625q-0.5 0 -0.953125 0.265625q-0.453125 0.25 -0.640625 0.703125q-0.1875 0.453125 -0.1875 1.25l0 3.6875l-1.140625 0zm7.4124756 -7.984375l0 -1.328125l1.140625 0l0 1.328125l-1.140625 0zm0 7.984375l0 -6.734375l1.140625 0l0 6.734375l-1.140625 0zm2.96109 2.578125l0 -9.3125l1.03125 0l0 0.875q0.375 -0.515625 0.828125 -0.765625q0.46875 -0.265625 1.140625 -0.265625q0.859375 0 1.515625 0.453125q0.65625 0.4375 0.984375 1.25q0.34375 0.796875 0.34375 1.765625q0 1.03125 -0.375 1.859375q-0.359375 0.828125 -1.078125 1.28125q-0.703125 0.4375 -1.484375 0.4375q-0.5625 0 -1.015625 -0.234375q-0.453125 -0.25 -0.75 -0.625l0 3.28125l-1.140625 0zm1.03125 -5.90625q0 1.296875 0.53125 1.921875q0.53125 0.625 1.265625 0.625q0.765625 0 1.3125 -0.640625q0.546875 -0.65625 0.546875 -2.0q0 -1.296875 -0.53125 -1.9375q-0.53125 -0.640625 -1.265625 -0.640625q-0.734375 0 -1.296875 0.6875q-0.5625 0.671875 -0.5625 1.984375zm7.1312256 6.0625l-0.828125 0q1.90625 -3.046875 1.90625 -6.09375q0 -1.203125 -0.28125 -2.375q-0.203125 -0.953125 -0.59375 -1.828125q-0.25 -0.5625 -1.03125 -1.90625l0.828125 0q1.1875 1.59375 1.765625 3.203125q0.484375 1.390625 0.484375 2.890625q0 1.71875 -0.65625 3.328125q-0.65625 1.59375 -1.59375 2.78125z" fill-rule="nonzero"></path></g></svg>

