<?xml version="1.0" standalone="yes"?>

<svg version="1.1" viewBox="0.0 0.0 960.0 540.0" fill="none" stroke="none" stroke-linecap="square" stroke-miterlimit="10" xmlns="http://www.w3.org/2000/svg" xmlns:xlink="http://www.w3.org/1999/xlink"><clipPath id="g3dd45fbab_0190.0"><path d="m0 0l960.0 0l0 540.0l-960.0 0l0 -540.0z" clip-rule="nonzero"></path></clipPath><g clip-path="url(#g3dd45fbab_0190.0)"><path fill="#000000" fill-opacity="0.0" d="m0 0l960.0 0l0 540.0l-960.0 0z" fill-rule="nonzero"></path><path fill="#cccccc" d="m106.62279 444.50525l0 0c0 -5.566345 4.5124054 -10.078735 10.078735 -10.078735l0 0c2.67305 0 5.236618 1.0618591 7.126747 2.9519958c1.8901291 1.8901367 2.9519958 4.453705 2.9519958 7.1267395l0 0c0 5.566345 -4.5124054 10.078735 -10.078743 10.078735l0 0c-5.56633 0 -10.078735 -4.51239 -10.078735 -10.078735z" fill-rule="nonzero"></path><path stroke="#666666" stroke-width="2.0" stroke-linejoin="round" stroke-linecap="butt" d="m106.62279 444.50525l0 0c0 -5.566345 4.5124054 -10.078735 10.078735 -10.078735l0 0c2.67305 0 5.236618 1.0618591 7.126747 2.9519958c1.8901291 1.8901367 2.9519958 4.453705 2.9519958 7.1267395l0 0c0 5.566345 -4.5124054 10.078735 -10.078743 10.078735l0 0c-5.56633 0 -10.078735 -4.51239 -10.078735 -10.078735z" fill-rule="nonzero"></path><path fill="#cccccc" d="m142.7829 444.50525l0 0c0 -5.566345 4.5124054 -10.078735 10.078735 -10.078735l0 0c2.67305 0 5.236618 1.0618591 7.1267395 2.9519958c1.8901367 1.8901367 2.9519958 4.453705 2.9519958 7.1267395l0 0c0 5.566345 -4.5124054 10.078735 -10.078735 10.078735l0 0c-5.56633 0 -10.078735 -4.51239 -10.078735 -10.078735z" fill-rule="nonzero"></path><path stroke="#666666" stroke-width="2.0" stroke-linejoin="round" stroke-linecap="butt" d="m142.7829 444.50525l0 0c0 -5.566345 4.5124054 -10.078735 10.078735 -10.078735l0 0c2.67305 0 5.236618 1.0618591 7.1267395 2.9519958c1.8901367 1.8901367 2.9519958 4.453705 2.9519958 7.1267395l0 0c0 5.566345 -4.5124054 10.078735 -10.078735 10.078735l0 0c-5.56633 0 -10.078735 -4.51239 -10.078735 -10.078735z" fill-rule="nonzero"></path><path fill="#cccccc" d="m178.943 444.50525l0 0c0 -5.566345 4.5124054 -10.078735 10.078735 -10.078735l0 0c2.67305 0 5.236618 1.0618591 7.1267548 2.9519958c1.8901215 1.8901367 2.9519958 4.453705 2.9519958 7.1267395l0 0c0 5.566345 -4.5124054 10.078735 -10.078751 10.078735l0 0c-5.56633 0 -10.078735 -4.51239 -10.078735 -10.078735z" fill-rule="nonzero"></path><path stroke="#666666" stroke-width="2.0" stroke-linejoin="round" stroke-linecap="butt" d="m178.943 444.50525l0 0c0 -5.566345 4.5124054 -10.078735 10.078735 -10.078735l0 0c2.67305 0 5.236618 1.0618591 7.1267548 2.9519958c1.8901215 1.8901367 2.9519958 4.453705 2.9519958 7.1267395l0 0c0 5.566345 -4.5124054 10.078735 -10.078751 10.078735l0 0c-5.56633 0 -10.078735 -4.51239 -10.078735 -10.078735z" fill-rule="nonzero"></path><path fill="#cccccc" d="m215.1031 444.50525l0 0c0 -5.566345 4.5124054 -10.078735 10.078735 -10.078735l0 0c2.67305 0 5.236618 1.0618591 7.1267548 2.9519958c1.8901215 1.8901367 2.9519806 4.453705 2.9519806 7.1267395l0 0c0 5.566345 -4.5124054 10.078735 -10.078735 10.078735l0 0c-5.56633 0 -10.078735 -4.51239 -10.078735 -10.078735z" fill-rule="nonzero"></path><path stroke="#666666" stroke-width="2.0" stroke-linejoin="round" stroke-linecap="butt" d="m215.1031 444.50525l0 0c0 -5.566345 4.5124054 -10.078735 10.078735 -10.078735l0 0c2.67305 0 5.236618 1.0618591 7.1267548 2.9519958c1.8901215 1.8901367 2.9519806 4.453705 2.9519806 7.1267395l0 0c0 5.566345 -4.5124054 10.078735 -10.078735 10.078735l0 0c-5.56633 0 -10.078735 -4.51239 -10.078735 -10.078735z" fill-rule="nonzero"></path><path fill="#cccccc" d="m125.5054 477.78503l0 0c0 -5.566345 4.5124054 -10.078766 10.078735 -10.078766l0 0c2.67305 0 5.236618 1.0618896 7.1267548 2.9519958c1.8901215 1.8901367 2.9519958 4.453705 2.9519958 7.12677l0 0c0 5.5663147 -4.5124054 10.078735 -10.078751 10.078735l0 0c-5.56633 0 -10.078735 -4.5124207 -10.078735 -10.078735z" fill-rule="nonzero"></path><path stroke="#666666" stroke-width="2.0" stroke-linejoin="round" stroke-linecap="butt" d="m125.5054 477.78503l0 0c0 -5.566345 4.5124054 -10.078766 10.078735 -10.078766l0 0c2.67305 0 5.236618 1.0618896 7.1267548 2.9519958c1.8901215 1.8901367 2.9519958 4.453705 2.9519958 7.12677l0 0c0 5.5663147 -4.5124054 10.078735 -10.078751 10.078735l0 0c-5.56633 0 -10.078735 -4.5124207 -10.078735 -10.078735z" fill-rule="nonzero"></path><path fill="#cccccc" d="m161.66551 477.78503l0 0c0 -5.566345 4.5124054 -10.078766 10.078735 -10.078766l0 0c2.67305 0 5.236618 1.0618896 7.1267395 2.9519958c1.8901367 1.8901367 2.9519958 4.453705 2.9519958 7.12677l0 0c0 5.5663147 -4.5124054 10.078735 -10.078735 10.078735l0 0c-5.56633 0 -10.078735 -4.5124207 -10.078735 -10.078735z" fill-rule="nonzero"></path><path stroke="#666666" stroke-width="2.0" stroke-linejoin="round" stroke-linecap="butt" d="m161.66551 477.78503l0 0c0 -5.566345 4.5124054 -10.078766 10.078735 -10.078766l0 0c2.67305 0 5.236618 1.0618896 7.1267395 2.9519958c1.8901367 1.8901367 2.9519958 4.453705 2.9519958 7.12677l0 0c0 5.5663147 -4.5124054 10.078735 -10.078735 10.078735l0 0c-5.56633 0 -10.078735 -4.5124207 -10.078735 -10.078735z" fill-rule="nonzero"></path><path fill="#cccccc" d="m197.82562 477.78503l0 0c0 -5.566345 4.5124054 -10.078766 10.078735 -10.078766l0 0c2.67305 0 5.236618 1.0618896 7.1267548 2.9519958c1.8901215 1.8901367 2.9519958 4.453705 2.9519958 7.12677l0 0c0 5.5663147 -4.5124054 10.078735 -10.078751 10.078735l0 0c-5.56633 0 -10.078735 -4.5124207 -10.078735 -10.078735z" fill-rule="nonzero"></path><path stroke="#666666" stroke-width="2.0" stroke-linejoin="round" stroke-linecap="butt" d="m197.82562 477.78503l0 0c0 -5.566345 4.5124054 -10.078766 10.078735 -10.078766l0 0c2.67305 0 5.236618 1.0618896 7.1267548 2.9519958c1.8901215 1.8901367 2.9519958 4.453705 2.9519958 7.12677l0 0c0 5.5663147 -4.5124054 10.078735 -10.078751 10.078735l0 0c-5.56633 0 -10.078735 -4.5124207 -10.078735 -10.078735z" fill-rule="nonzero"></path><path fill="#000000" fill-opacity="0.0" d="m207.90436 467.70627l10.141739 -16.062988" fill-rule="nonzero"></path><path stroke="#666666" stroke-width="1.0" stroke-linejoin="round" stroke-linecap="butt" stroke-dasharray="4.0,3.0" d="m207.90436 467.70627l10.141739 -16.062988" fill-rule="nonzero"></path><path fill="#000000" fill-opacity="0.0" d="m171.74425 467.70627l10.141739 -16.062988" fill-rule="nonzero"></path><path stroke="#666666" stroke-width="1.0" stroke-linejoin="round" stroke-linecap="butt" stroke-dasharray="4.0,3.0" d="m171.74425 467.70627l10.141739 -16.062988" fill-rule="nonzero"></path><path fill="#000000" fill-opacity="0.0" d="m135.58414 467.70627l-11.748024 -16.062988" fill-rule="nonzero"></path><path stroke="#666666" stroke-width="1.0" stroke-linejoin="round" stroke-linecap="butt" stroke-dasharray="4.0,3.0" d="m135.58414 467.70627l-11.748024 -16.062988" fill-rule="nonzero"></path><path fill="#cccccc" d="m246.01549 339.21143l0 0c0 -3.931305 3.1869507 -7.1182556 7.1182404 -7.1182556l61.291046 0c1.8878784 0 3.6984558 0.7499695 5.033386 2.0849c1.3349304 1.3349304 2.0848694 3.1454773 2.0848694 5.0333557l0 28.472168c0 3.931305 -3.1869507 7.1182556 -7.1182556 7.1182556l-61.291046 0c-3.9312897 0 -7.1182404 -3.1869507 -7.1182404 -7.1182556z" fill-rule="nonzero"></path><path stroke="#666666" stroke-width="2.0" stroke-linejoin="round" stroke-linecap="butt" d="m246.01549 339.21143l0 0c0 -3.931305 3.1869507 -7.1182556 7.1182404 -7.1182556l61.291046 0c1.8878784 0 3.6984558 0.7499695 5.033386 2.0849c1.3349304 1.3349304 2.0848694 3.1454773 2.0848694 5.0333557l0 28.472168c0 3.931305 -3.1869507 7.1182556 -7.1182556 7.1182556l-61.291046 0c-3.9312897 0 -7.1182404 -3.1869507 -7.1182404 -7.1182556z" fill-rule="nonzero"></path><path fill="#000000" d="m264.1738 349.8075l0 -11.453125l1.515625 0l0 4.703125l5.953125 0l0 -4.703125l1.515625 0l0 11.453125l-1.515625 0l0 -5.40625l-5.953125 0l0 5.40625l-1.515625 0zm14.4296875 0l0 -10.109375l-3.78125 0l0 -1.34375l9.078125 0l0 1.34375l-3.78125 0l0 10.109375l-1.515625 0zm9.7734375 0l0 -10.109375l-3.78125 0l0 -1.34375l9.078125 0l0 1.34375l-3.78125 0l0 10.109375l-1.515625 0zm6.8515625 0l0 -11.453125l4.328125 0q1.140625 0 1.734375 0.109375q0.84375 0.140625 1.40625 0.53125q0.578125 0.390625 0.921875 1.109375q0.359375 0.703125 0.359375 1.5625q0 1.453125 -0.9375 2.46875q-0.921875 1.015625 -3.359375 1.015625l-2.9375 0l0 4.65625l-1.515625 0zm1.515625 -6.015625l2.96875 0q1.46875 0 2.078125 -0.546875q0.625 -0.546875 0.625 -1.53125q0 -0.71875 -0.375 -1.234375q-0.359375 -0.515625 -0.953125 -0.671875q-0.375 -0.109375 -1.40625 -0.109375l-2.9375 0l0 4.09375z" fill-rule="nonzero"></path><path fill="#000000" d="m265.87302 368.8075l0 -11.453125l1.5625 0l6.015625 8.984375l0 -8.984375l1.453125 0l0 11.453125l-1.5625 0l-6.015625 -9.0l0 9.0l-1.453125 0zm10.8671875 -4.15625q0 -2.296875 1.28125 -3.40625q1.078125 -0.921875 2.609375 -0.921875q1.71875 0 2.796875 1.125q1.09375 1.109375 1.09375 3.09375q0 1.59375 -0.484375 2.515625q-0.484375 0.921875 -1.40625 1.4375q-0.90625 0.5 -2.0 0.5q-1.734375 0 -2.8125 -1.109375q-1.078125 -1.125 -1.078125 -3.234375zm1.453125 0q0 1.59375 0.6875 2.390625q0.703125 0.796875 1.75 0.796875q1.046875 0 1.734375 -0.796875q0.703125 -0.796875 0.703125 -2.4375q0 -1.53125 -0.703125 -2.328125q-0.6875 -0.796875 -1.734375 -0.796875q-1.046875 0 -1.75 0.796875q-0.6875 0.78125 -0.6875 2.375zm13.3515625 4.15625l0 -1.046875q-0.78125 1.234375 -2.3125 1.234375q-1.0 0 -1.828125 -0.546875q-0.828125 -0.546875 -1.296875 -1.53125q-0.453125 -0.984375 -0.453125 -2.25q0 -1.25 0.40625 -2.25q0.421875 -1.015625 1.25 -1.546875q0.828125 -0.546875 1.859375 -0.546875q0.75 0 1.328125 0.3125q0.59375 0.3125 0.953125 0.828125l0 -4.109375l1.40625 0l0 11.453125l-1.3125 0zm-4.4375 -4.140625q0 1.59375 0.671875 2.390625q0.671875 0.78125 1.578125 0.78125q0.921875 0 1.5625 -0.75q0.65625 -0.765625 0.65625 -2.3125q0 -1.703125 -0.65625 -2.5q-0.65625 -0.796875 -1.625 -0.796875q-0.9375 0 -1.5625 0.765625q-0.625 0.765625 -0.625 2.421875zm13.6328125 1.46875l1.453125 0.171875q-0.34375 1.28125 -1.28125 1.984375q-0.921875 0.703125 -2.359375 0.703125q-1.828125 0 -2.890625 -1.125q-1.0625 -1.125 -1.0625 -3.140625q0 -2.09375 1.078125 -3.25q1.078125 -1.15625 2.796875 -1.15625q1.65625 0 2.703125 1.140625q1.0625 1.125 1.0625 3.171875q0 0.125 0 0.375l-6.1875 0q0.078125 1.375 0.765625 2.109375q0.703125 0.71875 1.734375 0.71875q0.78125 0 1.328125 -0.40625q0.546875 -0.40625 0.859375 -1.296875zm-4.609375 -2.28125l4.625 0q-0.09375 -1.046875 -0.53125 -1.5625q-0.671875 -0.8125 -1.734375 -0.8125q-0.96875 0 -1.640625 0.65625q-0.65625 0.640625 -0.71875 1.71875z" fill-rule="nonzero"></path><path fill="#cccccc" d="m491.43045 444.5105l0 0c0 -5.566345 4.51239 -10.078735 10.078735 -10.078735l0 0c2.6730347 0 5.236603 1.0618591 7.1267395 2.9519958c1.8901367 1.8901367 2.9519958 4.453705 2.9519958 7.1267395l0 0c0 5.566345 -4.51239 10.078735 -10.078735 10.078735l0 0c-5.566345 0 -10.078735 -4.51239 -10.078735 -10.078735z" fill-rule="nonzero"></path><path stroke="#666666" stroke-width="2.0" stroke-linejoin="round" stroke-linecap="butt" d="m491.43045 444.5105l0 0c0 -5.566345 4.51239 -10.078735 10.078735 -10.078735l0 0c2.6730347 0 5.236603 1.0618591 7.1267395 2.9519958c1.8901367 1.8901367 2.9519958 4.453705 2.9519958 7.1267395l0 0c0 5.566345 -4.51239 10.078735 -10.078735 10.078735l0 0c-5.566345 0 -10.078735 -4.51239 -10.078735 -10.078735z" fill-rule="nonzero"></path><path fill="#cccccc" d="m527.5906 444.5105l0 0c0 -5.566345 4.51239 -10.078735 10.078735 -10.078735l0 0c2.6730347 0 5.2365723 1.0618591 7.126709 2.9519958c1.8901367 1.8901367 2.9520264 4.453705 2.9520264 7.1267395l0 0c0 5.566345 -4.512451 10.078735 -10.078735 10.078735l0 0c-5.566345 0 -10.078735 -4.51239 -10.078735 -10.078735z" fill-rule="nonzero"></path><path stroke="#666666" stroke-width="2.0" stroke-linejoin="round" stroke-linecap="butt" d="m527.5906 444.5105l0 0c0 -5.566345 4.51239 -10.078735 10.078735 -10.078735l0 0c2.6730347 0 5.2365723 1.0618591 7.126709 2.9519958c1.8901367 1.8901367 2.9520264 4.453705 2.9520264 7.1267395l0 0c0 5.566345 -4.512451 10.078735 -10.078735 10.078735l0 0c-5.566345 0 -10.078735 -4.51239 -10.078735 -10.078735z" fill-rule="nonzero"></path><path fill="#cccccc" d="m563.7507 444.5105l0 0c0 -5.566345 4.51239 -10.078735 10.078735 -10.078735l0 0c2.6730347 0 5.2366333 1.0618591 7.126709 2.9519958c1.8901367 1.8901367 2.9520264 4.453705 2.9520264 7.1267395l0 0c0 5.566345 -4.51239 10.078735 -10.078735 10.078735l0 0c-5.566345 0 -10.078735 -4.51239 -10.078735 -10.078735z" fill-rule="nonzero"></path><path stroke="#666666" stroke-width="2.0" stroke-linejoin="round" stroke-linecap="butt" d="m563.7507 444.5105l0 0c0 -5.566345 4.51239 -10.078735 10.078735 -10.078735l0 0c2.6730347 0 5.2366333 1.0618591 7.126709 2.9519958c1.8901367 1.8901367 2.9520264 4.453705 2.9520264 7.1267395l0 0c0 5.566345 -4.51239 10.078735 -10.078735 10.078735l0 0c-5.566345 0 -10.078735 -4.51239 -10.078735 -10.078735z" fill-rule="nonzero"></path><path fill="#cccccc" d="m599.91077 444.5105l0 0c0 -5.566345 4.51239 -10.078735 10.078735 -10.078735l0 0c2.6730347 0 5.2366333 1.0618591 7.12677 2.9519958c1.8900757 1.8901367 2.9519653 4.453705 2.9519653 7.1267395l0 0c0 5.566345 -4.51239 10.078735 -10.078735 10.078735l0 0c-5.566345 0 -10.078735 -4.51239 -10.078735 -10.078735z" fill-rule="nonzero"></path><path stroke="#666666" stroke-width="2.0" stroke-linejoin="round" stroke-linecap="butt" d="m599.91077 444.5105l0 0c0 -5.566345 4.51239 -10.078735 10.078735 -10.078735l0 0c2.6730347 0 5.2366333 1.0618591 7.12677 2.9519958c1.8900757 1.8901367 2.9519653 4.453705 2.9519653 7.1267395l0 0c0 5.566345 -4.51239 10.078735 -10.078735 10.078735l0 0c-5.566345 0 -10.078735 -4.51239 -10.078735 -10.078735z" fill-rule="nonzero"></path><path fill="#cccccc" d="m510.31308 477.79028l0 0c0 -5.566345 4.5124207 -10.078766 10.078705 -10.078766l0 0c2.6730957 0 5.2366333 1.0618896 7.12677 2.9519958c1.8901367 1.8901367 2.9520264 4.453705 2.9520264 7.12677l0 0c0 5.5663147 -4.512451 10.078735 -10.078796 10.078735l0 0c-5.566284 0 -10.078705 -4.5124207 -10.078705 -10.078735z" fill-rule="nonzero"></path><path stroke="#666666" stroke-width="2.0" stroke-linejoin="round" stroke-linecap="butt" d="m510.31308 477.79028l0 0c0 -5.566345 4.5124207 -10.078766 10.078705 -10.078766l0 0c2.6730957 0 5.2366333 1.0618896 7.12677 2.9519958c1.8901367 1.8901367 2.9520264 4.453705 2.9520264 7.12677l0 0c0 5.5663147 -4.512451 10.078735 -10.078796 10.078735l0 0c-5.566284 0 -10.078705 -4.5124207 -10.078705 -10.078735z" fill-rule="nonzero"></path><path fill="#cccccc" d="m546.4732 477.79028l0 0c0 -5.566345 4.51239 -10.078766 10.078735 -10.078766l0 0c2.6730347 0 5.2365723 1.0618896 7.126709 2.9519958c1.8901367 1.8901367 2.9520264 4.453705 2.9520264 7.12677l0 0c0 5.5663147 -4.512451 10.078735 -10.078735 10.078735l0 0c-5.566345 0 -10.078735 -4.5124207 -10.078735 -10.078735z" fill-rule="nonzero"></path><path stroke="#666666" stroke-width="2.0" stroke-linejoin="round" stroke-linecap="butt" d="m546.4732 477.79028l0 0c0 -5.566345 4.51239 -10.078766 10.078735 -10.078766l0 0c2.6730347 0 5.2365723 1.0618896 7.126709 2.9519958c1.8901367 1.8901367 2.9520264 4.453705 2.9520264 7.12677l0 0c0 5.5663147 -4.512451 10.078735 -10.078735 10.078735l0 0c-5.566345 0 -10.078735 -4.5124207 -10.078735 -10.078735z" fill-rule="nonzero"></path><path fill="#cccccc" d="m582.6333 477.79028l0 0c0 -5.566345 4.51239 -10.078766 10.078735 -10.078766l0 0c2.6730347 0 5.2366333 1.0618896 7.126709 2.9519958c1.8901367 1.8901367 2.9520264 4.453705 2.9520264 7.12677l0 0c0 5.5663147 -4.51239 10.078735 -10.078735 10.078735l0 0c-5.566345 0 -10.078735 -4.5124207 -10.078735 -10.078735z" fill-rule="nonzero"></path><path stroke="#666666" stroke-width="2.0" stroke-linejoin="round" stroke-linecap="butt" d="m582.6333 477.79028l0 0c0 -5.566345 4.51239 -10.078766 10.078735 -10.078766l0 0c2.6730347 0 5.2366333 1.0618896 7.126709 2.9519958c1.8901367 1.8901367 2.9520264 4.453705 2.9520264 7.12677l0 0c0 5.5663147 -4.51239 10.078735 -10.078735 10.078735l0 0c-5.566345 0 -10.078735 -4.5124207 -10.078735 -10.078735z" fill-rule="nonzero"></path><path fill="#000000" fill-opacity="0.0" d="m592.71204 467.71152l-11.748047 -16.062988" fill-rule="nonzero"></path><path stroke="#666666" stroke-width="1.0" stroke-linejoin="round" stroke-linecap="butt" d="m592.71204 467.71152l-11.748047 -16.062988" fill-rule="nonzero"></path><path fill="#000000" fill-opacity="0.0" d="m556.55194 467.71152l10.141724 -16.062988" fill-rule="nonzero"></path><path stroke="#666666" stroke-width="1.0" stroke-linejoin="round" stroke-linecap="butt" d="m556.55194 467.71152l10.141724 -16.062988" fill-rule="nonzero"></path><path fill="#000000" fill-opacity="0.0" d="m520.3918 467.71152l10.141785 -16.062988" fill-rule="nonzero"></path><path stroke="#666666" stroke-width="1.0" stroke-linejoin="round" stroke-linecap="butt" d="m520.3918 467.71152l10.141785 -16.062988" fill-rule="nonzero"></path><path fill="#cccccc" d="m639.4163 381.92535l0 0c0 -3.931305 3.1869507 -7.1182556 7.118286 -7.1182556l61.291016 0c1.8878784 0 3.6984863 0.74993896 5.033386 2.0848694c1.3349609 1.3349304 2.0849 3.1455078 2.0849 5.033386l0 28.472137c0 3.931305 -3.1869507 7.1182556 -7.118286 7.1182556l-61.291016 0c-3.9313354 0 -7.118286 -3.1869507 -7.118286 -7.1182556z" fill-rule="nonzero"></path><path stroke="#666666" stroke-width="2.0" stroke-linejoin="round" stroke-linecap="butt" d="m639.4163 381.92535l0 0c0 -3.931305 3.1869507 -7.1182556 7.118286 -7.1182556l61.291016 0c1.8878784 0 3.6984863 0.74993896 5.033386 2.0848694c1.3349609 1.3349304 2.0849 3.1455078 2.0849 5.033386l0 28.472137c0 3.931305 -3.1869507 7.1182556 -7.118286 7.1182556l-61.291016 0c-3.9313354 0 -7.118286 -3.1869507 -7.118286 -7.1182556z" fill-rule="nonzero"></path><path fill="#000000" d="m657.57465 392.52142l0 -11.453125l1.515625 0l0 4.703125l5.953125 0l0 -4.703125l1.515625 0l0 11.453125l-1.515625 0l0 -5.40625l-5.953125 0l0 5.40625l-1.515625 0zm14.4296875 0l0 -10.109375l-3.78125 0l0 -1.34375l9.078125 0l0 1.34375l-3.78125 0l0 10.109375l-1.515625 0zm9.7734375 0l0 -10.109375l-3.78125 0l0 -1.34375l9.078125 0l0 1.34375l-3.78125 0l0 10.109375l-1.515625 0zm6.8515625 0l0 -11.453125l4.328125 0q1.140625 0 1.734375 0.109375q0.84375 0.140625 1.40625 0.53125q0.578125 0.390625 0.921875 1.109375q0.359375 0.703125 0.359375 1.5625q0 1.453125 -0.9375 2.46875q-0.921875 1.015625 -3.359375 1.015625l-2.9375 0l0 4.65625l-1.515625 0zm1.515625 -6.015625l2.96875 0q1.46875 0 2.078125 -0.546875q0.625 -0.546875 0.625 -1.53125q0 -0.71875 -0.375 -1.234375q-0.359375 -0.515625 -0.953125 -0.671875q-0.375 -0.109375 -1.40625 -0.109375l-2.9375 0l0 4.09375z" fill-rule="nonzero"></path><path fill="#000000" d="m659.27386 411.52142l0 -11.453125l1.5625 0l6.015625 8.984375l0 -8.984375l1.453125 0l0 11.453125l-1.5625 0l-6.015625 -9.0l0 9.0l-1.453125 0zm10.8671875 -4.15625q0 -2.296875 1.28125 -3.40625q1.078125 -0.921875 2.609375 -0.921875q1.71875 0 2.796875 1.125q1.09375 1.109375 1.09375 3.09375q0 1.59375 -0.484375 2.515625q-0.484375 0.921875 -1.40625 1.4375q-0.90625 0.5 -2.0 0.5q-1.734375 0 -2.8125 -1.109375q-1.078125 -1.125 -1.078125 -3.234375zm1.453125 0q0 1.59375 0.6875 2.390625q0.703125 0.796875 1.75 0.796875q1.046875 0 1.734375 -0.796875q0.703125 -0.796875 0.703125 -2.4375q0 -1.53125 -0.703125 -2.328125q-0.6875 -0.796875 -1.734375 -0.796875q-1.046875 0 -1.75 0.796875q-0.6875 0.78125 -0.6875 2.375zm13.3515625 4.15625l0 -1.046875q-0.78125 1.234375 -2.3125 1.234375q-1.0 0 -1.828125 -0.546875q-0.828125 -0.546875 -1.296875 -1.53125q-0.453125 -0.984375 -0.453125 -2.25q0 -1.25 0.40625 -2.25q0.421875 -1.015625 1.25 -1.546875q0.828125 -0.546875 1.859375 -0.546875q0.75 0 1.328125 0.3125q0.59375 0.3125 0.953125 0.828125l0 -4.109375l1.40625 0l0 11.453125l-1.3125 0zm-4.4375 -4.140625q0 1.59375 0.671875 2.390625q0.671875 0.78125 1.578125 0.78125q0.921875 0 1.5625 -0.75q0.65625 -0.765625 0.65625 -2.3125q0 -1.703125 -0.65625 -2.5q-0.65625 -0.796875 -1.625 -0.796875q-0.9375 0 -1.5625 0.765625q-0.625 0.765625 -0.625 2.421875zm13.6328125 1.46875l1.453125 0.171875q-0.34375 1.28125 -1.28125 1.984375q-0.921875 0.703125 -2.359375 0.703125q-1.828125 0 -2.890625 -1.125q-1.0625 -1.125 -1.0625 -3.140625q0 -2.09375 1.078125 -3.25q1.078125 -1.15625 2.796875 -1.15625q1.65625 0 2.703125 1.140625q1.0625 1.125 1.0625 3.171875q0 0.125 0 0.375l-6.1875 0q0.078125 1.375 0.765625 2.109375q0.703125 0.71875 1.734375 0.71875q0.78125 0 1.328125 -0.40625q0.546875 -0.40625 0.859375 -1.296875zm-4.609375 -2.28125l4.625 0q-0.09375 -1.046875 -0.53125 -1.5625q-0.671875 -0.8125 -1.734375 -0.8125q-0.96875 0 -1.640625 0.65625q-0.65625 0.640625 -0.71875 1.71875z" fill-rule="nonzero"></path><path fill="#cccccc" d="m374.62573 387.16418l0 0c0 -3.931305 3.1869202 -7.1182556 7.118225 -7.1182556l61.291077 0c1.8878784 0 3.6984253 0.7499695 5.0333557 2.0849c1.3349304 1.3349304 2.0849 3.1454773 2.0849 5.0333557l0 28.472168c0 3.931305 -3.1869507 7.1182556 -7.1182556 7.1182556l-61.291077 0c-3.931305 0 -7.118225 -3.1869507 -7.118225 -7.1182556z" fill-rule="nonzero"></path><path stroke="#666666" stroke-width="2.0" stroke-linejoin="round" stroke-linecap="butt" d="m374.62573 387.16418l0 0c0 -3.931305 3.1869202 -7.1182556 7.118225 -7.1182556l61.291077 0c1.8878784 0 3.6984253 0.7499695 5.0333557 2.0849c1.3349304 1.3349304 2.0849 3.1454773 2.0849 5.0333557l0 28.472168c0 3.931305 -3.1869507 7.1182556 -7.1182556 7.1182556l-61.291077 0c-3.931305 0 -7.118225 -3.1869507 -7.118225 -7.1182556z" fill-rule="nonzero"></path><path fill="#000000" d="m390.91684 397.76025l0 -11.453125l2.28125 0l2.71875 8.109375q0.375 1.125 0.546875 1.6875q0.1875 -0.625 0.609375 -1.828125l2.734375 -7.96875l2.046875 0l0 11.453125l-1.46875 0l0 -9.59375l-3.328125 9.59375l-1.359375 0l-3.3125 -9.75l0 9.75l-1.46875 0zm22.0625 -1.234375q1.046875 0.734375 1.9375 1.0625l-0.4375 1.0625q-1.234375 -0.4375 -2.46875 -1.40625q-1.265625 0.71875 -2.8125 0.71875q-1.546875 0 -2.8125 -0.75q-1.265625 -0.765625 -1.953125 -2.125q-0.6875 -1.359375 -0.6875 -3.0625q0 -1.6875 0.6875 -3.078125q0.6875 -1.390625 1.953125 -2.109375q1.28125 -0.734375 2.84375 -0.734375q1.59375 0 2.859375 0.75q1.28125 0.75 1.9375 2.109375q0.671875 1.359375 0.671875 3.0625q0 1.40625 -0.4375 2.546875q-0.421875 1.125 -1.28125 1.953125zm-3.34375 -1.9375q1.3125 0.375 2.171875 1.09375q1.328125 -1.21875 1.328125 -3.65625q0 -1.390625 -0.46875 -2.421875q-0.46875 -1.046875 -1.390625 -1.625q-0.90625 -0.578125 -2.03125 -0.578125q-1.703125 0 -2.828125 1.171875q-1.109375 1.15625 -1.109375 3.453125q0 2.234375 1.109375 3.4375q1.109375 1.1875 2.828125 1.1875q0.8125 0 1.53125 -0.296875q-0.71875 -0.46875 -1.5 -0.65625l0.359375 -1.109375zm10.0234375 3.171875l0 -10.109375l-3.78125 0l0 -1.34375l9.078125 0l0 1.34375l-3.78125 0l0 10.109375l-1.515625 0zm9.7734375 0l0 -10.109375l-3.78125 0l0 -1.34375l9.078125 0l0 1.34375l-3.78125 0l0 10.109375l-1.515625 0z" fill-rule="nonzero"></path><path fill="#000000" d="m394.48325 416.76025l0 -11.453125l1.5625 0l6.015625 8.984375l0 -8.984375l1.453125 0l0 11.453125l-1.5625 0l-6.015625 -9.0l0 9.0l-1.453125 0zm10.8671875 -4.15625q0 -2.296875 1.28125 -3.40625q1.078125 -0.921875 2.609375 -0.921875q1.71875 0 2.796875 1.125q1.09375 1.109375 1.09375 3.09375q0 1.59375 -0.484375 2.515625q-0.484375 0.921875 -1.40625 1.4375q-0.90625 0.5 -2.0 0.5q-1.734375 0 -2.8125 -1.109375q-1.078125 -1.125 -1.078125 -3.234375zm1.453125 0q0 1.59375 0.6875 2.390625q0.703125 0.796875 1.75 0.796875q1.046875 0 1.734375 -0.796875q0.703125 -0.796875 0.703125 -2.4375q0 -1.53125 -0.703125 -2.328125q-0.6875 -0.796875 -1.734375 -0.796875q-1.046875 0 -1.75 0.796875q-0.6875 0.78125 -0.6875 2.375zm13.3515625 4.15625l0 -1.046875q-0.78125 1.234375 -2.3125 1.234375q-1.0 0 -1.828125 -0.546875q-0.828125 -0.546875 -1.296875 -1.53125q-0.453125 -0.984375 -0.453125 -2.25q0 -1.25 0.40625 -2.25q0.421875 -1.015625 1.25 -1.546875q0.828125 -0.546875 1.859375 -0.546875q0.75 0 1.328125 0.3125q0.59375 0.3125 0.953125 0.828125l0 -4.109375l1.40625 0l0 11.453125l-1.3125 0zm-4.4375 -4.140625q0 1.59375 0.671875 2.390625q0.671875 0.78125 1.578125 0.78125q0.921875 0 1.5625 -0.75q0.65625 -0.765625 0.65625 -2.3125q0 -1.703125 -0.65625 -2.5q-0.65625 -0.796875 -1.625 -0.796875q-0.9375 0 -1.5625 0.765625q-0.625 0.765625 -0.625 2.421875zm13.6328125 1.46875l1.453125 0.171875q-0.34375 1.28125 -1.28125 1.984375q-0.921875 0.703125 -2.359375 0.703125q-1.828125 0 -2.890625 -1.125q-1.0625 -1.125 -1.0625 -3.140625q0 -2.09375 1.078125 -3.25q1.078125 -1.15625 2.796875 -1.15625q1.65625 0 2.703125 1.140625q1.0625 1.125 1.0625 3.171875q0 0.125 0 0.375l-6.1875 0q0.078125 1.375 0.765625 2.109375q0.703125 0.71875 1.734375 0.71875q0.78125 0 1.328125 -0.40625q0.546875 -0.40625 0.859375 -1.296875zm-4.609375 -2.28125l4.625 0q-0.09375 -1.046875 -0.53125 -1.5625q-0.671875 -0.8125 -1.734375 -0.8125q-0.96875 0 -1.640625 0.65625q-0.65625 0.640625 -0.71875 1.71875z" fill-rule="nonzero"></path><path fill="#cccccc" d="m777.8481 316.09726l0 0c0 -3.931305 3.1869507 -7.1182556 7.118286 -7.1182556l61.291016 0c1.8878784 0 3.6984253 0.7499695 5.033386 2.0849c1.3348999 1.3349304 2.0849 3.1454773 2.0849 5.0333557l0 28.472137c0 3.931305 -3.1869507 7.1182556 -7.118286 7.1182556l-61.291016 0c-3.9313354 0 -7.118286 -3.1869507 -7.118286 -7.1182556z" fill-rule="nonzero"></path><path stroke="#666666" stroke-width="2.0" stroke-linejoin="round" stroke-linecap="butt" d="m777.8481 316.09726l0 0c0 -3.931305 3.1869507 -7.1182556 7.118286 -7.1182556l61.291016 0c1.8878784 0 3.6984253 0.7499695 5.033386 2.0849c1.3348999 1.3349304 2.0849 3.1454773 2.0849 5.0333557l0 28.472137c0 3.931305 -3.1869507 7.1182556 -7.118286 7.1182556l-61.291016 0c-3.9313354 0 -7.118286 -3.1869507 -7.118286 -7.1182556z" fill-rule="nonzero"></path><path fill="#000000" d="m793.0181 326.69333l4.421875 -5.96875l-3.90625 -5.484375l1.8125 0l2.078125 2.9375q0.640625 0.90625 0.921875 1.40625q0.375 -0.625 0.90625 -1.3125l2.296875 -3.03125l1.65625 0l-4.03125 5.390625l4.34375 6.0625l-1.875 0l-2.890625 -4.09375q-0.234375 -0.34375 -0.5 -0.765625q-0.375 0.625 -0.546875 0.859375l-2.875 4.0l-1.8125 0zm11.78125 0l0 -11.453125l2.28125 0l2.71875 8.109375q0.375 1.125 0.546875 1.6875q0.1875 -0.625 0.609375 -1.828125l2.734375 -7.96875l2.046875 0l0 11.453125l-1.46875 0l0 -9.59375l-3.328125 9.59375l-1.359375 0l-3.3125 -9.75l0 9.75l-1.46875 0zm13.375 0l0 -11.453125l4.328125 0q1.140625 0 1.734375 0.109375q0.84375 0.140625 1.40625 0.53125q0.578125 0.390625 0.921875 1.109375q0.359375 0.703125 0.359375 1.5625q0 1.453125 -0.9375 2.46875q-0.921875 1.015625 -3.359375 1.015625l-2.9375 0l0 4.65625l-1.515625 0zm1.515625 -6.015625l2.96875 0q1.46875 0 2.078125 -0.546875q0.625 -0.546875 0.625 -1.53125q0 -0.71875 -0.375 -1.234375q-0.359375 -0.515625 -0.953125 -0.671875q-0.375 -0.109375 -1.40625 -0.109375l-2.9375 0l0 4.09375zm9.15625 6.015625l0 -11.453125l4.328125 0q1.140625 0 1.734375 0.109375q0.84375 0.140625 1.40625 0.53125q0.578125 0.390625 0.921875 1.109375q0.359375 0.703125 0.359375 1.5625q0 1.453125 -0.9375 2.46875q-0.921875 1.015625 -3.359375 1.015625l-2.9375 0l0 4.65625l-1.515625 0zm1.515625 -6.015625l2.96875 0q1.46875 0 2.078125 -0.546875q0.625 -0.546875 0.625 -1.53125q0 -0.71875 -0.375 -1.234375q-0.359375 -0.515625 -0.953125 -0.671875q-0.375 -0.109375 -1.40625 -0.109375l-2.9375 0l0 4.09375z" fill-rule="nonzero"></path><path fill="#000000" d="m797.7056 345.69333l0 -11.453125l1.5625 0l6.015625 8.984375l0 -8.984375l1.453125 0l0 11.453125l-1.5625 0l-6.015625 -9.0l0 9.0l-1.453125 0zm10.8671875 -4.15625q0 -2.296875 1.28125 -3.40625q1.078125 -0.921875 2.609375 -0.921875q1.71875 0 2.796875 1.125q1.09375 1.109375 1.09375 3.09375q0 1.59375 -0.484375 2.515625q-0.484375 0.921875 -1.40625 1.4375q-0.90625 0.5 -2.0 0.5q-1.734375 0 -2.8125 -1.109375q-1.078125 -1.125 -1.078125 -3.234375zm1.453125 0q0 1.59375 0.6875 2.390625q0.703125 0.796875 1.75 0.796875q1.046875 0 1.734375 -0.796875q0.703125 -0.796875 0.703125 -2.4375q0 -1.53125 -0.703125 -2.328125q-0.6875 -0.796875 -1.734375 -0.796875q-1.046875 0 -1.75 0.796875q-0.6875 0.78125 -0.6875 2.375zm13.3515625 4.15625l0 -1.046875q-0.78125 1.234375 -2.3125 1.234375q-1.0 0 -1.828125 -0.546875q-0.828125 -0.546875 -1.296875 -1.53125q-0.453125 -0.984375 -0.453125 -2.25q0 -1.25 0.40625 -2.25q0.421875 -1.015625 1.25 -1.546875q0.828125 -0.546875 1.859375 -0.546875q0.75 0 1.328125 0.3125q0.59375 0.3125 0.953125 0.828125l0 -4.109375l1.40625 0l0 11.453125l-1.3125 0zm-4.4375 -4.140625q0 1.59375 0.671875 2.390625q0.671875 0.78125 1.578125 0.78125q0.921875 0 1.5625 -0.75q0.65625 -0.765625 0.65625 -2.3125q0 -1.703125 -0.65625 -2.5q-0.65625 -0.796875 -1.625 -0.796875q-0.9375 0 -1.5625 0.765625q-0.625 0.765625 -0.625 2.421875zm13.6328125 1.46875l1.453125 0.171875q-0.34375 1.28125 -1.28125 1.984375q-0.921875 0.703125 -2.359375 0.703125q-1.828125 0 -2.890625 -1.125q-1.0625 -1.125 -1.0625 -3.140625q0 -2.09375 1.078125 -3.25q1.078125 -1.15625 2.796875 -1.15625q1.65625 0 2.703125 1.140625q1.0625 1.125 1.0625 3.171875q0 0.125 0 0.375l-6.1875 0q0.078125 1.375 0.765625 2.109375q0.703125 0.71875 1.734375 0.71875q0.78125 0 1.328125 -0.40625q0.546875 -0.40625 0.859375 -1.296875zm-4.609375 -2.28125l4.625 0q-0.09375 -1.046875 -0.53125 -1.5625q-0.671875 -0.8125 -1.734375 -0.8125q-0.96875 0 -1.640625 0.65625q-0.65625 0.640625 -0.71875 1.71875z" fill-rule="nonzero"></path><path fill="#000000" fill-opacity="0.0" d="m124.61155 487.86353l94.26772 0l0 48.0l-94.26772 0z" fill-rule="nonzero"></path><path fill="#000000" d="m143.4329 506.00476q-0.875 -0.3125 -1.296875 -0.90625q-0.421875 -0.59375 -0.421875 -1.421875q0 -1.25 0.890625 -2.09375q0.90625 -0.859375 2.40625 -0.859375q1.5 0 2.40625 0.875q0.921875 0.859375 0.921875 2.109375q0 0.796875 -0.421875 1.390625q-0.421875 0.59375 -1.265625 0.90625q1.046875 0.34375 1.59375 1.109375q0.5625 0.765625 0.5625 1.828125q0 1.46875 -1.046875 2.484375q-1.03125 1.0 -2.734375 1.0q-1.6875 0 -2.734375 -1.0q-1.03125 -1.015625 -1.03125 -2.515625q0 -1.125 0.5625 -1.875q0.5625 -0.75 1.609375 -1.03125zm-0.28125 -2.375q0 0.8125 0.515625 1.328125q0.53125 0.515625 1.375 0.515625q0.8125 0 1.328125 -0.515625q0.515625 -0.515625 0.515625 -1.25q0 -0.78125 -0.53125 -1.296875q-0.53125 -0.53125 -1.328125 -0.53125q-0.8125 0 -1.34375 0.515625q-0.53125 0.515625 -0.53125 1.234375zm-0.453125 5.28125q0 0.609375 0.28125 1.171875q0.296875 0.5625 0.859375 0.875q0.5625 0.296875 1.203125 0.296875q1.015625 0 1.671875 -0.640625q0.65625 -0.65625 0.65625 -1.65625q0 -1.015625 -0.6875 -1.671875q-0.671875 -0.671875 -1.6875 -0.671875q-0.984375 0 -1.640625 0.65625q-0.65625 0.65625 -0.65625 1.640625zm7.4765625 -2.34375q0 -2.03125 0.40625 -3.265625q0.421875 -1.234375 1.25 -1.90625q0.828125 -0.671875 2.078125 -0.671875q0.921875 0 1.609375 0.375q0.703125 0.359375 1.15625 1.0625q0.453125 0.703125 0.703125 1.703125q0.265625 1.0 0.265625 2.703125q0 2.015625 -0.421875 3.265625q-0.40625 1.234375 -1.234375 1.921875q-0.828125 0.671875 -2.078125 0.671875q-1.65625 0 -2.609375 -1.203125q-1.125 -1.421875 -1.125 -4.65625zm1.4375 0q0 2.828125 0.65625 3.765625q0.671875 0.921875 1.640625 0.921875q0.96875 0 1.625 -0.9375q0.65625 -0.9375 0.65625 -3.75q0 -2.828125 -0.65625 -3.75q-0.65625 -0.9375 -1.640625 -0.9375q-0.96875 0 -1.546875 0.828125q-0.734375 1.046875 -0.734375 3.859375zm14.8515625 4.296875l0 1.359375l-7.578125 0q-0.015625 -0.515625 0.171875 -0.984375q0.28125 -0.765625 0.921875 -1.515625q0.640625 -0.75 1.84375 -1.734375q1.859375 -1.53125 2.515625 -2.421875q0.65625 -0.90625 0.65625 -1.703125q0 -0.828125 -0.59375 -1.40625q-0.59375 -0.578125 -1.5625 -0.578125q-1.015625 0 -1.625 0.609375q-0.609375 0.609375 -0.609375 1.6875l-1.453125 -0.140625q0.15625 -1.625 1.125 -2.46875q0.96875 -0.84375 2.59375 -0.84375q1.65625 0 2.609375 0.921875q0.96875 0.90625 0.96875 2.25q0 0.6875 -0.28125 1.359375q-0.28125 0.65625 -0.9375 1.390625q-0.65625 0.734375 -2.171875 2.015625q-1.265625 1.0625 -1.625 1.453125q-0.359375 0.375 -0.59375 0.75l5.625 0zm2.2890625 1.359375l0 -1.609375l1.609375 0l0 1.609375l-1.609375 0zm8.9609375 0l-1.40625 0l0 -8.96875q-0.515625 0.484375 -1.34375 0.96875q-0.8125 0.484375 -1.46875 0.734375l0 -1.359375q1.171875 -0.5625 2.046875 -1.34375q0.890625 -0.796875 1.265625 -1.53125l0.90625 0l0 11.5zm3.6015625 -3.0l1.46875 -0.125q0.171875 1.078125 0.765625 1.625q0.59375 0.53125 1.4375 0.53125q1.015625 0 1.71875 -0.765625q0.703125 -0.765625 0.703125 -2.03125q0 -1.203125 -0.671875 -1.890625q-0.671875 -0.703125 -1.765625 -0.703125q-0.6875 0 -1.234375 0.3125q-0.546875 0.3125 -0.859375 0.796875l-1.3125 -0.171875l1.109375 -5.875l5.6875 0l0 1.34375l-4.5625 0l-0.625 3.078125q1.03125 -0.71875 2.171875 -0.71875q1.5 0 2.53125 1.046875q1.03125 1.03125 1.03125 2.65625q0 1.5625 -0.90625 2.6875q-1.109375 1.40625 -3.015625 1.40625q-1.5625 0 -2.546875 -0.875q-0.984375 -0.890625 -1.125 -2.328125zm9.6796875 3.0l0 -1.609375l1.609375 0l0 1.609375l-1.609375 0zm8.1640625 0l0 -2.75l-4.96875 0l0 -1.28125l5.234375 -7.421875l1.140625 0l0 7.421875l1.546875 0l0 1.28125l-1.546875 0l0 2.75l-1.40625 0zm0 -4.03125l0 -5.171875l-3.578125 5.171875l3.578125 0z" fill-rule="nonzero"></path><path fill="#000000" fill-opacity="0.0" d="m509.41733 488.58005l94.26773 0l0 48.00003l-94.26773 0z" fill-rule="nonzero"></path><path fill="#000000" d="m533.3559 512.94006l0 -11.453125l5.078125 0q1.53125 0 2.328125 0.3125q0.796875 0.296875 1.265625 1.078125q0.484375 0.78125 0.484375 1.734375q0 1.21875 -0.796875 2.0625q-0.78125 0.828125 -2.4375 1.046875q0.609375 0.296875 0.921875 0.578125q0.65625 0.609375 1.25 1.515625l2.0 3.125l-1.90625 0l-1.515625 -2.390625q-0.671875 -1.03125 -1.109375 -1.578125q-0.421875 -0.546875 -0.765625 -0.765625q-0.328125 -0.21875 -0.6875 -0.296875q-0.25 -0.0625 -0.84375 -0.0625l-1.75 0l0 5.09375l-1.515625 0zm1.515625 -6.40625l3.25 0q1.046875 0 1.625 -0.203125q0.59375 -0.21875 0.890625 -0.6875q0.3125 -0.484375 0.3125 -1.03125q0 -0.8125 -0.59375 -1.328125q-0.59375 -0.53125 -1.859375 -0.53125l-3.625 0l0 3.78125zm9.4921875 2.71875l1.4375 -0.125q0.09375 0.859375 0.46875 1.421875q0.375 0.546875 1.15625 0.890625q0.78125 0.328125 1.75 0.328125q0.875 0 1.53125 -0.25q0.671875 -0.265625 0.984375 -0.703125q0.328125 -0.453125 0.328125 -0.984375q0 -0.546875 -0.3125 -0.9375q-0.3125 -0.40625 -1.03125 -0.6875q-0.453125 -0.171875 -2.03125 -0.546875q-1.578125 -0.390625 -2.21875 -0.71875q-0.8125 -0.4375 -1.21875 -1.0625q-0.40625 -0.640625 -0.40625 -1.4375q0 -0.859375 0.484375 -1.609375q0.5 -0.765625 1.4375 -1.15625q0.953125 -0.390625 2.109375 -0.390625q1.28125 0 2.25 0.421875q0.96875 0.40625 1.484375 1.203125q0.53125 0.796875 0.578125 1.796875l-1.453125 0.109375q-0.125 -1.078125 -0.796875 -1.625q-0.671875 -0.5625 -2.0 -0.5625q-1.375 0 -2.0 0.5q-0.625 0.5 -0.625 1.21875q0 0.609375 0.4375 1.015625q0.4375 0.390625 2.28125 0.8125q1.859375 0.421875 2.546875 0.734375q1.0 0.453125 1.46875 1.171875q0.484375 0.703125 0.484375 1.625q0 0.90625 -0.53125 1.71875q-0.515625 0.8125 -1.5 1.265625q-0.984375 0.453125 -2.203125 0.453125q-1.5625 0 -2.609375 -0.453125q-1.046875 -0.46875 -1.65625 -1.375q-0.59375 -0.90625 -0.625 -2.0625zm15.125 3.6875l0 -2.75l-4.96875 0l0 -1.28125l5.234375 -7.421875l1.140625 0l0 7.421875l1.546875 0l0 1.28125l-1.546875 0l0 2.75l-1.40625 0zm0 -4.03125l0 -5.171875l-3.578125 5.171875l3.578125 0zm6.5546875 -2.1875q-0.875 -0.3125 -1.296875 -0.90625q-0.421875 -0.59375 -0.421875 -1.421875q0 -1.25 0.890625 -2.09375q0.90625 -0.859375 2.40625 -0.859375q1.5 0 2.40625 0.875q0.921875 0.859375 0.921875 2.109375q0 0.796875 -0.421875 1.390625q-0.421875 0.59375 -1.265625 0.90625q1.046875 0.34375 1.59375 1.109375q0.5625 0.765625 0.5625 1.828125q0 1.46875 -1.046875 2.484375q-1.03125 1.0 -2.734375 1.0q-1.6875 0 -2.734375 -1.0q-1.03125 -1.015625 -1.03125 -2.515625q0 -1.125 0.5625 -1.875q0.5625 -0.75 1.609375 -1.03125zm-0.28125 -2.375q0 0.8125 0.515625 1.328125q0.53125 0.515625 1.375 0.515625q0.8125 0 1.328125 -0.515625q0.515625 -0.515625 0.515625 -1.25q0 -0.78125 -0.53125 -1.296875q-0.53125 -0.53125 -1.328125 -0.53125q-0.8125 0 -1.34375 0.515625q-0.53125 0.515625 -0.53125 1.234375zm-0.453125 5.28125q0 0.609375 0.28125 1.171875q0.296875 0.5625 0.859375 0.875q0.5625 0.296875 1.203125 0.296875q1.015625 0 1.671875 -0.640625q0.65625 -0.65625 0.65625 -1.65625q0 -1.015625 -0.6875 -1.671875q-0.671875 -0.671875 -1.6875 -0.671875q-0.984375 0 -1.640625 0.65625q-0.65625 0.65625 -0.65625 1.640625zm7.4765625 0.3125l1.46875 -0.125q0.171875 1.078125 0.765625 1.625q0.59375 0.53125 1.4375 0.53125q1.015625 0 1.71875 -0.765625q0.703125 -0.765625 0.703125 -2.03125q0 -1.203125 -0.671875 -1.890625q-0.671875 -0.703125 -1.765625 -0.703125q-0.6875 0 -1.234375 0.3125q-0.546875 0.3125 -0.859375 0.796875l-1.3125 -0.171875l1.109375 -5.875l5.6875 0l0 1.34375l-4.5625 0l-0.625 3.078125q1.03125 -0.71875 2.171875 -0.71875q1.5 0 2.53125 1.046875q1.03125 1.03125 1.03125 2.65625q0 1.5625 -0.90625 2.6875q-1.109375 1.40625 -3.015625 1.40625q-1.5625 0 -2.546875 -0.875q-0.984375 -0.890625 -1.125 -2.328125z" fill-rule="nonzero"></path></g></svg>

